<svg width="26" height="26" viewBox="0 0 26 26" fill="none" xmlns="http://www.w3.org/2000/svg">
<path d="M13 25.5C19.9036 25.5 25.5 19.9036 25.5 13C25.5 6.09644 19.9036 0.500001 13 0.5C6.09644 0.500001 0.499999 6.09644 0.5 13C0.499999 19.9036 6.09644 25.5 13 25.5ZM13 18.0387C12.849 18.0387 12.7015 17.9939 12.576 17.9101C12.4505 17.8262 12.3526 17.707 12.2949 17.5676C12.2371 17.4281 12.222 17.2747 12.2515 17.1267C12.2809 16.9786 12.3536 16.8426 12.4603 16.7359C12.567 16.6292 12.703 16.5565 12.8511 16.5271C12.9991 16.4976 13.1526 16.5127 13.292 16.5705C13.4314 16.6282 13.5506 16.7261 13.6345 16.8516C13.7184 16.9771 13.7631 17.1246 13.7631 17.2755C13.7631 17.4779 13.6827 17.6721 13.5396 17.8152C13.3965 17.9583 13.2024 18.0387 13 18.0387ZM12.4947 14.0061L12.4932 14.006L12.4928 14.0059C12.4926 14.0058 12.4919 14.0054 12.491 14.0046C12.4902 14.0037 12.4898 14.003 12.4897 14.0028L12.4896 14.0024L12.4895 14.0009L12.4895 7.8211L12.4896 7.81951L12.4897 7.81921C12.4898 7.81894 12.4902 7.81822 12.491 7.81738C12.4919 7.81654 12.4926 7.81616 12.4928 7.81605L12.4932 7.81595L12.4947 7.81584H13.5053L13.5069 7.81595L13.5072 7.81605C13.5074 7.81616 13.5082 7.81654 13.509 7.81738C13.5098 7.81822 13.5102 7.81894 13.5103 7.81921L13.5104 7.81951L13.5105 7.8211L13.5105 14.0009L13.5104 14.0024L13.5103 14.0028C13.5102 14.003 13.5098 14.0037 13.509 14.0046C13.5082 14.0054 13.5074 14.0058 13.5072 14.0059L13.5069 14.006L13.5053 14.0061H12.4947Z" fill="#DF473D" stroke="white"/>
</svg>
