<svg width="32" height="32" viewBox="0 0 32 32" fill="none" xmlns="http://www.w3.org/2000/svg">
<circle cx="16" cy="16" r="16" fill="#EBEBEB"/>
<path fill-rule="evenodd" clip-rule="evenodd" d="M13.2672 19.9022H18.0549C18.4157 19.9022 18.7149 19.6 18.7149 19.2356C18.7149 18.8711 18.4157 18.5778 18.0549 18.5778H13.2672C12.9064 18.5778 12.6071 18.8711 12.6071 19.2356C12.6071 19.6 12.9064 19.9022 13.2672 19.9022ZM16.2419 14.1333H13.2672C12.9064 14.1333 12.6071 14.4356 12.6071 14.8C12.6071 15.1645 12.9064 15.4578 13.2672 15.4578H16.2419C16.6027 15.4578 16.902 15.1645 16.902 14.8C16.902 14.4356 16.6027 14.1333 16.2419 14.1333ZM22.5226 13.3561C22.7295 13.3537 22.9547 13.3511 23.1594 13.3511C23.3794 13.3511 23.5554 13.5289 23.5554 13.7511V20.8978C23.5554 23.1022 21.7865 24.8889 19.6039 24.8889H12.5984C10.3101 24.8889 8.44434 23.0133 8.44434 20.7022V11.12C8.44434 8.91553 10.2221 7.11108 12.4135 7.11108H17.1132C17.342 7.11108 17.518 7.29775 17.518 7.51997V10.3822C17.518 12.0089 18.847 13.3422 20.4575 13.3511C20.8337 13.3511 21.1654 13.3539 21.4556 13.3564C21.6814 13.3583 21.8822 13.36 22.0593 13.36C22.1846 13.36 22.347 13.3581 22.5226 13.3561ZM22.7653 12.0587C22.0419 12.0614 21.1891 12.0587 20.5757 12.0525C19.6023 12.0525 18.8005 11.2427 18.8005 10.2596V7.91652C18.8005 7.53341 19.2608 7.34319 19.524 7.61963C19.9999 8.11947 20.6539 8.80642 21.3049 9.49036C21.9553 10.1735 22.6028 10.8537 23.0672 11.3414C23.3242 11.6107 23.1358 12.0579 22.7653 12.0587Z" fill="#BDBDBD"/>
</svg>
