<svg width="757" height="100" viewBox="0 0 757 100" fill="none" xmlns="http://www.w3.org/2000/svg">
<path d="M724.752 80.3212V37.5615H711.726V26.9424H724.752V6.69531H736.362V26.9424H755.052V37.5615H736.362V80.1796C736.362 86.2679 738.486 88.5333 744.716 88.5333H756.184V99.1524H743.583C729.707 99.1524 724.752 93.0641 724.752 80.3212Z" fill="black"/>
<path d="M674.247 99.9998C652.584 99.9998 638.425 85.1331 638.425 63.0453C638.425 41.0992 652.3 26.0908 672.689 26.0908C693.078 26.0908 706.387 38.9753 706.953 60.3552C706.953 61.9126 706.812 63.6117 706.67 65.3107H650.601V66.3019C651.026 80.0359 659.663 89.6639 673.397 89.6639C683.591 89.6639 691.52 84.2835 693.927 74.9387H705.679C702.847 89.3807 690.954 99.9998 674.247 99.9998ZM694.494 55.6827C693.361 43.223 684.866 36.2852 672.831 36.2852C662.212 36.2852 652.442 43.9309 651.309 55.6827H694.494Z" fill="black"/>
<path d="M613.456 0.0400391H625.066V99.1517H613.456V0.0400391Z" fill="black"/>
<path d="M585.939 0.0400391H597.55V99.1517H585.939V0.0400391Z" fill="black"/>
<path d="M509.054 48.6033C510.753 34.4445 522.221 26.0908 539.637 26.0908C558.043 26.0908 568.662 35.2941 568.662 52.143V83.7172C568.662 87.5401 570.078 88.5312 573.335 88.5312H577.016V99.1503H570.644C561.016 99.1503 557.76 95.0442 557.618 87.9648C553.087 94.4779 545.866 99.9998 533.407 99.9998C517.549 99.9998 506.788 92.0709 506.788 78.9032C506.788 64.4612 516.841 56.3907 535.814 56.3907H557.052V51.4351C557.052 42.0903 550.397 36.4268 539.07 36.4268C528.876 36.4268 522.08 41.2408 520.664 48.6033H509.054ZM534.681 66.1603C524.345 66.1603 518.54 69.9831 518.54 78.1953C518.54 85.2747 524.628 90.0887 534.256 90.0887C548.698 90.0887 557.052 81.735 557.052 69.7V66.1603H534.681Z" fill="black"/>
<path d="M374.117 0.0400391H387.002L410.222 83.2939L434.575 0.0400391H447.035L470.539 83.2939L493.901 0.0400391H506.644L477.618 99.1517H462.893L440.239 20.5703L417.726 99.1517H403.001L374.117 0.0400391Z" fill="black"/>
<g clip-path="url(#clip0_68_76817)">
<path d="M96.8924 0H2.2021C1.61807 0 1.05795 0.232126 0.64498 0.645312C0.232006 1.0585 0 1.6189 0 2.20323L0 96.9423C0 97.5266 0.232006 98.087 0.64498 98.5002C1.05795 98.9134 1.61807 99.1455 2.2021 99.1455H96.8924C97.4764 99.1455 98.0365 98.9134 98.4495 98.5002C98.8625 98.087 99.0945 97.5266 99.0945 96.9423V2.20323C99.0945 1.6189 98.8625 1.0585 98.4495 0.645312C98.0365 0.232126 97.4764 0 96.8924 0V0ZM66.063 63.8938C66.063 64.4781 65.831 65.0385 65.418 65.4517C65.005 65.8649 64.4449 66.097 63.8609 66.097H35.2336C34.6496 66.097 34.0894 65.8649 33.6765 65.4517C33.2635 65.0385 33.0315 64.4781 33.0315 63.8938V35.2517C33.0315 34.6674 33.2635 34.107 33.6765 33.6938C34.0894 33.2806 34.6496 33.0485 35.2336 33.0485H63.8609C64.4449 33.0485 65.005 33.2806 65.418 33.6938C65.831 34.107 66.063 34.6674 66.063 35.2517V63.8938Z" fill="black"/>
<path d="M297.341 35.2521C297.341 34.6677 297.109 34.1073 296.696 33.6941C296.283 33.281 295.723 33.0488 295.139 33.0488H266.512C265.928 33.0488 265.368 33.281 264.955 33.6941C264.542 34.1073 264.31 34.6677 264.31 35.2521V63.8941C264.31 64.4784 264.542 65.0388 264.955 65.452C265.368 65.8652 265.928 66.0973 266.512 66.0973H295.139C295.723 66.0973 296.283 65.8652 296.696 65.452C297.109 65.0388 297.341 64.4784 297.341 63.8941V35.2521Z" fill="black"/>
<path d="M262.094 0H233.467C232.883 0 232.323 0.232126 231.91 0.645312C231.497 1.0585 231.265 1.6189 231.265 2.20323V30.8453C231.265 31.4296 231.497 31.99 231.91 32.4032C232.323 32.8164 232.883 33.0485 233.467 33.0485H262.094C262.678 33.0485 263.238 32.8164 263.651 32.4032C264.064 31.99 264.296 31.4296 264.296 30.8453V2.20323C264.296 1.6189 264.064 1.0585 263.651 0.645312C263.238 0.232126 262.678 0 262.094 0V0Z" fill="black"/>
<path d="M328.158 0H299.53C298.946 0 298.386 0.232126 297.973 0.645312C297.56 1.0585 297.328 1.6189 297.328 2.20323V30.8453C297.328 31.4296 297.56 31.99 297.973 32.4032C298.386 32.8164 298.946 33.0485 299.53 33.0485H328.158C328.742 33.0485 329.302 32.8164 329.715 32.4032C330.128 31.99 330.36 31.4296 330.36 30.8453V2.20323C330.36 1.6189 330.128 1.0585 329.715 0.645312C329.302 0.232126 328.742 0 328.158 0V0Z" fill="black"/>
<path d="M262.094 66.0977H233.467C232.883 66.0977 232.323 66.3298 231.91 66.743C231.497 67.1562 231.265 67.7166 231.265 68.3009V96.9429C231.265 97.5272 231.497 98.0877 231.91 98.5008C232.323 98.914 232.883 99.1461 233.467 99.1461H262.094C262.678 99.1461 263.238 98.914 263.651 98.5008C264.064 98.0877 264.296 97.5272 264.296 96.9429V68.3009C264.296 67.7166 264.064 67.1562 263.651 66.743C263.238 66.3298 262.678 66.0977 262.094 66.0977Z" fill="black"/>
<path d="M328.158 66.0977H299.53C298.946 66.0977 298.386 66.3298 297.973 66.743C297.56 67.1562 297.328 67.7166 297.328 68.3009V96.9429C297.328 97.5272 297.56 98.0877 297.973 98.5008C298.386 98.914 298.946 99.1461 299.53 99.1461H328.158C328.742 99.1461 329.302 98.914 329.715 98.5008C330.128 98.0877 330.36 97.5272 330.36 96.9429V68.3009C330.36 67.7166 330.128 67.1562 329.715 66.743C329.302 66.3298 328.742 66.0977 328.158 66.0977Z" fill="black"/>
<path d="M212.502 0H183.875C183.291 0 182.731 0.232126 182.318 0.645312C181.905 1.0585 181.673 1.6189 181.673 2.20323V30.8453C181.673 31.4296 181.905 31.99 182.318 32.4032C182.731 32.8164 183.291 33.0485 183.875 33.0485H212.502C213.086 33.0485 213.646 32.8164 214.059 32.4032C214.472 31.99 214.704 31.4296 214.704 30.8453V2.20323C214.704 1.6189 214.472 1.0585 214.059 0.645312C213.646 0.232126 213.086 0 212.502 0V0Z" fill="black"/>
<path d="M212.502 66.0977H183.875C183.291 66.0977 182.731 66.3298 182.318 66.743C181.905 67.1562 181.673 67.7166 181.673 68.3009V96.9429C181.673 97.5272 181.905 98.0877 182.318 98.5008C182.731 98.914 183.291 99.1461 183.875 99.1461H212.502C213.086 99.1461 213.646 98.914 214.059 98.5008C214.472 98.0877 214.704 97.5272 214.704 96.9429V68.3009C214.704 67.7166 214.472 67.1562 214.059 66.743C213.646 66.3298 213.086 66.0977 212.502 66.0977Z" fill="black"/>
<path d="M181.673 35.2297C181.673 34.6454 181.441 34.085 181.028 33.6718C180.615 33.2586 180.055 33.0265 179.471 33.0265H148.642V2.20323C148.642 1.6189 148.41 1.0585 147.997 0.645312C147.584 0.232126 147.024 0 146.44 0L117.812 0C117.228 0 116.668 0.232126 116.255 0.645312C115.842 1.0585 115.61 1.6189 115.61 2.20323V96.8954C115.61 97.4798 115.842 98.0402 116.255 98.4534C116.668 98.8665 117.228 99.0987 117.812 99.0987H146.44C147.024 99.0987 147.584 98.8665 147.997 98.4534C148.41 98.0402 148.642 97.4798 148.642 96.8954V66.075H179.471C180.055 66.075 180.615 65.8428 181.028 65.4296C181.441 65.0165 181.673 64.4561 181.673 63.8717V35.2297Z" fill="black"/>
</g>
<defs>
<clipPath id="clip0_68_76817">
<rect width="330.359" height="99.151" fill="white"/>
</clipPath>
</defs>
</svg>
