<svg width="72" height="72" viewBox="0 0 72 72" fill="none" xmlns="http://www.w3.org/2000/svg">
<path fill-rule="evenodd" clip-rule="evenodd" d="M22.4 0H1.6C0.716343 0 0 0.716343 0 1.6V22.4C0 23.2836 0.716343 24 1.6 24H22.4C23.2836 24 24 23.2836 24 22.4V1.6C24 0.716343 23.2836 0 22.4 0ZM46.4103 24H25.6103C24.7267 24 24.0103 24.7163 24.0103 25.6V46.3999C24.0103 47.2836 24.7267 47.9999 25.6103 47.9999H46.4103C47.2939 47.9999 48.0103 47.2836 48.0103 46.3999V25.6C48.0103 24.7163 47.2939 24 46.4103 24ZM49.6 0H70.4C71.2837 0 72 0.716343 72 1.6V22.4C72 23.2836 71.2837 24 70.4 24H49.6C48.7164 24 48 23.2836 48 22.4V1.6C48 0.716343 48.7164 0 49.6 0ZM22.4 48H1.6C0.716343 48 0 48.7164 0 49.6V70.4C0 71.2837 0.716343 72 1.6 72H22.4C23.2836 72 24 71.2837 24 70.4V49.6C24 48.7164 23.2836 48 22.4 48ZM49.6 48H70.4C71.2837 48 72 48.7164 72 49.6V70.4C72 71.2837 71.2837 72 70.4 72H49.6C48.7164 72 48 71.2837 48 70.4V49.6C48 48.7164 48.7164 48 49.6 48Z" fill="black"/>
</svg>
