<svg width="64" height="64" viewBox="0 0 64 64" fill="none" xmlns="http://www.w3.org/2000/svg">
<path d="M64 32C64 49.6731 49.6731 64 32 64C14.3269 64 0 49.6731 0 32C0 14.3269 14.3269 0 32 0C49.6731 0 64 14.3269 64 32Z" fill="white"/>
<path fill-rule="evenodd" clip-rule="evenodd" d="M32 62.6667C48.9367 62.6667 62.6667 48.9367 62.6667 32C62.6667 15.0633 48.9367 1.33333 32 1.33333C15.0633 1.33333 1.33333 15.0633 1.33333 32C1.33333 48.9367 15.0633 62.6667 32 62.6667ZM32 64C49.6731 64 64 49.6731 64 32C64 14.3269 49.6731 0 32 0C14.3269 0 0 14.3269 0 32C0 49.6731 14.3269 64 32 64Z" fill="black" fill-opacity="0.06"/>
<path fill-rule="evenodd" clip-rule="evenodd" d="M32 62.6667C48.9367 62.6667 62.6667 48.9367 62.6667 32C62.6667 15.0633 48.9367 1.33333 32 1.33333C15.0633 1.33333 1.33333 15.0633 1.33333 32C1.33333 48.9367 15.0633 62.6667 32 62.6667ZM32 64C49.6731 64 64 49.6731 64 32C64 14.3269 49.6731 0 32 0C14.3269 0 0 14.3269 0 32C0 49.6731 14.3269 64 32 64Z" fill="white" fill-opacity="0.1"/>
<path fill-rule="evenodd" clip-rule="evenodd" d="M25.2 14H14.8C14.3582 14 14 14.3582 14 14.8V25.2C14 25.6418 14.3582 26 14.8 26H25.2C25.6418 26 26 25.6418 26 25.2V14.8C26 14.3582 25.6418 14 25.2 14ZM37.2051 26H26.8052C26.3633 26 26.0052 26.3581 26.0052 26.8V37.2C26.0052 37.6418 26.3633 38 26.8052 38H37.2051C37.647 38 38.0051 37.6418 38.0051 37.2V26.8C38.0051 26.3581 37.647 26 37.2051 26ZM38.8 14H49.2C49.6418 14 50 14.3582 50 14.8V25.2C50 25.6418 49.6418 26 49.2 26H38.8C38.3582 26 38 25.6418 38 25.2V14.8C38 14.3582 38.3582 14 38.8 14ZM25.2 38.0001H14.8C14.3582 38.0001 14 38.3582 14 38.8001V49.2C14 49.6419 14.3582 50 14.8 50H25.2C25.6418 50 26 49.6419 26 49.2V38.8001C26 38.3582 25.6418 38.0001 25.2 38.0001ZM38.8 38.0001H49.2C49.6418 38.0001 50 38.3582 50 38.8001V49.2C50 49.6419 49.6418 50 49.2 50H38.8C38.3582 50 38 49.6419 38 49.2V38.8001C38 38.3582 38.3582 38.0001 38.8 38.0001Z" fill="black"/>
</svg>
