<svg width="128" height="128" viewBox="0 0 128 128" fill="none" xmlns="http://www.w3.org/2000/svg">
<rect width="128" height="128" fill="white"/>
<path fill-rule="evenodd" clip-rule="evenodd" d="M42.6465 28.1994C42.6465 26.3632 44.0315 24.8458 45.7951 24.8458H84.1259C84.1875 24.8458 84.2453 24.8616 84.2955 24.8895C84.3923 24.8865 84.4882 24.9238 84.5581 24.9961L100.82 41.8123C100.905 41.9003 100.937 42.0252 100.907 42.1415C100.914 42.1692 100.918 42.1983 100.918 42.2282V99.4741C100.918 100.423 100.419 101.387 99.7424 102.102C99.0677 102.816 98.1519 103.35 97.2473 103.35L58.3355 103.35L57.9999 103.35L57.9976 103.35H27.7844C27.1468 103.35 26.6499 102.819 26.6499 102.189V77.7882C26.6499 77.158 27.1468 76.627 27.7844 76.627H34.7891V70.6315C34.7891 66.0234 38.2883 62.2493 42.7101 62.0593V62.0067C42.7101 56.4284 42.6961 51.9704 42.6812 47.2421L42.6783 46.3251C42.6624 41.2491 42.6465 35.7659 42.6465 28.1994ZM97.2473 102.65H59.3765C59.4367 102.508 59.4699 102.352 59.4699 102.189V77.7882C59.4699 77.158 58.973 76.627 58.3355 76.627H51.3309V70.6315C51.3309 66.0235 47.8318 62.2494 43.4101 62.0593V62.0067C43.4101 56.4273 43.3961 51.9682 43.3812 47.24L43.3783 46.3229C43.3624 41.2472 43.3465 35.7648 43.3465 28.1994C43.3465 26.7031 44.4632 25.5458 45.7951 25.5458H83.9565V39.7973C83.9565 41.2292 85.0775 42.4056 86.4903 42.4056H100.218V99.4741C100.218 100.191 99.8302 100.991 99.2338 101.621C98.635 102.255 97.8904 102.65 97.2473 102.65ZM50.6309 70.6315V76.627H43.3875C43.4021 76.5884 43.4101 76.5465 43.4101 76.5028V62.7601C47.4223 62.95 50.6309 66.3863 50.6309 70.6315ZM42.7101 76.5028C42.7101 76.5465 42.7181 76.5884 42.7328 76.627H35.4891V70.6315C35.4891 66.3862 38.6979 62.9498 42.7101 62.7601V76.5028ZM84.6565 26.1048V39.7973C84.6565 40.8649 85.4861 41.7056 86.4903 41.7056H99.7426L84.6565 26.1048ZM27.7844 77.327C27.5554 77.327 27.3499 77.5223 27.3499 77.7882V102.189C27.3499 102.455 27.5554 102.65 27.7844 102.65L57.9999 102.65L58.3355 102.65C58.5644 102.65 58.7699 102.455 58.7699 102.189V77.7882C58.7699 77.5223 58.5644 77.327 58.3355 77.327H27.7844ZM84.4323 76.1521C84.4323 81.4817 80.1119 85.8021 74.7823 85.8021C69.4528 85.8021 65.1323 81.4817 65.1323 76.1521C65.1323 70.8226 69.4528 66.5021 74.7823 66.5021C80.1119 66.5021 84.4323 70.8226 84.4323 76.1521ZM74.7823 86.5021C80.4985 86.5021 85.1323 81.8683 85.1323 76.1521C85.1323 70.436 80.4985 65.8021 74.7823 65.8021C69.0662 65.8021 64.4323 70.436 64.4323 76.1521C64.4323 81.8683 69.0662 86.5021 74.7823 86.5021ZM74.7823 63.8884C74.589 63.8884 74.4323 63.7317 74.4323 63.5384L74.4323 49.1543H69.2756C69.0823 49.1543 68.9256 48.9976 68.9256 48.8043C68.9256 48.611 69.0823 48.4543 69.2756 48.4543H74.4323V43.4645C74.4323 42.5533 73.6936 41.8145 72.7823 41.8145H69.2756C69.0823 41.8145 68.9256 41.6578 68.9256 41.4645C68.9256 41.2712 69.0823 41.1145 69.2756 41.1145H72.7823C74.0802 41.1145 75.1323 42.1667 75.1323 43.4645V63.5384C75.1323 63.7317 74.9756 63.8884 74.7823 63.8884ZM46.42 87.7861C46.3776 89.2769 45.4448 90.5486 44.1727 91.0748H44.1939L45.0843 96.2709C45.0843 96.3586 44.9571 96.4244 44.9571 96.4244H40.7805C40.6957 96.4244 40.6533 96.2709 40.6533 96.2709L41.5437 91.0748C40.2292 90.5486 39.2964 89.2112 39.2964 87.6545C39.2964 85.5936 41.0349 83.9273 42.9642 83.9712C44.8935 84.015 46.4836 85.769 46.42 87.7861Z" fill="black"/>
</svg>
