<svg width="16" height="17" viewBox="0 0 16 17" fill="none" xmlns="http://www.w3.org/2000/svg">
<path opacity="0.8" d="M16 8.5C16 12.9183 12.4183 16.5 8 16.5C3.58172 16.5 0 12.9183 0 8.5C0 4.08172 3.58172 0.5 8 0.5C12.4183 0.5 16 4.08172 16 8.5Z" fill="#0DB27C"/>
<path fill-rule="evenodd" clip-rule="evenodd" d="M12.2909 6.25763C12.3951 6.36177 12.3951 6.53061 12.2909 6.63475L7.38856 11.5371C7.28442 11.6413 7.11557 11.6413 7.01143 11.5371L4.10906 8.63475C4.00492 8.53061 4.00492 8.36177 4.10906 8.25763L4.95759 7.4091C5.06173 7.30496 5.23058 7.30496 5.33472 7.4091L7.19999 9.27438L11.0653 5.4091C11.1694 5.30496 11.3383 5.30496 11.4424 5.4091L12.2909 6.25763Z" fill="#F4F6FA"/>
</svg>
