<svg width="16" height="17" viewBox="0 0 16 17" fill="none" xmlns="http://www.w3.org/2000/svg">
<path opacity="0.8" d="M16 8.5C16 12.9183 12.4183 16.5 8 16.5C3.58172 16.5 0 12.9183 0 8.5C0 4.08172 3.58172 0.5 8 0.5C12.4183 0.5 16 4.08172 16 8.5Z" fill="#E84256"/>
<path fill-rule="evenodd" clip-rule="evenodd" d="M10.6288 11.8712C10.496 12.004 10.2807 12.004 10.148 11.8712L4.62878 6.35206C4.496 6.21928 4.496 6.00401 4.62878 5.87123L5.37125 5.12877C5.50402 4.99599 5.7193 4.99599 5.85208 5.12877L11.3712 10.6479C11.504 10.7807 11.504 10.996 11.3712 11.1288L10.6288 11.8712Z" fill="white"/>
<path fill-rule="evenodd" clip-rule="evenodd" d="M10.6288 5.12877C10.496 4.99599 10.2807 4.99599 10.148 5.12877L4.62878 10.6479C4.496 10.7807 4.496 10.996 4.62878 11.1288L5.37125 11.8712C5.50402 12.004 5.7193 12.004 5.85208 11.8712L11.3712 6.35206C11.504 6.21928 11.504 6.00401 11.3712 5.87123L10.6288 5.12877Z" fill="white"/>
</svg>
