<svg width="120" height="120" viewBox="0 0 120 120" fill="none" xmlns="http://www.w3.org/2000/svg">
<rect width="120" height="120" fill="white"/>
<path d="M15.5587 50.0936C19.9654 28.9136 38.7361 13 61.2236 13C86.984 13 107.867 33.8829 107.867 59.6433C107.867 85.4037 86.984 106.287 61.2236 106.287C43.4932 106.287 28.0735 96.3938 20.183 81.8269" stroke="black" stroke-linecap="round"/>
<path d="M86.932 55.1047V44.2662C86.932 42.6093 85.5888 41.2662 83.932 41.2662H37.1567C35.4999 41.2662 34.1567 42.6093 34.1567 44.2662V75.0204C34.1567 76.6773 35.4999 78.0204 37.1567 78.0204H83.932C85.5888 78.0204 86.932 76.6773 86.932 75.0204V64.2322" stroke="black"/>
<path d="M65.4364 55.2511H87.2689C88.0973 55.2511 88.7689 55.9227 88.7689 56.7511V62.5355C88.7689 63.3639 88.0973 64.0355 87.2689 64.0355H65.4364C63.0107 64.0355 61.0442 62.0691 61.0442 59.6433C61.0442 57.2176 63.0107 55.2511 65.4364 55.2511Z" stroke="black"/>
<circle cx="65.6862" cy="59.6432" r="2.32763" fill="black" stroke="black"/>
<path d="M14.6895 80.5378C22.25 80.5378 28.3791 74.4088 28.3791 66.8483C28.3791 59.2877 22.25 53.1587 14.6895 53.1587C7.12901 53.1587 1 59.2877 1 66.8483C1 74.4088 7.12901 80.5378 14.6895 80.5378Z" stroke="black" stroke-linecap="round" stroke-linejoin="round"/>
<path d="M9.59823 65.8253C9.40987 66.0272 9.09348 66.0382 8.89155 65.8498C8.68962 65.6615 8.67862 65.3451 8.86698 65.1431L9.59823 65.8253ZM20.0491 65.1306C20.2444 65.3259 20.2444 65.6425 20.0491 65.8378C19.8539 66.033 19.5373 66.033 19.342 65.8378L20.0491 65.1306ZM14.7822 73.4943C14.7822 73.7704 14.5584 73.9943 14.2822 73.9943C14.0061 73.9943 13.7822 73.7704 13.7822 73.4943H14.7822ZM13.576 60.828L13.2104 60.4869L13.576 60.828ZM15.0143 60.803L14.6608 61.1565L15.0143 60.803ZM8.86698 65.1431L13.2104 60.4869L13.9416 61.169L9.59823 65.8253L8.86698 65.1431ZM15.3679 60.4494L20.0491 65.1306L19.342 65.8378L14.6608 61.1565L15.3679 60.4494ZM14.7822 60.8499V73.4943H13.7822V60.8499H14.7822ZM13.2104 60.4869C13.7894 59.8662 14.7677 59.8492 15.3679 60.4494L14.6608 61.1565C14.4607 60.9564 14.1346 60.9621 13.9416 61.169L13.2104 60.4869Z" fill="black"/>
</svg>
