<svg width="141" height="124" viewBox="0 0 141 124" fill="none" xmlns="http://www.w3.org/2000/svg">
<path d="M129.76 39.658C130.291 39.5743 130.779 39.5372 131.228 39.5426C140.229 39.2484 140.215 47.4437 139.913 50.7622C139.596 54.2521 135.788 89.4683 134.519 98.6689C133.25 107.869 126.905 111.042 121.194 111.994C115.484 112.946 66.6252 122.781 61.549 123.098C57.488 123.352 56.8958 120.454 57.1073 118.974L16.4977 77.7295L19.6703 72.0188C32.1377 68.7298 54.087 62.9625 66.6252 59.7342C70.4324 51.8914 74.0092 49.8594 77.4121 48.8585C82.8056 47.2722 123.733 40.6098 129.76 39.658Z" fill="white"/>
<path d="M129.76 39.658C135.788 38.7062 136.423 43.7824 135.788 48.8586C135.154 53.9348 131.347 88.1992 129.76 97.0826C128.174 105.966 123.733 102.159 121.194 99.6207C118.656 97.0826 95.1789 68.2116 90.4199 62.1836C85.661 56.1557 80.2675 56.4729 75.8258 57.4247C74.8425 57.6354 71.4228 58.499 66.6252 59.7342M129.76 39.658C123.733 40.6098 82.8056 47.2722 77.4121 48.8585C74.0092 49.8594 70.4324 51.8914 66.6252 59.7342M129.76 39.658C140.23 38.3889 140.23 47.2723 139.913 50.7622C139.596 54.2521 135.788 89.4683 134.519 98.6689C133.25 107.869 126.905 111.042 121.194 111.994C115.484 112.946 66.6252 122.781 61.549 123.098C57.488 123.352 56.8958 120.454 57.1073 118.974L16.4977 77.7294L19.6703 72.0188C32.1377 68.7298 54.087 62.9625 66.6252 59.7342" stroke="black" stroke-width="0.5"/>
<path d="M90.4199 62.1835C85.661 56.1555 80.2675 56.4728 75.8258 57.4246C75.5208 57.4899 74.9816 57.6181 74.2395 57.8006C75.5086 54.0523 78.9984 53.6173 81.8538 52.9828C84.7092 52.3483 115.801 46.9548 122.146 46.003C128.491 45.0512 129.76 48.8585 129.126 52.3483C128.491 55.8381 125.636 85.3436 124.367 91.0543C123.352 95.6229 119.799 96.3421 118.149 96.1306C111.01 87.6744 94.3458 67.1563 90.4199 62.1835Z" fill="#D7FF66" stroke="black" stroke-width="0.5"/>
<path d="M71.5712 63.1646L21.0943 76.1248C17.2941 77.1006 16.047 81.8732 18.8841 84.5833L52.9892 117.161C54.1772 118.296 55.847 118.775 57.4559 118.442L111.283 107.306C114.943 106.548 116.508 102.189 114.166 99.2758L90.0745 69.3187C85.6483 63.8148 78.4122 61.4081 71.5712 63.1646Z" fill="white" stroke="black" stroke-width="0.5"/>
<path fill-rule="evenodd" clip-rule="evenodd" d="M86.2955 112.628L46.6683 70.6709L47.5281 69.1633L88.4857 112.232L86.2955 112.628Z" fill="black"/>
<path fill-rule="evenodd" clip-rule="evenodd" d="M98.9859 80.5848L65.5087 88.815L64.7216 87.8819L98.1988 79.6516L98.9859 80.5848Z" fill="black"/>
<path fill-rule="evenodd" clip-rule="evenodd" d="M98.9859 80.5848L65.5087 88.815L64.7216 87.8819L98.1988 79.6516L98.9859 80.5848Z" fill="black" fill-opacity="0.2"/>
<path d="M34.2605 65.8486L34.2971 65.8892L34.3472 65.9108L68.1124 80.4969L68.3421 80.5961L68.4411 80.3663L69.2575 78.4707L69.3189 78.3282L69.2184 78.2099C68.4801 77.3414 67.5069 76.1923 66.391 74.8748C62.0757 69.7798 55.6284 62.1676 52.3998 58.5354C50.2797 56.1503 48.1059 54.1297 45.5638 53.1155C43.0064 52.0953 40.1062 52.1048 36.5637 53.715C33.693 55.0199 32.3688 57.2392 32.1454 59.549C31.9233 61.8446 32.7891 64.2137 34.2605 65.8486Z" fill="white" stroke="black" stroke-width="0.5"/>
<path d="M33.4441 67.7441L33.4439 67.7443L33.4515 67.752L50.2664 84.8842L50.3666 84.9863L50.5054 84.9516L68.2721 80.5099L68.6628 80.4123L68.402 80.1055C67.6637 79.2369 66.6904 78.0877 65.5745 76.7702C61.2591 71.6752 54.812 64.0631 51.5834 60.431C49.4633 58.0458 47.2895 56.0252 44.7474 55.0111C42.1899 53.9908 39.2898 54.0003 35.7473 55.6106C32.8766 56.9154 31.5524 59.1347 31.3289 61.4445C31.1069 63.7401 31.9727 66.1093 33.4441 67.7441Z" fill="white" stroke="black" stroke-width="0.5"/>
<mask id="mask0_11913_144797" style="mask-type:alpha" maskUnits="userSpaceOnUse" x="31" y="54" width="38" height="31">
<path d="M35.8508 55.8381C30.2726 58.3737 30.7746 64.4042 33.6299 67.5769L50.4448 84.7091L68.2115 80.2674C64.6158 76.0372 55.4575 65.1657 51.3966 60.5971C47.1664 55.8381 42.8305 52.6655 35.8508 55.8381Z" fill="white"/>
</mask>
<g mask="url(#mask0_11913_144797)">
<path d="M45 62.5C50.5 63.5 60 73 63 87M35 71C42 71.5 54 79 57.5 89M38.5 80.5C40 72.5 50.6111 66 61.5 67M44 85C44 79.5 54.5 68.5 64.5 73M47 87C49.8333 83.3333 57.9128 75 67 78" stroke="#BABABA" stroke-width="0.5"/>
<path d="M35 62L36 57H41.5L40.5 62H35Z" fill="#BABABA"/>
<path d="M29 67L30 62H35.5L34.5 67H29Z" fill="#BABABA"/>
<path d="M42 57L43 52H48.5L47.5 57H42Z" fill="#BABABA"/>
<path d="M46.5 62L47.5 57H53.5L52.5 62H46.5Z" fill="#BABABA"/>
<path d="M31 57L32 52H37.5L36.5 57H31Z" fill="#BABABA"/>
</g>
<circle cx="103.428" cy="39.9752" r="16.8822" fill="white" stroke="black" stroke-width="0.5"/>
<circle cx="13.9596" cy="79.9503" r="13.7096" fill="#D7FF66" stroke="black" stroke-width="0.5"/>
<path fill-rule="evenodd" clip-rule="evenodd" d="M13.5461 71.0669L14.9803 71.3978L14.4466 73.7083L14.4513 73.7093L14.4513 73.7093C14.8343 73.7897 15.2205 73.8707 15.5961 73.9574L16.1256 71.6624L17.5604 71.9937L17.0162 74.3506C18.8306 74.9404 20.166 75.8486 19.9371 77.5857C19.7719 78.8571 19.0795 79.4834 18.1496 79.7147C19.4432 80.3597 20.1129 81.3716 19.5228 83.1564C18.79 85.3729 16.9615 85.591 14.5176 85.1724L13.9679 87.5521L12.5333 87.2207L13.076 84.8732C12.7041 84.7877 12.3241 84.6967 11.9326 84.5978L11.3878 86.9566L9.95487 86.6253L10.5043 84.2415C10.3803 84.2119 10.2554 84.1816 10.1297 84.1512C9.91614 84.0995 9.70015 84.0471 9.48158 83.9965L7.61426 83.5655L8.29522 81.9178C8.29522 81.9178 9.35268 82.1793 9.33793 82.1587C9.74394 82.252 9.91885 81.985 9.98677 81.8082L10.8552 78.0466L10.8759 78.0513L10.9075 78.0584L11.0069 78.0814C10.9498 78.0597 10.8978 78.046 10.8576 78.0364L11.4776 75.351C11.4897 75.0472 11.3782 74.6661 10.7973 74.5318C10.8192 74.5164 9.75544 74.2922 9.75544 74.2922L10.1087 72.76L12.0874 73.2174L12.0859 73.2248C12.3834 73.2931 12.6898 73.3576 13.0018 73.4231L13.5461 71.0669ZM13.6655 78.324L13.6656 78.324C14.6422 78.5664 16.7714 79.0948 17.1145 77.6094C17.4654 76.0897 15.397 75.6696 14.3869 75.4645C14.2733 75.4415 14.1731 75.4211 14.0912 75.4022L13.4298 78.2667C13.4973 78.2823 13.5766 78.302 13.6655 78.324ZM12.6461 82.9384C12.5408 82.9125 12.4467 82.8894 12.3664 82.871L13.0962 79.7127C13.1939 79.7353 13.3132 79.7598 13.4483 79.7877C14.6583 80.037 17.1391 80.5482 16.7532 82.2193C16.3765 83.8543 13.8169 83.2259 12.6461 82.9384Z" fill="black"/>
<circle cx="33.9471" cy="13.0078" r="12.7578" fill="white" stroke="black" stroke-width="0.5"/>
<path d="M55.521 112.945L65.6734 110.725" stroke="black" stroke-width="4" stroke-linecap="round"/>
<path d="M44.9102 60.9343C46.7644 63.0276 46.7173 66.0346 44.885 67.6576C43.0527 69.2805 40.062 68.9642 38.2078 66.8709C36.3536 64.7775 36.4007 61.7705 38.233 60.1476C40.0653 58.5246 43.056 58.8409 44.9102 60.9343Z" fill="white" stroke="black" stroke-width="0.5"/>
<path d="M29.1882 14.6394L30.8126 4.44165L38.9345 10.9682L35.2797 16.271L29.1882 14.6394Z" fill="black"/>
<path d="M35.6858 17.0868L39.3406 12.1919L37.3102 21.5738L30.0004 15.8631L35.6858 17.0868Z" fill="black"/>
<path d="M105.603 30.1769C106.171 29.685 107.059 29.9728 107.23 30.7048L109.115 38.7395C109.293 39.4978 108.574 40.1593 107.833 39.9191L99.7074 37.2841C98.9665 37.0438 98.7725 36.0862 99.3615 35.5766L105.603 30.1769Z" fill="black"/>
<rect x="102.498" y="36.3545" width="3.80715" height="13.9596" rx="1" transform="rotate(17.9665 102.498 36.3545)" fill="black"/>
</svg>
