<svg width="240" height="240" fill="none" xmlns="http://www.w3.org/2000/svg"><path fill-rule="evenodd" clip-rule="evenodd" d="M64 55h112v185h-24V103h-8v137h-8V100h-32v140h-8V89h-8v151h-8V135h-8v105h-8V55Z" fill="#464B55"/><path d="M192 182h16v58h-16v-58ZM224 182h16v58h-16v-58Z" fill="#464B55"/><path fill-rule="evenodd" clip-rule="evenodd" d="M72 141H8v99h24v-93h16v93h24v-99Z" fill="#464B55"/><path d="M176 56c0 30.928-25.072 56-56 56S64 86.928 64 56 89.072 0 120 0s56 25.072 56 56Z" fill="url(#a)"/><path fill-rule="evenodd" clip-rule="evenodd" d="M120 101c24.853 0 45-20.147 45-45s-20.147-45-45-45-45 20.147-45 45 20.147 45 45 45Zm0 2c25.957 0 47-21.043 47-47S145.957 9 120 9 73 30.043 73 56s21.043 47 47 47Z" fill="#0A0B0D"/><path d="M200 224c-22.091 0-40-17.909-40-40s17.909-40 40-40 40 17.909 40 40-17.909 40-40 40Z" fill="url(#b)"/><g clip-path="url(#c)"><path d="M176.985 160.163c1.063.358 2.059.782 3.056 1.238.963.424 1.926.88 2.856 1.369a63.152 63.152 0 0 1 5.28 3.032 51.262 51.262 0 0 1 4.782 3.357 28.352 28.352 0 0 1 2.126 1.858c.664.652 1.328 1.303 1.86 2.053 3.686 4.922 2.656 11.832-2.358 15.482-5.015 3.618-12.056 2.608-15.775-2.314-.1-.163-.233-.326-.332-.489-.498-.749-.93-1.597-1.295-2.412a24.933 24.933 0 0 1-1.03-2.607 45.283 45.283 0 0 1-1.627-5.606 66.375 66.375 0 0 1-1.063-5.9c-.133-1.01-.266-2.054-.332-3.097-.067-1.043-.133-2.118-.133-3.226.033-1.63 1.395-2.934 3.055-2.901.332 0 .631.065.93.163Z" fill="#C67033"/><path d="M176.985 160.163c1.063.358 2.059.782 3.056 1.238.963.424 1.926.88 2.856 1.369a63.152 63.152 0 0 1 5.28 3.032 51.262 51.262 0 0 1 4.782 3.357 28.352 28.352 0 0 1 2.126 1.858c.664.652 1.328 1.303 1.86 2.053 3.686 4.922 2.656 11.832-2.358 15.482-5.015 3.618-12.056 2.608-15.775-2.314-.1-.163-.233-.326-.332-.489-.498-.749-.93-1.597-1.295-2.412a24.933 24.933 0 0 1-1.03-2.607 45.283 45.283 0 0 1-1.627-5.606 66.375 66.375 0 0 1-1.063-5.9c-.133-1.01-.266-2.054-.332-3.097-.067-1.043-.133-2.118-.133-3.226.033-1.63 1.395-2.934 3.055-2.901.332 0 .631.065.93.163Z" fill="#C67033"/><path d="M187.878 187.119c-2.457 0-4.682-1.109-6.144-3.032-.066-.097-.166-.228-.232-.326-.399-.586-.731-1.303-1.03-1.923a30.862 30.862 0 0 1-.93-2.314 42.264 42.264 0 0 1-1.461-5.182 63.524 63.524 0 0 1-.996-5.574 53.117 53.117 0 0 1-.299-2.901c-.033-.684-.1-1.336-.1-1.988.631.228 1.229.521 1.893.782.831.359 1.694.782 2.657 1.271 1.661.848 3.288 1.793 5.015 2.869 1.727 1.108 3.188 2.118 4.417 3.129.664.554 1.328 1.108 1.926 1.662a11.35 11.35 0 0 1 1.461 1.597 7.367 7.367 0 0 1 1.395 5.541c-.299 1.988-1.361 3.716-3.022 4.922-1.362.945-2.922 1.467-4.55 1.467Z" fill="#E8C6AD"/><path d="M227 162.901c.033 1.108-.066 2.184-.133 3.227-.066 1.043-.199 2.086-.332 3.096a66.31 66.31 0 0 1-1.063 5.9c-.431 1.923-.93 3.781-1.561 5.574a35.19 35.19 0 0 1-1.029 2.607c-.399.848-.797 1.662-1.295 2.412-3.421 5.117-10.428 6.519-15.609 3.129-5.214-3.357-6.642-10.235-3.188-15.319.099-.163.232-.326.332-.489a21.622 21.622 0 0 1 1.86-2.054 28.565 28.565 0 0 1 2.125-1.858 45.973 45.973 0 0 1 4.782-3.357c1.694-1.043 3.421-2.086 5.281-3.031.93-.489 1.86-.945 2.856-1.369.996-.424 1.959-.847 3.055-1.239 1.561-.521 3.288.261 3.819 1.826.034.326.1.652.1.945Z" fill="#C67033"/><path d="M211.989 187.119c2.458 0 4.683-1.109 6.144-3.032.066-.097.166-.228.232-.326.399-.586.731-1.303 1.03-1.923.332-.717.631-1.499.93-2.314a42.264 42.264 0 0 0 1.461-5.182 77.494 77.494 0 0 0 1.03-5.607c.132-1.043.232-1.988.298-2.901.034-.684.1-1.336.1-1.988-.631.228-1.229.522-1.893.782-.83.359-1.694.783-2.657 1.272-1.66.847-3.288 1.792-5.015 2.868-1.726 1.108-3.188 2.119-4.417 3.129-.664.554-1.328 1.108-1.926 1.662a11.524 11.524 0 0 0-1.461 1.597 7.37 7.37 0 0 0-1.395 5.542c.299 1.988 1.362 3.715 3.022 4.921a7.58 7.58 0 0 0 4.517 1.5Z" fill="#E8C6AD"/><path d="M205.214 167.04c.232.098.432.229.664.326.199.098.432.229.598.326l1.129.652.996.652.499.326.465.326c1.195.88 2.225 1.76 3.121 2.64l.631.652.565.652c.398.424.731.88 1.063 1.304.299.423.597.88.863 1.303l.83 1.304c1.163 1.76 2.392 3.488 3.587 5.248 1.196 1.76 2.325 3.488 3.089 5.248.763 1.76 1.162 3.487 1.162 5.247 0 .88-.066 1.761-.232 2.641-.167.88-.366 1.76-.798 2.64-.398.88-1.029 1.76-1.859 2.64-.2.228-.432.424-.664.652-.266.228-.499.424-.764.652-.266.228-.532.423-.831.652-.166.097-.298.228-.465.326l-.498.325c-.332.229-.664.424-.996.652l-1.129.652-.299.163-.332.163-.631.326c-.233.098-.432.228-.664.326l-.698.326-.73.326-.797.326c-.266.098-.499.228-.797.326l-.897.326-.897.326c-.299.098-.564.228-.93.326l-1.029.326c-.166.065-.332.097-.532.163l-.564.163c-4.55 1.303-9.133 1.238-13.384 0l-.565-.163c-.199-.066-.332-.098-.531-.163l-1.029-.326c-.366-.098-.631-.228-.93-.326l-.897-.326-.897-.326c-.299-.098-.531-.228-.797-.326l-.797-.326-.73-.326-.698-.326c-.232-.098-.432-.228-.664-.326l-.631-.326-.332-.163-.299-.163-1.129-.652a24.975 24.975 0 0 1-.996-.652l-.499-.325c-.166-.098-.299-.229-.465-.326-.298-.229-.564-.424-.83-.652l-.764-.652c-.232-.228-.465-.424-.664-.652-.83-.88-1.461-1.76-1.86-2.64-.431-.88-.597-1.76-.797-2.64-.166-.88-.265-1.761-.232-2.641 0-1.76.398-3.487 1.162-5.247.764-1.76 1.893-3.488 3.089-5.248 1.195-1.76 2.457-3.488 3.586-5.248l.831-1.304c.265-.423.564-.88.863-1.303.332-.424.664-.88 1.063-1.304l.565-.652.63-.652c.897-.88 1.927-1.76 3.122-2.64l.465-.326.498-.326.997-.652 1.129-.652c.166-.097.398-.228.598-.326.199-.097.431-.228.664-.326 3.719-1.629 7.671-1.499 10.926 0Z" fill="#C67033"/><path d="M201.494 174.407c-.033 1.206.266 2.444.665 3.65.199.62.431 1.206.697 1.826.266.619.498 1.206.731 1.825.232.619.498 1.206.797 1.825.332.62.73 1.206 1.195 1.826.233.293.498.619.764.912.266.294.565.619.93.913.199.163.399.293.664.456l.366.228.398.228c.266.163.565.294.864.457l.896.456c.631.293 1.262.619 1.86.913.166.065.266.163.432.228.133.065.265.163.398.228.233.163.498.293.698.456.83.62 1.162 1.206 1.029 1.826a9.828 9.828 0 0 1-1.627 3.65c-.864 1.206-2.026 2.445-3.62 3.651-.199.163-.432.293-.631.456-.233.163-.432.294-.664.457-.465.293-.93.619-1.495.912l-.398.228-.432.229a23.99 23.99 0 0 1-.897.456l-.465.228-.498.228-.498.228c-.166.066-.365.163-.564.228a8.764 8.764 0 0 1-6.676 0c-.199-.065-.398-.162-.564-.228l-.498-.228-.499-.228-.465-.228a23.925 23.925 0 0 1-.896-.456l-.432-.229-.399-.228c-.531-.293-.996-.619-1.494-.912-.232-.163-.432-.294-.664-.457-.199-.163-.432-.293-.631-.456-1.594-1.206-2.757-2.445-3.62-3.651a9.812 9.812 0 0 1-1.627-3.65c-.133-.62.199-1.206 1.029-1.826.199-.163.465-.293.698-.456.132-.065.265-.163.398-.228s.266-.163.432-.228c.564-.294 1.229-.62 1.86-.913l.896-.456c.299-.163.631-.294.864-.457l.398-.228.366-.228c.232-.163.464-.293.664-.456.398-.294.664-.619.93-.913.265-.293.531-.619.763-.912.465-.62.864-1.206 1.196-1.826.332-.619.565-1.206.797-1.825a42.06 42.06 0 0 1 .731-1.825c.232-.62.498-1.206.697-1.826.399-1.206.698-2.444.664-3.65-.033-.945.764-1.76 1.727-1.76.963-.033 1.794.749 1.794 1.695-.034 0-.034.032-.034.065Z" fill="#DCD4B2"/><path d="M189.439 184.935c1.284 0 2.325-1.532 2.325-3.423 0-1.89-1.041-3.422-2.325-3.422-1.284 0-2.325 1.532-2.325 3.422 0 1.891 1.041 3.423 2.325 3.423ZM209.399 184.935c1.283 0 2.324-1.532 2.324-3.423 0-1.89-1.041-3.422-2.324-3.422-1.284 0-2.325 1.532-2.325 3.422 0 1.891 1.041 3.423 2.325 3.423ZM202.059 187.184c.996 0 1.594 1.141.963 1.923l-2.856 3.585h-.332l-2.856-3.585c-.631-.782-.067-1.923.963-1.923h4.118ZM207.074 195.104c0 3.716-3.089 6.747-6.875 6.747s-6.874-3.031-6.874-6.747" fill="#0A0B0D"/></g><path d="M80 136c0 22.091-17.909 40-40 40S0 158.091 0 136s17.909-40 40-40 40 17.909 40 40Z" fill="url(#d)"/><path d="M163.999 31c0-6.628 5.372-11.999 12.001-11.999-6.629 0-12.001-5.373-12.001-12.001 0 6.629-5.373 12.001-11.999 12.001 6.626 0 11.999 5.37 11.999 11.999Z" fill="#5DE2F8"/><path fill-rule="evenodd" clip-rule="evenodd" d="M159.536 16.34a56.336 56.336 0 0 1 6.57 7.866A11.943 11.943 0 0 0 163.999 31c0-6.629-5.373-11.999-11.999-11.999 2.854 0 5.476-.997 7.536-2.661Z" fill="#0052FF"/><path d="M11.999 120c0-6.629 5.373-11.999 12.001-11.999-6.628 0-12.001-5.372-12.001-12.001 0 6.629-5.373 12.001-11.999 12.001 6.626 0 11.999 5.37 11.999 11.999Z" fill="url(#e)"/><path fill-rule="evenodd" clip-rule="evenodd" d="M24 108.001c-6.628 0-12.001 5.37-12.001 11.999 0-3.348-1.37-6.375-3.58-8.551a40.238 40.238 0 0 1 7.028-7.029A11.964 11.964 0 0 0 24 108.001Z" fill="#0052FF"/><path d="M72 208a7.999 7.999 0 0 1 8-7.999A8 8 0 0 1 72 192a8 8 0 0 1-8 8.001c4.417 0 8 3.58 8 7.999Z" fill="#5DE2F8"/><path fill-rule="evenodd" clip-rule="evenodd" d="M72 192.115V208a7.999 7.999 0 0 0-8-7.999 8 8 0 0 0 8-7.886Z" fill="#0052FF"/><path d="M40 48a8 8 0 0 1 8-8 8 8 0 0 1-8-8 8 8 0 0 1-8 8c4.417 0 8 3.581 8 8Z" fill="#5DE2F8"/><path d="M215.999 80A8 8 0 0 1 224 72a8 8 0 0 1-8.001-8A8 8 0 0 1 208 72a7.999 7.999 0 0 1 7.999 8Z" fill="#00D17F"/><path d="M175.998 144c0-13.257 10.745-23.998 24.002-23.998-13.257 0-24.002-10.745-24.002-24.002 0 13.257-10.746 24.002-23.998 24.002 13.252 0 23.998 10.741 23.998 23.998Z" fill="url(#f)"/><path fill-rule="evenodd" clip-rule="evenodd" d="M176 96.345v47.31c-.002.115-.002.23-.002.345 0-13.257-10.746-23.998-23.998-23.998 13.252 0 23.998-10.745 23.998-24.002 0 .115 0 .23.002.345Z" fill="#0052FF"/><path d="M103 32.777h7.394V24h5.215v8.777h5.847V24h5.273v8.833c7.565.675 12.781 5.288 12.781 12.265 0 5.288-3.038 8.832-7.738 10.239v.056C137.389 56.856 141 60.794 141 66.87c0 8.045-5.903 12.996-14.214 13.447V88h-5.273v-7.74h-5.846v7.684h-5.273V80.26H103V32.777Zm28.715 12.827c0-3.938-2.751-6.414-7.508-6.414H110.68v13.503h13.527c4.757 0 7.508-2.476 7.508-6.414v-.675Zm1.433 20.422c0-4.5-3.153-7.2-8.368-7.2h-14.1V73.79h14.157c5.273 0 8.311-2.925 8.311-7.089v-.675Z" fill="#0A0B0D"/><g clip-path="url(#g)" fill="#0A0B0D"><path d="m35.1 112-7.7 43.6H57l1.3-7.2H37l6.5-36.4h-8.4Z"/><path d="M48.6 132.3 22 140.8l1.3-7.1 26.7-8.5-1.4 7.1Z"/></g><defs><linearGradient id="a" x1="102" y1="33.5" x2="142" y2="17.5" gradientUnits="userSpaceOnUse"><stop stop-color="#FFD200"/><stop offset="1" stop-color="#EBCEF8"/></linearGradient><linearGradient id="b" x1="200" y1="224" x2="200" y2="144" gradientUnits="userSpaceOnUse"><stop stop-color="#5CE2F8"/><stop offset="1" stop-color="#EBCEF8"/></linearGradient><linearGradient id="d" x1="11" y1="116" x2="80" y2="136" gradientUnits="userSpaceOnUse"><stop stop-color="#EBCEF8"/><stop offset="1" stop-color="#88C837"/></linearGradient><linearGradient id="e" x1="13.5" y1="100" x2="8.5" y2="108" gradientUnits="userSpaceOnUse"><stop stop-color="#FFD200"/><stop offset="1" stop-color="#EBCEF8"/></linearGradient><linearGradient id="f" x1="189" y1="100.5" x2="179" y2="122" gradientUnits="userSpaceOnUse"><stop stop-color="#FFD200"/><stop offset="1" stop-color="#EBCEF8"/></linearGradient><clipPath id="c"><path fill="#fff" transform="translate(173 160)" d="M0 0h54v50H0z"/></clipPath><clipPath id="g"><path fill="#fff" transform="translate(22 112)" d="M0 0h36.3v43.6H0z"/></clipPath></defs></svg>