<svg width="200" height="200" fill="none" xmlns="http://www.w3.org/2000/svg"><path fill-rule="evenodd" clip-rule="evenodd" d="M87.25 19.166h1.584v1.667H87.25v-1.667Zm6.334 0H92v1.667h1.584v-1.667Zm3.916 0h-.833v1.667h1.666v-.834c0-.5-.333-.833-.833-.833Zm-.833 4.917v1.666h1.666v-1.666h-1.666Zm0 6.583v-1.667h1.666v1.667h-1.666Zm0 3.25v1.667h1.666v-1.667h-1.666Zm0 6.583v-1.583h1.666v1.583h-1.666Zm0 3.334v1.666h1.666v-1.666h-1.666Zm0 6.583v-1.667h1.666v1.667h-1.666Zm0 3.25v1.667h1.666v-1.667h-1.666Zm0 6.583v-1.666h1.666v1.666h-1.666Zm0 3.25v1.667h1.666v-1.667h-1.666Zm0 6.584v-1.667h1.666v1.667h-1.666Zm0 3.333v1.667h1.666v-1.667h-1.666Zm0 6.583v-1.666h1.666v1.666h-1.666Zm0 3.25v1.667h1.666v-1.667h-1.666Zm0 6.75v-1.666h1.666v1.666h-1.666Zm0 2.5v1.667h1.666v-1.667h-1.666Zm0 7.334v-1.667h1.666v1.667h-1.666Zm0 3.25v1.666h1.666v-1.666h-1.666Zm0 6.5v-1.667h1.666v1.667h-1.666Zm0 3.25v1.666h1.666v-1.666h-1.666Zm6.666-72v-.834c0-.5.417-.833.834-.833H105v1.667H103.333Zm6.917-1.667h-1.75v1.667h1.75v-1.667Zm3.917 0h1.75v1.667h-1.75v-1.667ZM105 44.083h-1.667v1.666H105v-1.666Zm-1.667 4.916H105v1.667h-1.667v-1.667ZM105 53.916h-1.667v1.667H105v-1.667Zm-1.667 4.917H105v1.666h-1.667v-1.666ZM105 63.749h-1.667v1.667H105v-1.667Zm-1.667 4.917H105v1.667h-1.667v-1.667ZM105 73.583h-1.667v1.666H105v-1.666Zm-1.667 4.916H105v1.667h-1.667v-1.667ZM105 83.416h-1.667v1.667H105v-1.667Zm-1.667 4.917H105v1.666h-1.667v-1.666ZM105 92.499h-1.667v1.667H105v-1.667Zm-1.667 5.667H105v1.667h-1.667v-1.667Zm1.667 4.917h-1.667v1.666H105v-1.666Zm-1.667 4.916H105v1.667h-1.667v-1.667Zm1.667 4.834h-1.667v1.666H105v-1.666ZM90 88.249h.833c.5 0 .834.334.834.834v.833H90v-1.667Zm-3.083 0h-1.583v1.667h1.583v-1.667Zm-6.334 0h1.584v1.667h-1.584v-1.667Zm-3.25 0H75.75v1.667h1.584v-1.667Zm-6.333 0h1.584v1.667H71v-1.667Zm-3.167 0H66.25v1.667h1.583v-1.667ZM90 92.5h1.667v1.75H90V92.5Zm1.667 5.584H90v1.75h1.667v-1.75ZM90 102.916h1.667v1.75H90v-1.75Zm1.667 4.917H90v1.75h1.667v-1.75ZM90 112.749h1.667v1.75H90v-1.75Zm20-19.416v.833H111.667v-1.667h-.834a.835.835 0 0 0-.833.834Zm5.167-.834h1.75v1.667h-1.75v-1.667Zm6.917 0h-1.75v1.667h1.75v-1.667Zm3.499 0h1.75v1.667h-1.75v-1.667Zm6.917 0h-1.75v1.667h1.75v-1.667Zm3.416 0h1.75v1.667h-1.75v-1.667Zm6.917 0h-1.75v1.667h1.75v-1.667Zm3.5 0h1.75v1.667h-1.75v-1.667Zm-34.666 5.584H110v1.666h1.667v-1.666ZM110 102.999h1.667v1.667H110v-1.667Zm1.667 4.917H110v1.667h1.667v-1.667ZM110 112.833h1.667v1.666H110v-1.666Z" fill="#fff"/><path d="M73.333 113.334h53.334v86.667H73.333v-86.667Z" fill="#0A0B0D"/><path d="M73.333 113.334h53.334v13.333H73.333v-13.333ZM73.333 186.666h53.334v13.333H73.333v-13.333Z" fill="#0052FF"/><path d="M103.333 120a2.5 2.5 0 1 1-5 0 2.5 2.5 0 0 1 5 0Z" fill="#0A0B0D"/><path d="M0 126.666h73.333v60H0v-60Z" fill="url(#a)"/><path d="M93.333 191.666h15v3.333h-15v-3.333Z" fill="#0A0B0D"/><path d="M46.667 5a5 5 0 0 1 5-5h30a5 5 0 0 1 5 5v30a5 5 0 0 1-5 5h-30a5 5 0 0 1-5-5V5Z" fill="#5DE2F8"/><path d="M75.757 16.364a9.09 9.09 0 1 1-18.181 0 9.09 9.09 0 0 1 18.181 0Z" fill="#fff"/><path d="M57.576 16.818h18.181v15.91H57.576v-15.91Z" fill="#fff"/><path d="M65.303 15a1.364 1.364 0 1 1-2.727 0 1.364 1.364 0 0 1 2.727 0ZM70.757 15a1.364 1.364 0 1 1-2.727 0 1.364 1.364 0 0 1 2.727 0Z" fill="#0A0B0D"/><path d="M61.212 29.092h3.636v3.636h-3.636v-3.636ZM68.485 29.092h3.636v3.636h-3.636v-3.636Z" fill="#5DE2F8"/><path fill-rule="evenodd" clip-rule="evenodd" d="M65 20a2.182 2.182 0 1 0 4.363 0H65Z" fill="#0A0B0D"/><path d="M13.333 65a5 5 0 0 1 5-5h43.334a5 5 0 0 1 5 5v43.333a5 5 0 0 1-5 5H18.333a5 5 0 0 1-5-5V65Z" fill="#0052FF"/><path d="M58.989 100.8c.047.467.06.928.035 1.384A9.327 9.327 0 0 0 54 98.459l-.377-3.604C50.882 76.41 37.833 74.07 35.247 73.784c2.185-2.227 5.72-3.513 8.92-2.63.453.126.887.282 1.3.47a9.366 9.366 0 0 0-4.083 2.052 8.793 8.793 0 0 1 8.376 1.165 9.344 9.344 0 0 0-3.71.795 8.785 8.785 0 0 1 6.906 3.12 9.368 9.368 0 0 0-4.062-.02 8.783 8.783 0 0 1 5.978 3.15c.3.36.566.737.797 1.128a9.372 9.372 0 0 0-4.133-.687 8.791 8.791 0 0 1 5.34 4.193c.232.41.425.83.58 1.255a9.38 9.38 0 0 0-3.899-1.42 8.788 8.788 0 0 1 4.608 4.976c.163.441.287.885.375 1.331a9.33 9.33 0 0 0-3.196-1.878 8.776 8.776 0 0 1 3.704 6.596 9.319 9.319 0 0 0-3.057-2.329 8.789 8.789 0 0 1 2.998 5.749Z" fill="#0A0B0D"/><path d="M36.365 77.893c-.057.105-.105.22-.138.34l-.038.135a.846.846 0 0 1-.002 0l.038-.134c.033-.122.08-.236.14-.341ZM36.57 77.61ZM37.134 77.227Z" fill="#CED2DB"/><path d="M46.448 89.089c-.002-.002-.002-.005-.002-.007-.017-.115-.039-.227-.06-.34a24.945 24.945 0 0 0-.136-.663 2.96 2.96 0 0 0-.045-.21l-.058-.238c-.016-.065-.03-.127-.047-.189a20.959 20.959 0 0 0-.358-1.226c-.031-.093-.065-.184-.096-.275-.067-.193-.136-.38-.21-.565-.036-.091-.071-.184-.11-.275l-.114-.27a17.335 17.335 0 0 0-.497-1.028 13.461 13.461 0 0 0-.41-.728 8.313 8.313 0 0 0-.291-.46 4.68 4.68 0 0 0-.15-.227c-.05-.074-.1-.148-.153-.222a4.48 4.48 0 0 0-.158-.217 14.29 14.29 0 0 0-1.007-1.227 15.466 15.466 0 0 0-.919-.935c-.062-.06-.126-.117-.19-.177a12.712 12.712 0 0 0-.392-.348 13.664 13.664 0 0 0-.4-.337 17.86 17.86 0 0 0-.411-.329l-.21-.16a20.65 20.65 0 0 0-.647-.475c-.14-.1-.284-.198-.43-.298-.145-.1-.293-.198-.443-.296a1.595 1.595 0 0 0-.404-.186 1.443 1.443 0 0 0-.746-.022.853.853 0 0 0-.113.03 1.466 1.466 0 0 0-.408.196.54.54 0 0 0-.097.07 1.4 1.4 0 0 0-.165.153 1.372 1.372 0 0 0-.205.284c-.058.105-.105.22-.139.341l-.038.134a.845.845 0 0 1-.217.38.865.865 0 0 1-1.177.028.81.81 0 0 1-.129-.153.798.798 0 0 1-.097-.19l-1.967-5.454c.012.036.022.072.031.108a5.674 5.674 0 0 1 .12.444c.01.033.016.067.023.1.02.079.034.155.046.23a4.138 4.138 0 0 1 .043.271c.007.072.014.14.017.208a1.5 1.5 0 0 1-.003.234c-.005.045-.01.088-.017.129l-.014.071c-.014.048-.029.096-.05.136l-.014.026a.44.44 0 0 1-.096.122.379.379 0 0 1-.162.086.703.703 0 0 1-.714-.191c-.014-.014-.026-.029-.038-.04a.742.742 0 0 1-.062-.08c-.043-.059-.064-.102-.064-.102l-.079.1-.943 1.177-.945 1.176-.002-.002-2.96 3.682a.927.927 0 0 0-.178.785l.253 1.1-5.217 7.455a2.472 2.472 0 0 0-.398 1.895l.162.819a2.67 2.67 0 0 0 2.028 2.088l1.306.298a2.67 2.67 0 0 0 2.052-.363l.821-.532c.284-.186.456-.501.456-.84v-.51l1.646-4.423c.177.177 1.253 1.222 2.823 1.518.843.16 1.826.105 2.89-.415.198-.096.385-.2.561-.308l.172-.11h.002c.098-.064.189-.128.28-.198a2.19 2.19 0 0 0 .164-.129.335.335 0 0 0 .057-.047c.063-.048.12-.098.177-.153.002.002.007-.002.01-.007.069-.06.133-.124.195-.186.043-.043.086-.086.127-.132.043-.043.08-.088.12-.13a5.18 5.18 0 0 0 .32-.408c.094-.137.185-.278.266-.416.081-.14.153-.282.22-.422.415-.895.537-1.788.558-2.459.02-.663-.064-1.104-.064-1.104h.002l.002.002a1.203 1.203 0 0 1 .1.076 1.864 1.864 0 0 1 .196.184c.091.088.194.205.299.349a4.38 4.38 0 0 1 .601 1.115c.157.419.282.925.334 1.531.02.2.029.413.029.637a8.15 8.15 0 0 1-.2 1.783 8.909 8.909 0 0 1-.282 1.012c-.01.033-.022.064-.034.097a10.85 10.85 0 0 1-.341.862c-.136.31-.286.61-.444.9-.155.288-.32.565-.49.83-.04.07-.083.136-.128.203a6.896 6.896 0 0 1-.207.308 16.43 16.43 0 0 1-2.043 2.432l-.096.093a3.57 3.57 0 0 1-.155.143c-.005.007-.01.01-.014.014h-.002l-.013.012c-.052.064-.107.126-.162.188-2.682 2.995-5.37 3.759-6.951 7.613h16.92l.49-1.563c.989-5.565 1.082-9.858.509-13.261ZM23.265 92.72l-.366.499a.287.287 0 0 1-.51-.115l-.217-1.1a.837.837 0 0 1 .39-.88.402.402 0 0 1 .52.093l.159.198c.3.379.31.916.024 1.305Zm6.834-10.846c-.387.48-.99.678-1.556.565a1.6 1.6 0 0 1 .217-1.639 1.592 1.592 0 0 1 1.556-.566c.232.528.17 1.16-.217 1.64Zm12.022 18.217-5.097.487c-.468.043-.716-.539-.36-.845 1.188-1.028 2.508-1.961 3.828-3.434.85-.95 1.393-2.023 1.74-3.073.09-.272.489-.23.515.06l.506 5.438a1.255 1.255 0 0 1-1.132 1.367Z" fill="#fff"/><path d="M23.24 91.417c.301.38.31.916.024 1.305l-.365.499a.287.287 0 0 1-.51-.115l-.218-1.1a.837.837 0 0 1 .392-.88.403.403 0 0 1 .52.093l.158.198ZM28.543 82.44a1.6 1.6 0 0 1 .217-1.639 1.592 1.592 0 0 1 1.556-.565 1.595 1.595 0 0 1-1.773 2.205ZM29.682 77.183l-.003-.002.945-1.177.017-.019.928-1.155-.942 1.177-.945 1.176ZM32.633 73.086c-.017-.05-.03-.102-.048-.152l.017.045c.012.036.022.072.031.107ZM35.671 96.086c-.005.007-.01.01-.014.014.005-.004.007-.01.012-.014h.002ZM36.189 78.368a.846.846 0 0 1-.002 0l.038-.134a1.486 1.486 0 0 1 .002 0l-.038.134ZM36.57 77.61ZM37.134 77.227ZM38.534 83.534h-.004v-.005l.004.005ZM38.79 92.076ZM39.126 84.14a3.856 3.856 0 0 0-.298-.349c.09.088.193.205.298.348ZM39.234 91.178ZM39.728 85.254ZM39.714 89.887ZM39.89 89.207a8.31 8.31 0 0 0 .198-1.783 7.715 7.715 0 0 0 .003 0c0 .611-.072 1.208-.2 1.783ZM36.664 99.735c1.188-1.029 2.508-1.962 3.827-3.434.85-.95 1.394-2.024 1.74-3.074.09-.272.49-.229.515.06l.506 5.438a1.256 1.256 0 0 1-1.13 1.368l-5.098.487c-.468.042-.716-.54-.36-.845ZM32.473 90.154l-1.792 1.165-2.677 1.74 1.646-4.422c.177.176 1.253 1.222 2.823 1.517Z" fill="#fff"/><path d="M32.884 74.441c0 .046-.003.088-.005.131-.005.046-.01.089-.017.13l-.014.07c-.014.049-.029.096-.05.137l-.014.026a.442.442 0 0 1-.096.122.38.38 0 0 1-.162.086.703.703 0 0 1-.714-.191c-.014-.014-.026-.029-.038-.04a1.28 1.28 0 0 1-.062-.08c-.04-.06-.062-.102-.062-.102h-.002c-.046-.105-1.048-2.312-.303-4.85 0 0 .386.781.77 1.74l.473 1.31v.003l.014.045c.012.036.022.072.031.108a5.698 5.698 0 0 1 .12.444l.023.1c.02.079.034.155.046.229a4.06 4.06 0 0 1 .043.272c.007.072.014.14.016.208.003.035.003.069.003.102ZM23.264 92.722l-.365.499a.287.287 0 0 1-.51-.115l-.218-1.1a.837.837 0 0 1 .392-.88.403.403 0 0 1 .52.093l.158.198c.3.38.31.916.023 1.305Z" fill="#0A0B0D"/><path d="M40.09 87.424c0 .61-.071 1.207-.2 1.782a8.886 8.886 0 0 1-.281 1.012c-.01.034-.022.065-.034.098a18.66 18.66 0 0 1-.208.549 11.654 11.654 0 0 1-.578 1.212c-.154.289-.319.566-.488.83l-.129.204a7.076 7.076 0 0 1-.208.307 16.431 16.431 0 0 1-2.043 2.432l-.095.093c-.071.07-.124.117-.155.143-.005.008-.01.01-.014.015l.012-.015c1.694-2.035 2.069-4.58 2.11-6.2a.884.884 0 0 0-1.366-.768l-.315.203c.098-.064.189-.129.28-.198.057-.04.112-.084.164-.129a.34.34 0 0 0 .057-.048c.06-.045.12-.097.177-.152a3.662 3.662 0 0 0 .205-.193c.045-.044.088-.087.127-.132.043-.043.08-.088.119-.131.04-.045.076-.088.112-.134.038-.045.074-.09.105-.136.038-.045.072-.09.103-.138.1-.136.188-.275.267-.416.081-.14.155-.281.22-.422.417-.895.541-1.79.558-2.458a5.726 5.726 0 0 0-.062-1.102v-.003l.002.003a1.203 1.203 0 0 1 .1.076 1.888 1.888 0 0 1 .196.184c.09.088.194.205.298.348.036.048.072.1.11.153.172.25.346.568.492.962.157.42.282.925.334 1.532.02.2.029.412.029.637Z" fill="#CED2DB"/><path d="M30.099 81.875c-.387.48-.99.678-1.556.566a1.6 1.6 0 0 1 .217-1.64 1.592 1.592 0 0 1 1.556-.565c.232.527.17 1.16-.217 1.64Z" fill="#0A0B0D"/><path d="m22.92 69.824 6.759 7.357.002.003 1.888-2.353-8.648-5.007Z" fill="#fff"/><path d="M45.94 102.35c.987-5.565 1.08-9.858.508-13.261-.003-.003-.003-.005-.003-.007a7.67 7.67 0 0 0-.06-.34c-.011-.078-.028-.154-.042-.23-.029-.146-.06-.29-.093-.433-.012-.071-.029-.14-.046-.21l-.057-.238a2.405 2.405 0 0 0-.048-.189c-.052-.21-.107-.415-.17-.618a10.198 10.198 0 0 0-.188-.608c-.028-.094-.062-.184-.095-.275-.067-.193-.136-.38-.21-.566a5.542 5.542 0 0 0-.11-.274l-.114-.27a10.457 10.457 0 0 0-.241-.522 8.415 8.415 0 0 0-.127-.255 6.134 6.134 0 0 0-.129-.251c-.086-.167-.176-.33-.27-.49-.045-.08-.093-.16-.14-.238a8.276 8.276 0 0 0-.291-.46 4.633 4.633 0 0 0-.15-.227c-.05-.074-.1-.148-.153-.222a4.533 4.533 0 0 0-.158-.217 14.29 14.29 0 0 0-1.007-1.227c-.234-.26-.477-.51-.728-.754-.064-.062-.126-.124-.19-.181a4.314 4.314 0 0 0-.192-.177c-.064-.06-.129-.117-.193-.174a4.353 4.353 0 0 0-.198-.174 10.54 10.54 0 0 0-.4-.337 17.336 17.336 0 0 0-.411-.33l-.21-.159a20.65 20.65 0 0 0-1.076-.773c-.146-.1-.294-.198-.444-.296a1.59 1.59 0 0 0-.404-.186 1.441 1.441 0 0 0-.747-.022.856.856 0 0 0-.112.029.64.64 0 0 0-.107.038 1.153 1.153 0 0 0-.205.098.574.574 0 0 0-.096.06.536.536 0 0 0-.098.071.73.73 0 0 0-.08.07.693.693 0 0 0-.084.083c-.081.083-.15.179-.206.284-.06.105-.107.22-.14.341l-.039.134a.945.945 0 0 1-.086.212.91.91 0 0 1-.128.167.865.865 0 0 1-1.177.029.894.894 0 0 1-.224-.344l-1.983-5.498v-.002a17.44 17.44 0 0 0-.473-1.31c-.384-.96-.77-1.74-.77-1.74s2.147.995 3.455 3.866c0 0 .157.007.446.036 2.587.286 15.636 2.625 18.375 21.071l.377 3.604.57 5.455h-9.12l.492-1.563Z" fill="#CED2DB"/><path d="M120 18.334a5 5 0 0 1 5-5h43.333a5 5 0 0 1 5 5v43.333a5 5 0 0 1-5 5H125a5 5 0 0 1-5-5V18.334Z" fill="#FFD200"/><path d="M131.852 25.186h29.629v29.63h-29.629v-29.63Z" fill="#0052FF"/><path d="m131.852 25.186-2.963-2.963v35.555l2.963-2.963v-29.63ZM161.481 54.814l2.963 2.963V22.222l-2.963 2.963v29.63Z" fill="#00D17F"/><path d="m161.481 25.186 2.963-2.963h-35.555l2.963 2.963h29.629ZM131.852 54.814l-2.963 2.963h35.555l-2.963-2.963h-29.629Z" fill="#0A0B0D"/><path d="m146.666 45.926-5.185-5.185-9.629 8.46v5.614h29.629V42.963l-5.926-5.926-8.889 8.889Z" fill="#fff"/><path d="M143.703 32.963a4.074 4.074 0 1 1-8.148 0 4.074 4.074 0 0 1 8.148 0Z" fill="#FFD200"/><path d="M146.667 85.556A5.555 5.555 0 0 1 152.222 80h22.222A5.555 5.555 0 0 1 180 85.556v22.222a5.555 5.555 0 0 1-5.556 5.555h-22.222a5.555 5.555 0 0 1-5.555-5.555V85.556Z" fill="#00D17F"/><path d="M151.428 99.047h4.762v9.524h-4.762v-9.524ZM160.952 94.285h4.762v14.286h-4.762V94.285ZM170.476 89.523h4.762v19.048h-4.762V89.523Z" fill="#0A0B0D"/><path d="M100.871 173.339c9.222 0 16.705-7.467 16.705-16.67 0-9.202-7.483-16.669-16.705-16.669-9.222 0-16.704 7.467-16.704 16.669 0 9.203 7.482 16.67 16.704 16.67Z" fill="#fff"/><path d="M97.816 151.223h6.133a2.375 2.375 0 0 1 2.38 2.374v6.12a2.376 2.376 0 0 1-2.38 2.375h-6.133a2.376 2.376 0 0 1-2.38-2.375v-6.12c-.011-1.301 1.053-2.374 2.38-2.374Z" fill="#0A0B0D"/><path d="M200 126.564h-73.374v60.11H200v-60.11Z" fill="url(#b)"/><defs><linearGradient id="a" x1="82.101" y1="194.999" x2="26.018" y2="109.583" gradientUnits="userSpaceOnUse"><stop offset=".264" stop-color="#FFD200"/><stop offset=".602" stop-color="#EBCEF8"/></linearGradient><linearGradient id="b" x1="117.854" y1="195.022" x2="174.068" y2="109.516" gradientUnits="userSpaceOnUse"><stop offset=".264" stop-color="#FFD200"/><stop offset=".602" stop-color="#EBCEF8"/></linearGradient></defs></svg>