<svg width="240" height="240" fill="none" xmlns="http://www.w3.org/2000/svg"><path d="M162 172V0H78v172h84Z" fill="url(#a)"/><path opacity=".5" d="M131 233v-1h-1v1h1ZM119 233v-1h-1v1h1ZM107 233v-1h-1v1h1ZM155 221v-1h-1v1h1ZM143 221v-1h-1v1h1ZM131 221v-1h-1v1h1ZM119 221v-1h-1v1h1ZM107 221v-1h-1v1h1ZM179 209v-1h-1v1h1ZM167 209v-1h-1v1h1ZM155 209v-1h-1v1h1ZM143 209v-1h-1v1h1ZM131 209v-1h-1v1h1ZM119 209v-1h-1v1h1ZM107 209v-1h-1v1h1ZM179 197v-1h-1v1h1ZM167 197v-1h-1v1h1ZM155 197v-1h-1v1h1ZM143 197v-1h-1v1h1ZM131 197v-1h-1v1h1ZM119 197v-1h-1v1h1ZM107 197v-1h-1v1h1ZM179 185v-1h-1v1h1ZM167 185v-1h-1v1h1ZM155 185v-1h-1v1h1ZM143 185v-1h-1v1h1ZM131 185v-1h-1v1h1ZM119 185v-1h-1v1h1ZM107 185v-1h-1v1h1ZM179 78v-1h-1v1h1ZM167 78v-1h-1v1h1ZM155 78v-1h-1v1h1ZM143 78v-1h-1v1h1ZM131 78v-1h-1v1h1ZM119 78v-1h-1v1h1ZM107 78v-1h-1v1h1ZM179 66v-1h-1v1h1ZM167 66v-1h-1v1h1ZM155 66v-1h-1v1h1ZM143 66v-1h-1v1h1ZM131 66v-1h-1v1h1ZM119 66v-1h-1v1h1ZM107 66v-1h-1v1h1ZM179 54v-1h-1v1h1ZM167 54v-1h-1v1h1ZM155 54v-1h-1v1h1ZM143 54v-1h-1v1h1ZM131 54v-1h-1v1h1ZM119 54v-1h-1v1h1ZM107 54v-1h-1v1h1ZM179 42v-1h-1v1h1ZM167 42v-1h-1v1h1ZM155 42v-1h-1v1h1ZM143 42v-1h-1v1h1ZM131 42v-1h-1v1h1ZM119 42v-1h-1v1h1ZM107 42v-1h-1v1h1ZM179 30v-1h-1v1h1ZM155 30v-1h-1v1h1ZM143 30v-1h-1v1h1ZM131 30v-1h-1v1h1ZM119 30v-1h-1v1h1ZM107 30v-1h-1v1h1ZM107 18v-1h-1v1h1ZM107 6V5h-1v1h1ZM119 18v-1h-1v1h1Z" fill="#1652F0"/><path fill="#fff" stroke="url(#b)" d="M20.5 48.5h199v143h-199z"/><path fill="#1652F0" d="M20 48h200v12H20z"/><path d="M131.81 142.45v-4.79l-4.99-1.25c-.05-.49-.11-.98-.19-1.47l4.49-2.49-1.24-4.62-5.14.09c-.18-.46-.37-.92-.56-1.37l3.69-3.57-2.39-4.14-4.94 1.41c-.29-.4-.59-.78-.9-1.17l2.65-4.41-3.38-3.38-4.41 2.65c-.38-.31-.77-.61-1.17-.9l1.41-4.94-4.14-2.39-3.57 3.69c-.45-.2-.91-.39-1.37-.56l.09-5.14-4.62-1.24-2.49 4.49c-.49-.07-.98-.13-1.47-.19l-1.25-4.99h-4.79l-1.25 4.99c-.49.05-.98.11-1.47.19l-2.49-4.49-4.62 1.24.09 5.14c-.46.18-.92.37-1.37.56l-3.57-3.69-4.14 2.39 1.41 4.94c-.4.29-.78.59-1.17.9l-4.41-2.65-3.38 3.38 2.65 4.41c-.31.38-.61.77-.9 1.17l-4.94-1.41-2.39 4.14 3.69 3.57c-.2.45-.39.91-.56 1.37l-5.14-.09-1.24 4.62 4.49 2.49c-.07.49-.13.98-.19 1.47l-4.99 1.25v4.79l4.99 1.25c.05.49.11.98.19 1.47l-4.49 2.49 1.24 4.62 5.14-.09c.18.46.37.92.56 1.37l-3.69 3.57 2.39 4.14 4.94-1.41c.29.4.59.78.9 1.17l-2.65 4.41 3.38 3.38 4.41-2.65c.38.31.77.61 1.17.9l-1.41 4.94 4.14 2.39 3.57-3.69c.45.2.91.39 1.37.56l-.09 5.14 4.62 1.24 2.49-4.49c.49.07.98.13 1.47.19l1.25 4.99h4.79l1.25-4.99c.49-.05.98-.11 1.47-.19l2.49 4.49 4.62-1.24-.09-5.14c.46-.18.92-.37 1.37-.56l3.57 3.69 4.14-2.39-1.41-4.94c.4-.29.78-.59 1.17-.9l4.41 2.65 3.38-3.38-2.65-4.41c.31-.38.61-.77.9-1.17l4.94 1.41 2.39-4.14-3.69-3.57c.2-.45.39-.91.56-1.37l5.14.09 1.24-4.62-4.49-2.49c.07-.49.13-.98.19-1.47l4.99-1.25Zm-38.28 26.32c-15.86 0-28.71-12.85-28.71-28.71 0-15.86 12.85-28.71 28.71-28.71 15.86 0 28.71 12.85 28.71 28.71 0 15.86-12.85 28.71-28.71 28.71Zm0-53.17c-13.51 0-24.46 10.95-24.46 24.46 0 13.51 10.95 24.46 24.46 24.46 13.51 0 24.46-10.95 24.46-24.46 0-13.51-10.95-24.46-24.46-24.46Zm0 17.01c-4.11 0-7.44 3.33-7.44 7.44s3.33 7.44 7.44 7.44 7.44-3.33 7.44-7.44c.01-4.1-3.33-7.44-7.44-7.44Zm0 11.7c-2.35 0-4.25-1.9-4.25-4.25s1.9-4.25 4.25-4.25 4.25 1.9 4.25 4.25c.01 2.35-1.9 4.25-4.25 4.25Zm0 11.7c-8.81 0-15.95-7.14-15.95-15.95 0-8.81 7.14-15.95 15.95-15.95 8.81 0 15.95 7.14 15.95 15.95 0 8.81-7.14 15.95-15.95 15.95ZM141.38 89.62V88.4l-4.91-.4c-.03-.38-.08-.76-.15-1.13l4.64-1.67-.31-1.17-4.85.88a9.69 9.69 0 0 0-.44-1.05l4.05-2.81-.61-1.05-4.46 2.1c-.22-.31-.45-.62-.7-.91l3.18-3.76-.86-.86-3.76 3.18c-.29-.25-.59-.48-.91-.7l2.1-4.46-1.05-.61-2.81 4.05c-.34-.16-.69-.31-1.05-.44l.88-4.85-1.17-.31-1.67 4.64c-.37-.07-.75-.12-1.13-.15l-.41-4.92h-1.22l-.41 4.91c-.38.03-.76.08-1.13.15l-1.67-4.64-1.17.31.88 4.85c-.36.13-.71.27-1.05.44l-2.81-4.05-1.05.61 2.1 4.46c-.31.22-.62.45-.91.7l-3.76-3.18-.86.86 3.18 3.76c-.25.29-.48.59-.7.91l-4.46-2.1-.61 1.05 4.05 2.81c-.16.34-.31.69-.44 1.05l-4.85-.88-.31 1.17 4.64 1.67c-.07.37-.12.75-.15 1.13l-4.91.41v1.22l4.91.41c.03.38.08.76.15 1.13l-4.64 1.67.31 1.17 4.85-.88c.13.36.27.71.44 1.05l-4.05 2.81.61 1.05 4.46-2.1c.22.31.45.62.7.91l-3.18 3.76.86.86 3.76-3.18c.29.25.59.48.91.7l-2.1 4.46 1.05.61 2.81-4.05c.34.16.69.31 1.05.44l-.88 4.85 1.17.31 1.67-4.64c.37.07.75.12 1.13.15l.41 4.91h1.22l.41-4.91c.38-.03.76-.08 1.13-.15l1.67 4.64 1.17-.31-.88-4.85c.36-.13.71-.27 1.05-.44l2.81 4.05 1.05-.61-2.1-4.46c.31-.22.62-.45.91-.7l3.76 3.18.86-.86-3.18-3.76c.25-.29.48-.59.7-.91l4.46 2.1.61-1.05-4.05-2.81c.16-.34.31-.69.44-1.05l4.85.88.31-1.17-4.64-1.67c.07-.37.12-.75.15-1.13l4.91-.41Zm-17.01 7.9a8.51 8.51 0 1 1 0-17.02 8.51 8.51 0 0 1 0 17.02Zm0-12.76c-2.35 0-4.25 1.9-4.25 4.25s1.9 4.25 4.25 4.25 4.25-1.9 4.25-4.25-1.9-4.25-4.25-4.25Zm0 6.38c-1.17 0-2.13-.95-2.13-2.13 0-1.17.95-2.13 2.13-2.13s2.13.95 2.13 2.13-.96 2.13-2.13 2.13ZM196.68 119.93v-2.28l-4.62-.66c-.08-1.2-.23-2.37-.46-3.52l4.29-1.83-.59-2.2-4.63.56c-.38-1.13-.84-2.23-1.36-3.29l3.67-2.88-1.14-1.97-4.33 1.74c-.66-.99-1.39-1.92-2.17-2.82l2.8-3.74-1.61-1.61-3.74 2.8c-.89-.78-1.83-1.51-2.82-2.17l1.74-4.33-1.97-1.14-2.88 3.67c-1.06-.52-2.16-.98-3.29-1.36l.56-4.63-2.2-.59-1.83 4.29a27.32 27.32 0 0 0-3.52-.46l-.66-4.62h-2.28l-.66 4.62c-1.2.08-2.37.23-3.52.46l-1.83-4.29-2.2.59.56 4.63c-1.13.38-2.23.84-3.29 1.36l-2.88-3.67-1.97 1.14 1.74 4.33c-.99.66-1.92 1.39-2.82 2.17l-3.74-2.8-1.61 1.61 2.8 3.74c-.78.89-1.51 1.83-2.17 2.82l-4.33-1.74-1.14 1.97 3.67 2.88c-.52 1.06-.98 2.16-1.36 3.29l-4.63-.56-.59 2.2 4.29 1.83a27.32 27.32 0 0 0-.46 3.52l-4.62.66v2.28l4.62.66c.08 1.2.23 2.37.46 3.52l-4.29 1.83.59 2.2 4.63-.56c.38 1.13.84 2.23 1.36 3.29l-3.67 2.88 1.14 1.97 4.33-1.74c.66.99 1.39 1.92 2.17 2.82l-2.8 3.74 1.61 1.61 3.74-2.8c.89.78 1.83 1.51 2.82 2.17l-1.74 4.33 1.97 1.14 2.88-3.67c1.06.52 2.16.98 3.29 1.36l-.56 4.63 2.2.59 1.83-4.29c1.15.23 2.33.38 3.52.46l.66 4.62h2.28l.66-4.62c1.2-.08 2.37-.23 3.52-.46l1.83 4.29 2.2-.59-.56-4.63c1.13-.38 2.23-.84 3.29-1.36l2.88 3.67 1.97-1.14-1.74-4.33c.99-.66 1.92-1.39 2.82-2.17l3.74 2.8 1.61-1.61-2.8-3.74c.78-.89 1.51-1.83 2.17-2.82l4.33 1.74 1.14-1.97-3.67-2.88c.52-1.06.98-2.16 1.36-3.29l4.63.56.59-2.2-4.29-1.83c.23-1.15.38-2.33.46-3.52l4.62-.66Zm-31.9 18c-10.57 0-19.14-8.57-19.14-19.14s8.57-19.14 19.14-19.14 19.14 8.57 19.14 19.14-8.57 19.14-19.14 19.14Zm0-29.78c-5.87 0-10.63 4.76-10.63 10.63 0 5.87 4.76 10.63 10.63 10.63 5.87 0 10.63-4.76 10.63-10.63 0-5.86-4.76-10.63-10.63-10.63Zm0 17.02c-3.52 0-6.38-2.86-6.38-6.38s2.86-6.38 6.38-6.38 6.38 2.86 6.38 6.38-2.86 6.38-6.38 6.38ZM70.14 101.77v-2.13h-4.53a6.75 6.75 0 0 0-.29-.9l4.09-1.69-.81-1.96-4.28 1.77c-.18-.25-.36-.48-.56-.71l3.18-3.18-1.5-1.5-3.27 3.27c-.25-.17-.51-.33-.78-.47l1.71-4.12-1.96-.81-1.73 4.18c-.31-.07-.62-.13-.94-.17v-4.33h-2.13v4.33c-.35.04-.69.11-1.02.19l-1.57-3.79-1.96.81 1.55 3.75c-.34.18-.66.4-.96.62l-2.71-2.71-1.5 1.5 2.66 2.66c-.27.33-.5.67-.72 1.04l-3.26-1.35-.85 1.97 3.22 1.33c-.13.43-.22.88-.28 1.34h-3.26v2.13h3.26c.06.49.16.96.3 1.42l-2.83 1.17.81 1.96 2.9-1.2c.26.43.56.83.88 1.2l-2.12 2.12 1.5 1.5 2.21-2.21c.41.28.85.52 1.3.72l-1.16 2.8 1.96.81 1.24-3c.47.08.94.13 1.43.13v3.19h2.13V110c.44-.11.87-.26 1.28-.43l1.32 3.18 1.96-.81-1.44-3.47c.33-.26.63-.53.92-.83l2.64 2.64 1.5-1.5-2.87-2.87c.18-.33.34-.67.47-1.02l3.71 1.54.81-1.96-4-1.66c.04-.33.07-.67.07-1.02h4.28v-.02Zm-12.76 6.38c-3.52 0-6.38-2.86-6.38-6.38s2.86-6.38 6.38-6.38 6.38 2.86 6.38 6.38c0 3.53-2.86 6.38-6.38 6.38Zm3.19-6.38c0 1.76-1.43 3.19-3.19 3.19s-3.19-1.43-3.19-3.19 1.43-3.19 3.19-3.19 3.19 1.43 3.19 3.19Z" fill="#99D6FF"/><path d="M93.53 156.51c-9.07 0-16.45-7.38-16.45-16.45s7.38-16.45 16.45-16.45 16.45 7.38 16.45 16.45-7.38 16.45-16.45 16.45Zm0-31.9c-8.52 0-15.45 6.93-15.45 15.45s6.93 15.45 15.45 15.45 15.45-6.93 15.45-15.45-6.93-15.45-15.45-15.45ZM124.37 93.77c-2.62 0-4.75-2.13-4.75-4.75s2.13-4.75 4.75-4.75 4.75 2.13 4.75 4.75-2.13 4.75-4.75 4.75Zm0-8.51c-2.07 0-3.75 1.68-3.75 3.75 0 2.07 1.68 3.75 3.75 3.75 2.07 0 3.75-1.68 3.75-3.75 0-2.07-1.68-3.75-3.75-3.75ZM57.38 105.46a3.7 3.7 0 0 1-3.69-3.69 3.7 3.7 0 0 1 3.69-3.69 3.7 3.7 0 0 1 3.69 3.69 3.7 3.7 0 0 1-3.69 3.69Zm0-6.38c-1.48 0-2.69 1.21-2.69 2.69s1.21 2.69 2.69 2.69 2.69-1.21 2.69-2.69-1.21-2.69-2.69-2.69Z" fill="#56B4FC"/><path d="m60.283 99.55-.535.844 42.035 26.596.535-.845-42.035-26.596ZM54.999 103.021l-.873.489 25.208 44.99.872-.489-25.207-44.99ZM128.02 89.94l-28.43 53.54.882.469 28.431-53.54-.883-.469Z" fill="#56B4FC"/><path d="m119.713 88.733-32.255 46.229.82.572 32.255-46.229-.82-.572ZM122.593 92.336l-.691.723 36.151 34.585.692-.722-36.152-34.586ZM126.736 84.89l-.486.873 43.144 23.999.486-.874-43.144-23.998Z" fill="#56B4FC"/><path d="M93.53 148c-4.38 0-7.94-3.56-7.94-7.94 0-4.38 3.56-7.94 7.94-7.94 4.38 0 7.94 3.56 7.94 7.94.01 4.38-3.56 7.94-7.94 7.94Zm0-14.89c-3.83 0-6.94 3.11-6.94 6.94 0 3.83 3.11 6.95 6.94 6.95 3.83 0 6.94-3.12 6.94-6.94 0-3.82-3.11-6.95-6.94-6.95ZM164.78 129.92c-6.14 0-11.13-4.99-11.13-11.13 0-6.14 4.99-11.13 11.13-11.13 6.14 0 11.13 4.99 11.13 11.13 0 6.14-4.99 11.13-11.13 11.13Zm0-21.27c-5.59 0-10.13 4.55-10.13 10.13 0 5.58 4.55 10.13 10.13 10.13 5.58 0 10.13-4.55 10.13-10.13 0-5.58-4.54-10.13-10.13-10.13Z" fill="#56B4FC"/><path d="M27 55a1 1 0 1 0 0-2 1 1 0 0 0 0 2ZM33 55a1 1 0 1 0 0-2 1 1 0 0 0 0 2ZM39 55a1 1 0 1 0 0-2 1 1 0 0 0 0 2Z" fill="#D4EEFF"/><defs><linearGradient id="a" x1="120" y1="-.239" x2="120" y2="173.248" gradientUnits="userSpaceOnUse"><stop stop-color="#D4EEFF" stop-opacity="0"/><stop offset=".306" stop-color="#D4EEFF"/><stop offset="1" stop-color="#D4EEFF" stop-opacity=".3"/></linearGradient><linearGradient id="b" x1="120" y1="48" x2="120" y2="192" gradientUnits="userSpaceOnUse"><stop stop-color="#D4EEFF"/><stop offset="1" stop-color="#99D6FF"/></linearGradient></defs></svg>