<svg width="500" height="500" viewBox="0 0 500 500" fill="none" xmlns="http://www.w3.org/2000/svg">
<path d="M180.085 221.275L250 151.36L319.948 221.305L360.628 180.625L250 70L139.408 180.592L180.087 221.272L180.085 221.275ZM70 250L110.681 209.313L151.36 249.991L110.679 290.673L70 250ZM180.085 278.729L250 348.64L319.947 278.696L360.648 319.355L360.628 319.376L250 430L139.408 319.408L139.35 319.35L180.089 278.725L180.085 278.729ZM348.64 250.017L389.321 209.336L430 250.014L389.32 290.696L348.64 250.017Z" fill="#F3BA2F"/>
<path d="M291.259 249.978H291.276L250 208.699L219.491 239.2L215.986 242.706L208.757 249.937L208.699 249.993L208.757 250.052L250 291.301L291.279 250.021L291.299 249.998L291.262 249.978" fill="#F3BA2F"/>
</svg>
