<svg width="500" height="500" viewBox="0 0 500 500" fill="none" xmlns="http://www.w3.org/2000/svg">
<path d="M287.253 179.298C287.253 126.979 262.033 81.9044 242.715 67.1478C242.715 67.1478 241.374 66.3429 241.374 68.4893C239.764 169.639 188.518 197.274 160.078 234.032C94.881 319.352 155.517 412.721 217.227 429.892C251.838 439.551 209.178 412.721 203.812 356.377C197.372 287.96 287.253 235.91 287.253 179.298" fill="#282E5B"/>
<path d="M321.06 213.909C320.791 213.641 320.255 213.641 319.718 213.909C319.718 213.909 319.718 213.909 319.45 214.178C318.377 226.788 304.425 254.154 286.985 279.107C227.691 363.89 261.497 404.672 280.546 426.673C291.546 439.551 280.546 426.673 308.181 413.526C310.327 412.453 361.841 385.086 367.476 323.108C373.11 262.74 334.743 224.91 321.06 213.909" fill="#059BDC"/>
</svg>
