<svg fill="none" height="140" viewBox="0 0 301 140" width="301" xmlns="http://www.w3.org/2000/svg" xmlns:xlink="http://www.w3.org/1999/xlink"><clipPath id="a"><rect height="140" rx="16" width="300" x=".5"/></clipPath><clipPath id="b"><rect height="78.8153" rx="39.4077" transform="matrix(-.62366133 .78169466 -.78169466 -.62366133 417.459566 -15.313315)" width="78.8153" x="212.416" y="92.8341"/></clipPath><clipPath id="c"><rect height="78.8153" rx="39.4077" transform="matrix(-.64764128 -.76194538 .76194538 -.64764128 351.910981 504.739881)" width="78.8153" x="292.663" y="171"/></clipPath><g clip-path="url(#a)"><rect fill="#0052ff" height="69.5327" rx="34.7664" transform="matrix(.9953126 -.09671002 .09671002 .9953126 -4.501527 -.010901)" width="69.5327" x="-2.36322" y="46.4321"/><path d="m38.1688 102.11c13.4011-1.302 23.2107-13.2028 21.9108-26.5804-1.2998-13.3776-13.2169-23.1668-26.6179-21.8646-12.7141 1.2353-22.1957 12.0102-22.0243 24.5357l32.0722-3.1164.3956 4.0722-32.0722 3.1163c2.2432 12.3241 13.6218 21.0722 26.3358 19.8372z" fill="#fff"/><rect fill="#0052ff" height="78.8153" rx="39.4077" transform="matrix(-.98837478 .15203713 -.15203713 -.98837478 299.22994 142.917976)" width="78.8153" x="144.151" y="82.899"/><path d="m95.5285 23.0099c-15.0842 2.3204-25.4342 16.4083-23.1179 31.4661s16.4217 25.3836 31.5064 23.0633c14.31-2.2014 24.36-14.9948 23.375-29.1595l-36.1004 5.5532-.705-4.5837 36.1004-5.5532c-3.317-13.8058-16.748-22.9876-31.0585-20.7862z" fill="#fff"/><g clip-path="url(#b)"><rect fill="#0052ff" height="78.8153" rx="39.4077" transform="matrix(-.62366133 .78169466 -.78169466 -.62366133 417.459566 -15.313315)" width="78.8153" x="212.416" y="92.8341"/><path d="m136.074 81.7563c-9.518 11.93-7.58 29.3037 4.329 38.8047 11.91 9.501 29.279 7.533 38.797-4.397 9.031-11.319 7.749-27.5367-2.577-37.2835l-22.779 28.5515-3.625-2.892 22.779-28.5518c-11.796-7.9023-27.894-5.5503-36.924 5.7681z" fill="#fff"/></g><rect fill="#0052ff" height="78.8153" rx="39.4077" transform="matrix(.04251388 -.99909588 .99909588 .04251388 66.086682 300.264631)" width="78.8153" x="189.7" y="115.653"/><path d="m257.881 79.5669c.649-15.2478-11.164-28.1333-26.386-28.781-15.221-.6477-28.086 11.1877-28.735 26.4355-.615 14.4661 9.986 26.8066 24.073 28.5866l1.553-36.4922 4.633.1972-1.552 36.492c14.187-.577 25.799-11.972 26.414-26.4381z" fill="#fff"/><g clip-path="url(#c)"><rect fill="#0052ff" height="78.8153" rx="39.4077" transform="matrix(-.64764128 -.76194538 .76194538 -.64764128 351.910981 504.739881)" width="78.8153" x="292.663" y="171"/><path d="m318.171 98.1976c-9.884-11.6286-27.307-13.0564-38.915-3.1897-11.609 9.8671-13.007 27.2921-3.123 38.9201 9.378 11.033 25.541 12.884 37.086 4.619l-23.655-27.831 3.534-3.003 23.655 27.83c10.017-10.063 10.795-26.313 1.418-37.3454z" fill="#fff"/></g><path d="m123.456 101.657-.765 6.903c-.144 1.306.427 2.59 1.496 3.356l5.644 4.046c.533.382.21 1.222-.441 1.15l-6.903-.765c-1.307-.144-2.59.427-3.356 1.496l-4.047 5.644c-.381.533-1.221.21-1.15-.441l.766-6.903c.144-1.307-.427-2.59-1.496-3.356l-5.644-4.047c-.533-.381-.211-1.222.441-1.15l6.903.765c1.306.145 2.59-.426 3.356-1.495l4.046-5.644c.382-.533 1.222-.211 1.15.441z" fill="#fff"/><path d="m256.348 49.1051c2.002.2993 3.765-.3898 3.938-1.539.174-1.1493-1.309-2.3235-3.311-2.6228-2.002-.2992-3.766.3898-3.939 1.5391-.173 1.1492 1.31 2.3235 3.312 2.6227z" fill="#0052ff"/><path d="m275.103 62.1993 3.439 1.1087c.651.2098 1.365.0521 1.866-.4128l2.65-2.4559c.25-.2318.645.02.541.3445l-1.109 3.439c-.21.6511-.052 1.3648.413 1.8663l2.456 2.6504c.232.25-.02.6448-.345.5404l-3.439-1.1087c-.651-.2098-1.365-.0521-1.866.4128l-2.65 2.4559c-.25.2318-.645-.02-.541-.3445l1.109-3.439c.21-.6511.052-1.3648-.413-1.8663l-2.456-2.6504c-.232-.25.02-.6448.345-.5404z" fill="#fff"/><path d="m93.5229 5.57278 3.4945 2.10392c.6615.39816 1.4866.40859 2.1576.02664l3.545-2.017c.335-.19037.704.18803.505.51783l-2.103 3.49444c-.399.66149-.409 1.48669-.027 2.15759l2.017 3.5453c.19.3344-.188.7035-.518.5052l-3.4944-2.1039c-.6615-.3982-1.4866-.4086-2.1575-.0267l-3.5454 2.017c-.3343.1904-.7035-.188-.5052-.5178l2.104-3.4944c.3981-.6616.4086-1.4867.0266-2.1576l-2.017-3.54533c-.1904-.33435.188-.70352.5178-.50519z" fill="#fff"/><g fill="#0052ff"><path d="m233.311 32.7206c1.552.1018 2.86-.5375 2.921-1.428.06-.8904-1.149-1.6948-2.701-1.7966s-2.86.5375-2.921 1.4279c-.061.8905 1.149 1.6948 2.701 1.7967z"/><path d="m294.13 69.4089c1.552.1018 2.859-.5375 2.92-1.4279.061-.8905-1.148-1.6948-2.7-1.7966-1.552-.1019-2.86.5374-2.921 1.4279-.061.8904 1.148 1.6948 2.701 1.7966z"/><path d="m200.189 42.6842c.762-.2259 1.278-.7629 1.152-1.1994-.125-.4364-.844-.6071-1.606-.3811-.761.2259-1.277.7629-1.152 1.1994.126.4364.845.6071 1.606.3811z"/><path d="m79.5346 98.6827c3.0604.2007 5.6387-1.06 5.7587-2.8158.12-1.7559-2.2636-3.342-5.3241-3.5427-3.0604-.2008-5.6387 1.0599-5.7587 2.8158-.12 1.7558 2.2636 3.342 5.3241 3.5427z"/><path d="m70.4612 8.20524c1.4593.09572 2.6886-.50541 2.7459-1.34265.0572-.83725-1.0794-1.59357-2.5387-1.68928-1.4593-.09572-2.6887.50541-2.7459 1.34266-.0572.83724 1.0794 1.59356 2.5387 1.68927z"/><path d="m57.4611 26.2053c1.4593.0957 2.7022-.7026 2.7761-1.783.0738-1.0803-1.0493-2.0338-2.5086-2.1295s-2.7022.7025-2.776 1.7829c-.0739 1.0804 1.0492 2.0338 2.5085 2.1296z"/><path d="m85.4611 14.0858c1.4593.0957 2.7022-.7026 2.7761-1.783.0738-1.0804-1.0493-2.0338-2.5086-2.1295s-2.7022.7025-2.776 1.7829c-.0739 1.0804 1.0492 2.0338 2.5085 2.1296z"/><path clip-rule="evenodd" d="m161.624 49.4457c.065-1.5057 1.338-2.6741 2.843-2.6096 7.868.337 13.6 4.6424 17.345 9.1499.467.5623.916 1.1434 1.344 1.7292.885 1.2126-.502 2.1921-1.606 1.1751-1.876-1.7274-3.953-2.9833-4.6-3.4604-2.721-2.0039-8.064-2.9419-12.716-3.1411-1.506-.0645-2.674-1.3374-2.61-2.8431z" fill-rule="evenodd"/><circle cx="186.812" cy="63.1048" r="1.86448" transform="matrix(-.06949879 -.99758204 .99758204 -.06949879 136.842993 253.850803)"/><path clip-rule="evenodd" d="m250.034 123.539c.842 1.614.215 3.606-1.4 4.447-8.437 4.398-17.035 3.353-23.676.897-.828-.307-1.649-.644-2.45-.999-1.659-.734-.799-2.597.971-2.199 3.006.675 5.938.736 6.904.844 4.057.455 10.215-1.79 15.204-4.39 1.614-.842 3.606-.215 4.447 1.4z" fill-rule="evenodd"/><circle cx="215.428" cy="124.451" r="2.25265" transform="matrix(.55870808 .82936438 -.82936438 .55870808 198.281862 -123.74909)"/></g></g></svg>