<svg width="14" height="14" viewBox="0 0 14 14" fill="none" xmlns="http://www.w3.org/2000/svg">
<path d="M5.97838 1.88752C6.32399 1.58728 6.49679 1.43716 6.68893 1.37427C6.89104 1.30812 7.10896 1.30812 7.31107 1.37427C7.50321 1.43716 7.67601 1.58728 8.02162 1.88752C8.19721 2.04006 8.285 2.11633 8.38403 2.16935C8.48856 2.22532 8.60222 2.26224 8.71968 2.27841C8.83096 2.29373 8.94682 2.28363 9.17853 2.26343C9.63461 2.22367 9.86266 2.20379 10.0551 2.26585C10.2575 2.33112 10.4338 2.45922 10.5584 2.63153C10.6769 2.79534 10.7284 3.01837 10.8315 3.46441C10.8839 3.69103 10.9101 3.80433 10.9591 3.90544C11.0108 4.01216 11.081 4.10883 11.1665 4.19095C11.2476 4.26876 11.3472 4.32868 11.5466 4.44854C11.9389 4.68445 12.1351 4.80241 12.2543 4.96571C12.3796 5.13748 12.447 5.34474 12.4465 5.5574C12.4461 5.75956 12.3567 5.9703 12.178 6.39178C12.0871 6.60591 12.0417 6.71297 12.0219 6.82354C12.001 6.94025 12.001 7.05975 12.0219 7.17646C12.0417 7.28703 12.0871 7.39409 12.178 7.60822C12.3567 8.0297 12.4461 8.24044 12.4465 8.4426C12.447 8.65526 12.3796 8.86252 12.2543 9.03429C12.1351 9.19759 11.9389 9.31555 11.5466 9.55146C11.3472 9.67132 11.2476 9.73124 11.1665 9.80905C11.081 9.89117 11.0108 9.98784 10.9591 10.0946C10.9101 10.1957 10.8839 10.309 10.8315 10.5356C10.7284 10.9816 10.6769 11.2047 10.5584 11.3685C10.4338 11.5408 10.2575 11.6689 10.0551 11.7342C9.86266 11.7962 9.63461 11.7763 9.17853 11.7366C8.94682 11.7164 8.83096 11.7063 8.71968 11.7216C8.60222 11.7378 8.48856 11.7747 8.38403 11.8306C8.285 11.8837 8.19721 11.9599 8.02162 12.1125C7.67601 12.4127 7.50321 12.5628 7.31107 12.6257C7.10896 12.6919 6.89104 12.6919 6.68893 12.6257C6.49679 12.5628 6.32399 12.4127 5.97838 12.1125C5.80279 11.9599 5.715 11.8837 5.61597 11.8306C5.51144 11.7747 5.39778 11.7378 5.28032 11.7216C5.16904 11.7063 5.05318 11.7164 4.82147 11.7366C4.36539 11.7763 4.13734 11.7962 3.94494 11.7342C3.74255 11.6689 3.56624 11.5408 3.44162 11.3685C3.32314 11.2047 3.27158 10.9816 3.16845 10.5356C3.11606 10.309 3.08986 10.1957 3.04091 10.0946C2.98924 9.98784 2.919 9.89117 2.83347 9.80905C2.75244 9.73124 2.65278 9.67132 2.45344 9.55146C2.06109 9.31555 1.86492 9.19759 1.74574 9.03429C1.62037 8.86252 1.55303 8.65526 1.55349 8.4426C1.55392 8.24044 1.6433 8.0297 1.82205 7.60822C1.91286 7.39409 1.95827 7.28703 1.97809 7.17646C1.99901 7.05975 1.99901 6.94025 1.97809 6.82354C1.95827 6.71297 1.91286 6.60591 1.82205 6.39178C1.6433 5.9703 1.55392 5.75956 1.55349 5.5574C1.55303 5.34474 1.62037 5.13748 1.74574 4.96571C1.86492 4.80241 2.06109 4.68445 2.45344 4.44854C2.65278 4.32868 2.75244 4.26876 2.83347 4.19095C2.919 4.10883 2.98924 4.01216 3.04091 3.90544C3.08986 3.80433 3.11606 3.69103 3.16845 3.46441C3.27158 3.01837 3.32314 2.79534 3.44162 2.63153C3.56624 2.45922 3.74255 2.33112 3.94494 2.26584C4.13734 2.20379 4.36539 2.22367 4.82147 2.26343C5.05318 2.28363 5.16904 2.29373 5.28032 2.27841C5.39778 2.26224 5.51144 2.22532 5.61597 2.16935C5.715 2.11633 5.80279 2.04006 5.97838 1.88752Z" fill="#3C6FEF"/>
<g filter="url(#filter0_di_769_11502)">
<path fill-rule="evenodd" clip-rule="evenodd" d="M10.1457 5.47249C10.2683 5.59515 10.2683 5.79403 10.1457 5.91669L6.87056 9.1831C6.7479 9.30576 6.54902 9.30576 6.42636 9.1831L4.46321 7.21996C4.34055 7.09729 4.34055 6.89841 4.46321 6.77575L4.90742 6.33154C5.03009 6.20888 5.22897 6.20888 5.35163 6.33154L6.64846 7.62837L9.25723 5.02828C9.3799 4.90561 9.57878 4.90561 9.70144 5.02828L10.1457 5.47249Z" fill="url(#paint0_linear_769_11502)"/>
</g>
<defs>
<filter id="filter0_di_769_11502" x="4.37122" y="4.93628" width="5.86646" height="4.53882" filterUnits="userSpaceOnUse" color-interpolation-filters="sRGB">
<feFlood flood-opacity="0" result="BackgroundImageFix"/>
<feColorMatrix in="SourceAlpha" type="matrix" values="0 0 0 0 0 0 0 0 0 0 0 0 0 0 0 0 0 0 127 0" result="hardAlpha"/>
<feOffset dy="0.2"/>
<feComposite in2="hardAlpha" operator="out"/>
<feColorMatrix type="matrix" values="0 0 0 0 0 0 0 0 0 0 0 0 0 0 0 0 0 0 0.05 0"/>
<feBlend mode="normal" in2="BackgroundImageFix" result="effect1_dropShadow_769_11502"/>
<feBlend mode="normal" in="SourceGraphic" in2="effect1_dropShadow_769_11502" result="shape"/>
<feColorMatrix in="SourceAlpha" type="matrix" values="0 0 0 0 0 0 0 0 0 0 0 0 0 0 0 0 0 0 127 0" result="hardAlpha"/>
<feOffset dy="-0.1"/>
<feComposite in2="hardAlpha" operator="arithmetic" k2="-1" k3="1"/>
<feColorMatrix type="matrix" values="0 0 0 0 1 0 0 0 0 1 0 0 0 0 1 0 0 0 1 0"/>
<feBlend mode="normal" in2="shape" result="effect2_innerShadow_769_11502"/>
</filter>
<linearGradient id="paint0_linear_769_11502" x1="7.17523" y1="4.93628" x2="7.17523" y2="9.54235" gradientUnits="userSpaceOnUse">
<stop stop-color="#CDDAFA"/>
<stop offset="1" stop-color="#F5F8FE"/>
</linearGradient>
</defs>
</svg>
