<svg width="90" height="90" viewBox="0 0 90 90" fill="none" xmlns="http://www.w3.org/2000/svg">
<g clip-path="url(#clip0_9042_377)">
<circle cx="45" cy="45" r="45" fill="#F2F2F2"/>
<path fill-rule="evenodd" clip-rule="evenodd" d="M37.3143 55.9751H50.7796C51.7945 55.9751 52.6361 55.1251 52.6361 54.1001C52.6361 53.0751 51.7945 52.2501 50.7796 52.2501H37.3143C36.2994 52.2501 35.4578 53.0751 35.4578 54.1001C35.4578 55.1251 36.2994 55.9751 37.3143 55.9751ZM45.6806 39.7501H37.3143C36.2994 39.7501 35.4578 40.6001 35.4578 41.6251C35.4578 42.6501 36.2994 43.4751 37.3143 43.4751H45.6806C46.6955 43.4751 47.5371 42.6501 47.5371 41.6251C47.5371 40.6001 46.6955 39.7501 45.6806 39.7501ZM63.3452 37.564C63.927 37.5573 64.5605 37.55 65.1361 37.55C65.755 37.55 66.25 38.05 66.25 38.675V58.775C66.25 64.975 61.2748 70 55.1361 70H35.4332C28.9975 70 23.75 64.725 23.75 58.225V31.275C23.75 25.075 28.75 20 34.9134 20H48.1312C48.7748 20 49.2698 20.525 49.2698 21.15V29.2C49.2698 33.775 53.0074 37.525 57.5371 37.55C58.5952 37.55 59.5279 37.5579 60.3442 37.5648C60.9793 37.5702 61.5439 37.575 62.0421 37.575C62.3944 37.575 62.8512 37.5697 63.3452 37.564ZM64.0278 33.9153C61.9931 33.9228 59.5946 33.9153 57.8694 33.8978C55.1318 33.8978 52.8768 31.6203 52.8768 28.8553V22.2653C52.8768 21.1878 54.1714 20.6528 54.9115 21.4303C56.251 22.837 58.0917 24.7707 59.9241 26.6955C61.752 28.6156 63.5715 30.527 64.8768 31.8978C65.5996 32.6553 65.0699 33.9128 64.0278 33.9153Z" fill="#BDBDBD"/>
</g>
<defs>
<clipPath id="clip0_9042_377">
<rect width="90" height="90" fill="white"/>
</clipPath>
</defs>
</svg>
