<svg width="192" height="192" viewBox="0 0 192 192" fill="none" xmlns="http://www.w3.org/2000/svg">
<rect opacity="0.1" width="192" height="192" rx="96" fill="#929292"/>
<path opacity="0.3" fill-rule="evenodd" clip-rule="evenodd" d="M57.2093 83.2914C57.8908 84.2888 58.6721 85.253 59.5532 86.1839C62.9277 89.7579 67.6986 92.7834 73.4004 95.0109C75.3454 95.7756 77.4067 96.4239 79.5677 97.0057C83.4077 97.9865 87.5635 98.6348 91.8856 98.8842C93.1989 98.9673 94.5454 99.0005 95.9085 99.0005C97.2716 99.0005 98.6181 98.9673 99.9313 98.8842C104.253 98.6348 108.409 97.9865 112.249 97.0057C114.41 96.4405 116.472 95.7756 118.417 95.0109C124.118 92.8 128.873 89.7579 132.264 86.1839C133.145 85.2696 133.926 84.2888 134.608 83.2914C135.322 82.2442 135.938 81.1636 136.42 80.0499C137.334 77.9719 137.833 75.7777 137.833 73.5003C137.833 59.4203 119.065 48 95.9251 48C72.7854 48 54.0176 59.4203 54.0176 73.5003C54.0176 75.761 54.4997 77.9553 55.4306 80.0499C55.8794 81.1636 56.4945 82.2442 57.2093 83.2914ZM95.9075 131.65C78.9184 131.65 64.2068 126.181 55.413 117.703C54.4987 119.798 54 121.992 54 124.269C54 138.349 72.7678 149.77 95.9075 149.77C119.047 149.77 137.815 138.366 137.815 124.269C137.815 122.009 137.333 119.814 136.402 117.703C127.608 126.181 112.897 131.65 95.9075 131.65ZM123.336 100.847C124.732 100.232 126.079 99.5672 127.359 98.869C130.817 96.9739 133.875 94.7796 136.452 92.3027C137.366 94.4139 137.848 96.6082 137.848 98.869C137.848 101.146 137.35 103.341 136.435 105.435C135.953 106.549 135.338 107.629 134.623 108.677C133.942 109.674 133.161 110.655 132.279 111.569C125.048 119.233 111.484 124.386 95.9242 124.386C80.3647 124.386 66.8 119.233 59.5688 111.569C58.6878 110.638 57.9065 109.674 57.2249 108.677C56.5101 107.629 55.8784 106.549 55.413 105.435C54.4821 103.324 54 101.13 54 98.869C54.0045 96.607 54.48 94.3708 55.3964 92.3027C57.9397 94.7796 60.9984 96.9739 64.4561 98.869C65.7361 99.5672 67.0826 100.249 68.479 100.847C70.0582 101.562 71.7039 102.177 73.3995 102.742C80.1153 105.003 87.7455 106.266 95.9075 106.266C104.07 106.266 111.7 105.003 118.416 102.742C120.111 102.177 121.757 101.545 123.336 100.847Z" fill="#929292"/>
</svg>
