<svg width="192" height="192" viewBox="0 0 192 192" fill="none" xmlns="http://www.w3.org/2000/svg">
<circle opacity="0.1" cx="96" cy="96" r="96" fill="#929292"/>
<g opacity="0.3">
<path fill-rule="evenodd" clip-rule="evenodd" d="M79.6036 119.414H108.33C110.495 119.414 112.29 117.6 112.29 115.414C112.29 113.227 110.495 111.467 108.33 111.467H79.6036C77.4386 111.467 75.6432 113.227 75.6432 115.414C75.6432 117.6 77.4386 119.414 79.6036 119.414ZM97.4518 84.8003H79.6036C77.4386 84.8003 75.6432 86.6136 75.6432 88.8003C75.6432 90.9869 77.4386 92.7469 79.6036 92.7469H97.4518C99.6168 92.7469 101.412 90.9869 101.412 88.8003C101.412 86.6136 99.6168 84.8003 97.4518 84.8003ZM135.136 80.1366C136.377 80.1223 137.729 80.1067 138.957 80.1067C140.277 80.1067 141.333 81.1733 141.333 82.5067V125.387C141.333 138.613 130.719 149.333 117.624 149.333H75.5906C61.8612 149.333 50.6665 138.08 50.6665 124.213V66.72C50.6665 53.4933 61.3332 42.6667 74.4817 42.6667H102.68C104.053 42.6667 105.109 43.7867 105.109 45.12V62.2933C105.109 72.0533 113.082 80.0533 122.746 80.1067C125.003 80.1067 126.993 80.1235 128.734 80.1383C130.089 80.1498 131.293 80.16 132.356 80.16C133.108 80.16 134.082 80.1488 135.136 80.1366ZM136.592 72.3526C132.252 72.3686 127.135 72.3526 123.455 72.3153C117.614 72.3153 112.804 67.4566 112.804 61.558V47.4993C112.804 45.2006 115.565 44.0593 117.144 45.718C120.002 48.719 123.929 52.8442 127.838 56.9506C131.737 61.0468 135.619 65.1243 138.404 68.0486C139.946 69.6646 138.816 72.3473 136.592 72.3526Z" fill="#929292"/>
</g>
</svg>
