<svg width="18" height="18" viewBox="0 0 18 18" fill="none" xmlns="http://www.w3.org/2000/svg">
<path d="M9 18C13.9706 18 18 13.9706 18 9C18 4.02944 13.9706 0 9 0C4.02944 0 0 4.02944 0 9C0 13.9706 4.02944 18 9 18Z" fill="black"/>
<path d="M13.3756 7.5257C13.5074 7.3939 13.5074 7.1802 13.3756 7.0484L12.5801 6.2529C12.4483 6.1211 12.2346 6.1211 12.1028 6.2529L8.07443 10.2813C7.98657 10.3691 7.8441 10.3691 7.75624 10.2813L5.89752 8.42255C5.76572 8.29074 5.55203 8.29074 5.42023 8.42254L4.62473 9.21804C4.49293 9.34984 4.49293 9.56354 4.62473 9.69534L7.67669 12.7473C7.80849 12.8791 8.02218 12.8791 8.15398 12.7473L13.3756 7.5257Z" fill="white"/>
</svg>
