<svg width="32" height="32" viewBox="0 0 32 32" fill="none" xmlns="http://www.w3.org/2000/svg">
<rect x="0.25" y="0.25" width="31.5" height="31.5" rx="3.75" fill="white" stroke="#EBEBEB" stroke-width="0.5"/>
<path d="M5.564 11.7712C5.564 11.8848 5.5456 11.9728 5.5088 12.0352C5.472 12.096 5.4152 12.136 5.3384 12.1552C5.4152 12.1744 5.472 12.2152 5.5088 12.2776C5.5456 12.3384 5.564 12.4256 5.564 12.5392V12.8272C5.564 12.9216 5.5792 12.9872 5.6096 13.024C5.64 13.0608 5.6912 13.0792 5.7632 13.0792H5.8328V13.2664H5.7776C5.6336 13.2664 5.5264 13.236 5.456 13.1752C5.3856 13.1144 5.3504 13.0056 5.3504 12.8488V12.5584C5.3504 12.48 5.3416 12.42 5.324 12.3784C5.308 12.3368 5.2816 12.308 5.2448 12.292C5.2096 12.2744 5.16 12.2656 5.096 12.2656V12.0448C5.1616 12.0448 5.212 12.036 5.2472 12.0184C5.284 12.0008 5.3104 11.9712 5.3264 11.9296C5.3424 11.888 5.3504 11.8288 5.3504 11.752V11.4616C5.3504 11.3048 5.3856 11.196 5.456 11.1352C5.5264 11.0744 5.6336 11.044 5.7776 11.044H5.8328V11.2312H5.7632C5.6912 11.2312 5.64 11.2496 5.6096 11.2864C5.5792 11.3232 5.564 11.3888 5.564 11.4832V11.7712ZM6.27474 11.68C6.22834 11.68 6.19074 11.6624 6.16194 11.6272C6.13314 11.5904 6.11874 11.5344 6.11874 11.4592C6.11874 11.3504 6.14674 11.2608 6.20274 11.1904C6.26034 11.12 6.33554 11.076 6.42834 11.0584V11.1712C6.31954 11.2048 6.26194 11.2824 6.25554 11.404C6.26034 11.4024 6.26754 11.4016 6.27714 11.4016C6.31714 11.4016 6.34834 11.4152 6.37074 11.4424C6.39474 11.4696 6.40674 11.5024 6.40674 11.5408C6.40674 11.5792 6.39394 11.612 6.36834 11.6392C6.34434 11.6664 6.31314 11.68 6.27474 11.68ZM6.66354 11.68C6.61714 11.68 6.57954 11.6624 6.55074 11.6272C6.52194 11.5904 6.50754 11.5344 6.50754 11.4592C6.50754 11.3504 6.53554 11.2608 6.59154 11.1904C6.64914 11.12 6.72434 11.076 6.81714 11.0584V11.1712C6.70834 11.2048 6.65074 11.2824 6.64434 11.404C6.64914 11.4024 6.65634 11.4016 6.66594 11.4016C6.70594 11.4016 6.73714 11.4152 6.75954 11.4424C6.78354 11.4696 6.79554 11.5024 6.79554 11.5408C6.79554 11.5792 6.78274 11.612 6.75714 11.6392C6.73314 11.6664 6.70194 11.68 6.66354 11.68ZM7.71286 11.2432C7.83126 11.2432 7.93686 11.2664 8.02966 11.3128C8.12406 11.3592 8.19766 11.424 8.25046 11.5072C8.30326 11.5888 8.32966 11.6824 8.32966 11.788C8.32966 11.8936 8.30326 11.988 8.25046 12.0712C8.19926 12.1528 8.12646 12.2168 8.03206 12.2632C7.93926 12.308 7.83286 12.3304 7.71286 12.3304H7.38646V13H7.17286V11.2432H7.71286ZM7.68646 12.1432C7.82086 12.1432 7.92406 12.1104 7.99606 12.0448C8.06806 11.9776 8.10406 11.892 8.10406 11.788C8.10406 11.684 8.06806 11.5984 7.99606 11.5312C7.92406 11.464 7.82086 11.4304 7.68646 11.4304H7.38646V12.1432H7.68646ZM8.78394 11.0584C8.83034 11.0584 8.86794 11.0768 8.89674 11.1136C8.92554 11.1488 8.93994 11.204 8.93994 11.2792C8.93994 11.388 8.91114 11.4776 8.85354 11.548C8.79754 11.6184 8.72314 11.6624 8.63034 11.68V11.5672C8.73914 11.5336 8.79674 11.456 8.80314 11.3344C8.79834 11.336 8.79114 11.3368 8.78154 11.3368C8.74154 11.3368 8.70954 11.3232 8.68554 11.296C8.66314 11.2688 8.65194 11.236 8.65194 11.1976C8.65194 11.1576 8.66394 11.1248 8.68794 11.0992C8.71354 11.072 8.74554 11.0584 8.78394 11.0584ZM9.17274 11.0584C9.21914 11.0584 9.25674 11.0768 9.28554 11.1136C9.31434 11.1488 9.32874 11.204 9.32874 11.2792C9.32874 11.388 9.29994 11.4776 9.24234 11.548C9.18634 11.6184 9.11194 11.6624 9.01914 11.68V11.5672C9.12794 11.5336 9.18554 11.456 9.19194 11.3344C9.18714 11.336 9.17994 11.3368 9.17034 11.3368C9.13034 11.3368 9.09834 11.3232 9.07434 11.296C9.05194 11.2688 9.04074 11.236 9.04074 11.1976C9.04074 11.1576 9.05274 11.1248 9.07674 11.0992C9.10234 11.072 9.13434 11.0584 9.17274 11.0584ZM9.86574 12.004C9.82894 12.004 9.79694 11.9904 9.76974 11.9632C9.74414 11.936 9.73134 11.9032 9.73134 11.8648C9.73134 11.8264 9.74414 11.7936 9.76974 11.7664C9.79694 11.7392 9.82894 11.7256 9.86574 11.7256C9.90414 11.7256 9.93614 11.7392 9.96174 11.7664C9.98894 11.7936 10.0025 11.8264 10.0025 11.8648C10.0025 11.9032 9.98894 11.936 9.96174 11.9632C9.93614 11.9904 9.90414 12.004 9.86574 12.004ZM9.86574 13.0264C9.82894 13.0264 9.79694 13.0128 9.76974 12.9856C9.74414 12.9584 9.73134 12.9256 9.73134 12.8872C9.73134 12.8488 9.74414 12.816 9.76974 12.7888C9.79694 12.7616 9.82894 12.748 9.86574 12.748C9.90414 12.748 9.93614 12.7616 9.96174 12.7888C9.98894 12.816 10.0025 12.8488 10.0025 12.8872C10.0025 12.9256 9.98894 12.9584 9.96174 12.9856C9.93614 13.0128 9.90414 13.0264 9.86574 13.0264ZM10.5207 11.0584C10.5671 11.0584 10.6047 11.0768 10.6335 11.1136C10.6623 11.1488 10.6767 11.204 10.6767 11.2792C10.6767 11.388 10.6479 11.4776 10.5903 11.548C10.5343 11.6184 10.4599 11.6624 10.3671 11.68V11.5672C10.4759 11.5336 10.5335 11.456 10.5399 11.3344C10.5351 11.336 10.5279 11.3368 10.5183 11.3368C10.4783 11.3368 10.4463 11.3232 10.4223 11.296C10.3999 11.2688 10.3887 11.236 10.3887 11.1976C10.3887 11.1576 10.4007 11.1248 10.4247 11.0992C10.4503 11.072 10.4823 11.0584 10.5207 11.0584ZM10.9095 11.0584C10.9559 11.0584 10.9935 11.0768 11.0223 11.1136C11.0511 11.1488 11.0655 11.204 11.0655 11.2792C11.0655 11.388 11.0367 11.4776 10.9791 11.548C10.9231 11.6184 10.8487 11.6624 10.7559 11.68V11.5672C10.8647 11.5336 10.9223 11.456 10.9287 11.3344C10.9239 11.336 10.9167 11.3368 10.9071 11.3368C10.8671 11.3368 10.8351 11.3232 10.8111 11.296C10.7887 11.2688 10.7775 11.236 10.7775 11.1976C10.7775 11.1576 10.7895 11.1248 10.8135 11.0992C10.8391 11.072 10.8711 11.0584 10.9095 11.0584ZM12.0945 11.7256C12.1889 11.7256 12.2777 11.752 12.3609 11.8048C12.4457 11.856 12.5137 11.9312 12.5649 12.0304C12.6161 12.128 12.6417 12.2432 12.6417 12.376C12.6417 12.5104 12.6161 12.6272 12.5649 12.7264C12.5137 12.824 12.4457 12.8984 12.3609 12.9496C12.2777 13.0008 12.1889 13.0264 12.0945 13.0264C12.0113 13.0264 11.9321 13.0064 11.8569 12.9664C11.7817 12.9264 11.7217 12.8664 11.6769 12.7864C11.6705 12.8552 11.6657 12.9264 11.6625 13H11.4825V11.1736H11.6865V11.9488C11.7329 11.8752 11.7921 11.82 11.8641 11.7832C11.9361 11.7448 12.0129 11.7256 12.0945 11.7256ZM12.0681 12.8344C12.1769 12.8344 12.2641 12.7944 12.3297 12.7144C12.3953 12.6344 12.4281 12.5216 12.4281 12.376C12.4281 12.232 12.3953 12.12 12.3297 12.04C12.2641 11.96 12.1769 11.92 12.0681 11.92C11.9641 11.92 11.8745 11.9568 11.7993 12.0304C11.7241 12.104 11.6865 12.2192 11.6865 12.376C11.6865 12.4832 11.7049 12.5712 11.7417 12.64C11.7785 12.7088 11.8257 12.7584 11.8833 12.7888C11.9409 12.8192 12.0025 12.8344 12.0681 12.8344ZM13.4635 11.7256C13.5019 11.7256 13.5371 11.7312 13.5691 11.7424C13.6027 11.752 13.6299 11.7648 13.6507 11.7808L13.5763 11.9464C13.5443 11.9272 13.5059 11.9176 13.4611 11.9176C13.3683 11.9176 13.2923 11.956 13.2331 12.0328C13.1739 12.108 13.1443 12.2184 13.1443 12.364V13H12.9403V11.7544H13.1203C13.1235 11.8344 13.1283 11.9024 13.1347 11.9584C13.2051 11.8032 13.3147 11.7256 13.4635 11.7256ZM14.2838 12.8344C14.4054 12.8344 14.5006 12.78 14.5694 12.6712L14.7302 12.7648C14.6854 12.8528 14.6246 12.9184 14.5478 12.9616C14.4726 13.0048 14.3862 13.0264 14.2886 13.0264C14.1766 13.0264 14.075 12.9992 13.9838 12.9448C13.8926 12.8904 13.8206 12.8144 13.7678 12.7168C13.715 12.6176 13.6886 12.504 13.6886 12.376C13.6886 12.248 13.715 12.1352 13.7678 12.0376C13.8206 11.9384 13.8926 11.8616 13.9838 11.8072C14.075 11.7528 14.1766 11.7256 14.2886 11.7256C14.3862 11.7256 14.4726 11.7472 14.5478 11.7904C14.6246 11.8336 14.6854 11.8992 14.7302 11.9872L14.5694 12.0808C14.5006 11.972 14.4054 11.9176 14.2838 11.9176C14.1718 11.9176 14.0806 11.9584 14.0102 12.04C13.9398 12.1216 13.9046 12.2336 13.9046 12.376C13.9046 12.5184 13.9398 12.6304 14.0102 12.712C14.0806 12.7936 14.1718 12.8344 14.2838 12.8344ZM14.9551 12.3616V12.1888H15.8287V12.3616H14.9551ZM16.4245 12.8104H17.2189V13H16.0981V12.8632L16.6669 12.2296C16.7741 12.1112 16.8477 12.0184 16.8877 11.9512C16.9277 11.8824 16.9477 11.808 16.9477 11.728C16.9477 11.6256 16.9197 11.5464 16.8637 11.4904C16.8077 11.4344 16.7373 11.4064 16.6525 11.4064C16.5661 11.4064 16.4901 11.436 16.4245 11.4952C16.3589 11.5528 16.3117 11.6296 16.2829 11.7256L16.1101 11.6272C16.1453 11.496 16.2149 11.3944 16.3189 11.3224C16.4229 11.2488 16.5389 11.212 16.6669 11.212C16.7597 11.212 16.8445 11.232 16.9213 11.272C16.9981 11.3104 17.0589 11.368 17.1037 11.4448C17.1501 11.52 17.1733 11.6112 17.1733 11.7184C17.1733 11.8224 17.1477 11.9208 17.0965 12.0136C17.0453 12.1064 16.9557 12.2232 16.8277 12.364L16.4245 12.8104ZM18.6021 12.1216C18.6021 12.4192 18.5525 12.6448 18.4533 12.7984C18.3557 12.9504 18.2149 13.0264 18.0309 13.0264C17.8485 13.0264 17.7077 12.9496 17.6085 12.796C17.5109 12.6424 17.4621 12.4176 17.4621 12.1216C17.4621 11.824 17.5109 11.5984 17.6085 11.4448C17.7077 11.2896 17.8485 11.212 18.0309 11.212C18.2149 11.212 18.3557 11.2888 18.4533 11.4424C18.5525 11.596 18.6021 11.8224 18.6021 12.1216ZM17.6901 12.1216C17.6901 12.36 17.7173 12.5376 17.7717 12.6544C17.8277 12.7712 17.9141 12.8296 18.0309 12.8296C18.1477 12.8296 18.2341 12.772 18.2901 12.6568C18.3461 12.54 18.3741 12.3616 18.3741 12.1216C18.3741 11.88 18.3461 11.7008 18.2901 11.584C18.2341 11.4656 18.1477 11.4064 18.0309 11.4064C17.9141 11.4064 17.8277 11.4656 17.7717 11.584C17.7173 11.7008 17.6901 11.88 17.6901 12.1216ZM19.0636 11.0584C19.11 11.0584 19.1476 11.0768 19.1764 11.1136C19.2052 11.1488 19.2196 11.204 19.2196 11.2792C19.2196 11.388 19.1908 11.4776 19.1332 11.548C19.0772 11.6184 19.0028 11.6624 18.91 11.68V11.5672C19.0188 11.5336 19.0764 11.456 19.0828 11.3344C19.078 11.336 19.0708 11.3368 19.0612 11.3368C19.0212 11.3368 18.9892 11.3232 18.9652 11.296C18.9428 11.2688 18.9316 11.236 18.9316 11.1976C18.9316 11.1576 18.9436 11.1248 18.9676 11.0992C18.9932 11.072 19.0252 11.0584 19.0636 11.0584ZM19.4524 11.0584C19.4988 11.0584 19.5364 11.0768 19.5652 11.1136C19.594 11.1488 19.6084 11.204 19.6084 11.2792C19.6084 11.388 19.5796 11.4776 19.522 11.548C19.466 11.6184 19.3916 11.6624 19.2988 11.68V11.5672C19.4076 11.5336 19.4652 11.456 19.4716 11.3344C19.4668 11.336 19.4596 11.3368 19.45 11.3368C19.41 11.3368 19.378 11.3232 19.354 11.296C19.3316 11.2688 19.3204 11.236 19.3204 11.1976C19.3204 11.1576 19.3324 11.1248 19.3564 11.0992C19.382 11.072 19.414 11.0584 19.4524 11.0584ZM20.1406 12.7552C20.187 12.7552 20.2246 12.7736 20.2534 12.8104C20.2822 12.8456 20.2966 12.9008 20.2966 12.976C20.2966 13.0848 20.2678 13.1744 20.2102 13.2448C20.1542 13.3152 20.0798 13.3592 19.987 13.3768V13.264C20.0958 13.2304 20.1534 13.1528 20.1598 13.0312C20.155 13.0328 20.1478 13.0336 20.1382 13.0336C20.0982 13.0336 20.0662 13.02 20.0422 12.9928C20.0198 12.9656 20.0086 12.9328 20.0086 12.8944C20.0086 12.8544 20.0206 12.8216 20.0446 12.796C20.0702 12.7688 20.1022 12.7552 20.1406 12.7552ZM21.4552 11.68C21.4088 11.68 21.3712 11.6624 21.3424 11.6272C21.3136 11.5904 21.2992 11.5344 21.2992 11.4592C21.2992 11.3504 21.3272 11.2608 21.3832 11.1904C21.4408 11.12 21.516 11.076 21.6088 11.0584V11.1712C21.5 11.2048 21.4424 11.2824 21.436 11.404C21.4408 11.4024 21.448 11.4016 21.4576 11.4016C21.4976 11.4016 21.5288 11.4152 21.5512 11.4424C21.5752 11.4696 21.5872 11.5024 21.5872 11.5408C21.5872 11.5792 21.5744 11.612 21.5488 11.6392C21.5248 11.6664 21.4936 11.68 21.4552 11.68ZM21.844 11.68C21.7976 11.68 21.76 11.6624 21.7312 11.6272C21.7024 11.5904 21.688 11.5344 21.688 11.4592C21.688 11.3504 21.716 11.2608 21.772 11.1904C21.8296 11.12 21.9048 11.076 21.9976 11.0584V11.1712C21.8888 11.2048 21.8312 11.2824 21.8248 11.404C21.8296 11.4024 21.8368 11.4016 21.8464 11.4016C21.8864 11.4016 21.9176 11.4152 21.94 11.4424C21.964 11.4696 21.976 11.5024 21.976 11.5408C21.976 11.5792 21.9632 11.612 21.9376 11.6392C21.9136 11.6664 21.8824 11.68 21.844 11.68ZM22.1847 12.376C22.1847 12.2512 22.2119 12.1392 22.2663 12.04C22.3223 11.9408 22.3959 11.864 22.4871 11.8096C22.5783 11.7536 22.6767 11.7256 22.7823 11.7256C22.8879 11.7256 22.9863 11.7528 23.0775 11.8072C23.1687 11.8616 23.2415 11.9384 23.2959 12.0376C23.3503 12.1368 23.3775 12.2496 23.3775 12.376C23.3775 12.5024 23.3503 12.6152 23.2959 12.7144C23.2415 12.812 23.1687 12.8888 23.0775 12.9448C22.9863 12.9992 22.8879 13.0264 22.7823 13.0264C22.6767 13.0264 22.5775 12.9992 22.4847 12.9448C22.3935 12.8888 22.3207 12.812 22.2663 12.7144C22.2119 12.6152 22.1847 12.5024 22.1847 12.376ZM22.4007 12.376C22.4007 12.4704 22.4175 12.552 22.4511 12.6208C22.4847 12.6896 22.5303 12.7424 22.5879 12.7792C22.6455 12.816 22.7103 12.8344 22.7823 12.8344C22.8543 12.8344 22.9191 12.816 22.9767 12.7792C23.0343 12.7424 23.0791 12.6896 23.1111 12.6208C23.1447 12.552 23.1615 12.4704 23.1615 12.376C23.1615 12.2816 23.1447 12.2 23.1111 12.1312C23.0791 12.0624 23.0343 12.0096 22.9767 11.9728C22.9191 11.936 22.8543 11.9176 22.7823 11.9176C22.7103 11.9176 22.6455 11.936 22.5879 11.9728C22.5303 12.0096 22.4847 12.0624 22.4511 12.1312C22.4175 12.2 22.4007 12.2816 22.4007 12.376ZM24.2866 11.7256C24.381 11.7256 24.4698 11.752 24.553 11.8048C24.6378 11.856 24.7058 11.9312 24.757 12.0304C24.8082 12.128 24.8338 12.2432 24.8338 12.376C24.8338 12.5104 24.8082 12.6272 24.757 12.7264C24.7058 12.824 24.6378 12.8984 24.553 12.9496C24.4698 13.0008 24.381 13.0264 24.2866 13.0264C24.2066 13.0264 24.1298 13.008 24.0562 12.9712C23.9842 12.9328 23.925 12.8768 23.8786 12.8032V13.5568H23.6746V11.7544H23.8546C23.8578 11.8344 23.8626 11.9048 23.869 11.9656C23.9138 11.8856 23.973 11.8256 24.0466 11.7856C24.1218 11.7456 24.2018 11.7256 24.2866 11.7256ZM24.2602 12.8344C24.369 12.8344 24.4562 12.7944 24.5218 12.7144C24.5874 12.6344 24.6202 12.5216 24.6202 12.376C24.6202 12.2304 24.5874 12.1176 24.5218 12.0376C24.4562 11.9576 24.369 11.9176 24.2602 11.9176C24.1946 11.9176 24.133 11.9328 24.0754 11.9632C24.0178 11.9936 23.9706 12.0432 23.9338 12.112C23.897 12.1808 23.8786 12.2688 23.8786 12.376C23.8786 12.4832 23.897 12.5712 23.9338 12.64C23.9706 12.7088 24.0178 12.7584 24.0754 12.7888C24.133 12.8192 24.1946 12.8344 24.2602 12.8344ZM25.1761 11.0584C25.2225 11.0584 25.2601 11.0768 25.2889 11.1136C25.3177 11.1488 25.3321 11.204 25.3321 11.2792C25.3321 11.388 25.3033 11.4776 25.2457 11.548C25.1897 11.6184 25.1153 11.6624 25.0225 11.68V11.5672C25.1313 11.5336 25.1889 11.456 25.1953 11.3344C25.1905 11.336 25.1833 11.3368 25.1737 11.3368C25.1337 11.3368 25.1017 11.3232 25.0777 11.296C25.0553 11.2688 25.0441 11.236 25.0441 11.1976C25.0441 11.1576 25.0561 11.1248 25.0801 11.0992C25.1057 11.072 25.1377 11.0584 25.1761 11.0584ZM25.5649 11.0584C25.6113 11.0584 25.6489 11.0768 25.6777 11.1136C25.7065 11.1488 25.7209 11.204 25.7209 11.2792C25.7209 11.388 25.6921 11.4776 25.6345 11.548C25.5785 11.6184 25.5041 11.6624 25.4113 11.68V11.5672C25.5201 11.5336 25.5777 11.456 25.5841 11.3344C25.5793 11.336 25.5721 11.3368 25.5625 11.3368C25.5225 11.3368 25.4905 11.3232 25.4665 11.296C25.4441 11.2688 25.4329 11.236 25.4329 11.1976C25.4329 11.1576 25.4449 11.1248 25.4689 11.0992C25.4945 11.072 25.5265 11.0584 25.5649 11.0584ZM26.2579 12.004C26.2211 12.004 26.1891 11.9904 26.1619 11.9632C26.1363 11.936 26.1235 11.9032 26.1235 11.8648C26.1235 11.8264 26.1363 11.7936 26.1619 11.7664C26.1891 11.7392 26.2211 11.7256 26.2579 11.7256C26.2963 11.7256 26.3283 11.7392 26.3539 11.7664C26.3811 11.7936 26.3947 11.8264 26.3947 11.8648C26.3947 11.9032 26.3811 11.936 26.3539 11.9632C26.3283 11.9904 26.2963 12.004 26.2579 12.004ZM26.2579 13.0264C26.2211 13.0264 26.1891 13.0128 26.1619 12.9856C26.1363 12.9584 26.1235 12.9256 26.1235 12.8872C26.1235 12.8488 26.1363 12.816 26.1619 12.7888C26.1891 12.7616 26.2211 12.748 26.2579 12.748C26.2963 12.748 26.3283 12.7616 26.3539 12.7888C26.3811 12.816 26.3947 12.8488 26.3947 12.8872C26.3947 12.9256 26.3811 12.9584 26.3539 12.9856C26.3283 13.0128 26.2963 13.0264 26.2579 13.0264ZM5.3888 14.68C5.3424 14.68 5.3048 14.6624 5.276 14.6272C5.2472 14.5904 5.2328 14.5344 5.2328 14.4592C5.2328 14.3504 5.2608 14.2608 5.3168 14.1904C5.3744 14.12 5.4496 14.076 5.5424 14.0584V14.1712C5.4336 14.2048 5.376 14.2824 5.3696 14.404C5.3744 14.4024 5.3816 14.4016 5.3912 14.4016C5.4312 14.4016 5.4624 14.4152 5.4848 14.4424C5.5088 14.4696 5.5208 14.5024 5.5208 14.5408C5.5208 14.5792 5.508 14.612 5.4824 14.6392C5.4584 14.6664 5.4272 14.68 5.3888 14.68ZM5.7776 14.68C5.7312 14.68 5.6936 14.6624 5.6648 14.6272C5.636 14.5904 5.6216 14.5344 5.6216 14.4592C5.6216 14.3504 5.6496 14.2608 5.7056 14.1904C5.7632 14.12 5.8384 14.076 5.9312 14.0584V14.1712C5.8224 14.2048 5.7648 14.2824 5.7584 14.404C5.7632 14.4024 5.7704 14.4016 5.78 14.4016C5.82 14.4016 5.8512 14.4152 5.8736 14.4424C5.8976 14.4696 5.9096 14.5024 5.9096 14.5408C5.9096 14.5792 5.8968 14.612 5.8712 14.6392C5.8472 14.6664 5.816 14.68 5.7776 14.68ZM6.9866 15.9592C6.921 16.004 6.837 16.0264 6.7346 16.0264C6.4834 16.0264 6.3578 15.8832 6.3578 15.5968V14.9296H6.1514V14.752H6.3578V14.404H6.5618V14.752H6.9242V14.9296H6.5618V15.5728C6.5618 15.7472 6.6274 15.8344 6.7586 15.8344C6.8162 15.8344 6.8698 15.82 6.9194 15.7912L6.9866 15.9592ZM7.71659 14.7256C7.75499 14.7256 7.79019 14.7312 7.82219 14.7424C7.85579 14.752 7.88299 14.7648 7.90379 14.7808L7.82939 14.9464C7.79739 14.9272 7.75899 14.9176 7.71419 14.9176C7.62139 14.9176 7.54539 14.956 7.48619 15.0328C7.42699 15.108 7.39739 15.2184 7.39739 15.364V16H7.19339V14.7544H7.37339C7.37659 14.8344 7.38139 14.9024 7.38779 14.9584C7.45819 14.8032 7.56779 14.7256 7.71659 14.7256ZM8.46793 14.7256C8.60873 14.7256 8.72393 14.7688 8.81353 14.8552C8.90313 14.94 8.94793 15.0616 8.94793 15.22V16H8.76793C8.76313 15.9184 8.75993 15.8656 8.75833 15.8416C8.71993 15.9024 8.66793 15.9488 8.60233 15.9808C8.53833 16.0112 8.46473 16.0264 8.38153 16.0264C8.30153 16.0264 8.22633 16.012 8.15593 15.9832C8.08713 15.9528 8.03193 15.9088 7.99033 15.8512C7.94873 15.792 7.92793 15.7216 7.92793 15.64C7.92793 15.5168 7.97753 15.42 8.07673 15.3496C8.17753 15.2776 8.30713 15.2416 8.46553 15.2416C8.55513 15.2416 8.64793 15.2536 8.74393 15.2776V15.256C8.74393 15.1392 8.71993 15.0528 8.67193 14.9968C8.62553 14.9392 8.55433 14.9104 8.45833 14.9104C8.38153 14.9104 8.31753 14.9264 8.26633 14.9584C8.21513 14.9904 8.17193 15.0376 8.13673 15.1L7.98073 15.0112C8.01913 14.9248 8.08153 14.856 8.16793 14.8048C8.25593 14.752 8.35593 14.7256 8.46793 14.7256ZM8.74393 15.448C8.64313 15.4224 8.55113 15.4096 8.46793 15.4096C8.36393 15.4096 8.28313 15.4296 8.22553 15.4696C8.16953 15.5096 8.14153 15.5656 8.14153 15.6376C8.14153 15.7048 8.16553 15.7576 8.21353 15.796C8.26153 15.8328 8.32393 15.8512 8.40073 15.8512C8.49513 15.8512 8.57593 15.824 8.64313 15.7696C8.71033 15.7136 8.74393 15.6368 8.74393 15.5392V15.448ZM9.90048 14.7256C10.0333 14.7256 10.1397 14.7696 10.2197 14.8576C10.2997 14.9456 10.3397 15.0704 10.3397 15.232V16H10.1357V15.2896C10.1357 15.1712 10.1117 15.08 10.0637 15.016C10.0173 14.952 9.94768 14.92 9.85488 14.92C9.79408 14.92 9.73648 14.9344 9.68208 14.9632C9.62928 14.9904 9.58608 15.032 9.55248 15.088C9.51888 15.1424 9.50208 15.2104 9.50208 15.292V16H9.29808V14.7544H9.47808C9.48128 14.8344 9.48608 14.9032 9.49248 14.9608C9.53408 14.884 9.59008 14.8256 9.66048 14.7856C9.73248 14.7456 9.81248 14.7256 9.90048 14.7256ZM11.5303 15.6448C11.5303 15.72 11.5103 15.7864 11.4703 15.844C11.4319 15.9016 11.3775 15.9464 11.3071 15.9784C11.2367 16.0104 11.1559 16.0264 11.0647 16.0264C10.9431 16.0264 10.8383 15.9992 10.7503 15.9448C10.6623 15.8904 10.6047 15.816 10.5775 15.7216L10.7335 15.6328C10.7927 15.772 10.9031 15.8416 11.0647 15.8416C11.1431 15.8416 11.2047 15.8256 11.2495 15.7936C11.2943 15.7616 11.3167 15.7176 11.3167 15.6616C11.3167 15.6184 11.3031 15.5832 11.2759 15.556C11.2503 15.5288 11.2175 15.508 11.1775 15.4936C11.1391 15.4776 11.0847 15.4592 11.0143 15.4384C10.9295 15.4144 10.8607 15.3912 10.8079 15.3688C10.7551 15.3464 10.7103 15.3136 10.6735 15.2704C10.6367 15.2256 10.6183 15.1672 10.6183 15.0952C10.6183 15.02 10.6383 14.9544 10.6783 14.8984C10.7199 14.8424 10.7751 14.8 10.8439 14.7712C10.9143 14.7408 10.9911 14.7256 11.0743 14.7256C11.1831 14.7256 11.2767 14.7496 11.3551 14.7976C11.4335 14.8456 11.4863 14.9112 11.5135 14.9944L11.3575 15.0832C11.3319 15.0288 11.2935 14.9872 11.2423 14.9584C11.1927 14.928 11.1335 14.9128 11.0647 14.9128C10.9943 14.9128 10.9375 14.9272 10.8943 14.956C10.8527 14.9832 10.8319 15.0232 10.8319 15.076C10.8319 15.1144 10.8439 15.1456 10.8679 15.1696C10.8935 15.1936 10.9247 15.2128 10.9615 15.2272C10.9983 15.2416 11.0503 15.2584 11.1175 15.2776C11.2055 15.3016 11.2767 15.3256 11.3311 15.3496C11.3855 15.372 11.4319 15.4072 11.4703 15.4552C11.5103 15.5032 11.5303 15.5664 11.5303 15.6448ZM12.2697 14.3392C12.2025 14.3392 12.1513 14.3608 12.1161 14.404C12.0825 14.4472 12.0657 14.5232 12.0657 14.632V14.752H12.3897V14.9272H12.0657V16H11.8617V14.9272H11.6457V14.752H11.8617V14.6272C11.8617 14.4608 11.8993 14.3392 11.9745 14.2624C12.0497 14.1856 12.1449 14.1472 12.2601 14.1472C12.3113 14.1472 12.3577 14.1544 12.3993 14.1688C12.4425 14.1816 12.4769 14.1984 12.5025 14.2192L12.4209 14.3824C12.3761 14.3536 12.3257 14.3392 12.2697 14.3392ZM13.0626 14.7256C13.1698 14.7256 13.2634 14.7512 13.3434 14.8024C13.425 14.852 13.4874 14.92 13.5306 15.0064C13.5738 15.0928 13.5954 15.1888 13.5954 15.2944C13.5954 15.3392 13.5922 15.38 13.5858 15.4168H12.6882C12.6962 15.5592 12.737 15.6656 12.8106 15.736C12.8842 15.8048 12.977 15.8392 13.089 15.8392C13.2282 15.8392 13.329 15.7832 13.3914 15.6712L13.5474 15.76C13.5154 15.8448 13.4554 15.9104 13.3674 15.9568C13.281 16.0032 13.1842 16.0264 13.077 16.0264C12.965 16.0264 12.8626 16.0008 12.7698 15.9496C12.6786 15.8984 12.6058 15.824 12.5514 15.7264C12.4986 15.6272 12.4722 15.5088 12.4722 15.3712C12.4722 15.2384 12.4986 15.1232 12.5514 15.0256C12.6058 14.928 12.6778 14.8536 12.7674 14.8024C12.857 14.7512 12.9554 14.7256 13.0626 14.7256ZM13.0554 14.9128C12.9658 14.9128 12.8874 14.9416 12.8202 14.9992C12.7546 15.0568 12.713 15.1408 12.6954 15.2512H13.3746C13.3698 15.144 13.3386 15.0608 13.281 15.0016C13.2234 14.9424 13.1482 14.9128 13.0554 14.9128ZM14.3799 14.7256C14.4183 14.7256 14.4535 14.7312 14.4855 14.7424C14.5191 14.752 14.5463 14.7648 14.5671 14.7808L14.4927 14.9464C14.4607 14.9272 14.4223 14.9176 14.3775 14.9176C14.2847 14.9176 14.2087 14.956 14.1495 15.0328C14.0903 15.108 14.0607 15.2184 14.0607 15.364V16H13.8567V14.7544H14.0367C14.0399 14.8344 14.0447 14.9024 14.0511 14.9584C14.1215 14.8032 14.2311 14.7256 14.3799 14.7256ZM14.9738 14.0584C15.0202 14.0584 15.0578 14.0768 15.0866 14.1136C15.1154 14.1488 15.1298 14.204 15.1298 14.2792C15.1298 14.388 15.101 14.4776 15.0434 14.548C14.9874 14.6184 14.913 14.6624 14.8202 14.68V14.5672C14.929 14.5336 14.9866 14.456 14.993 14.3344C14.9882 14.336 14.981 14.3368 14.9714 14.3368C14.9314 14.3368 14.8994 14.3232 14.8754 14.296C14.853 14.2688 14.8418 14.236 14.8418 14.1976C14.8418 14.1576 14.8538 14.1248 14.8778 14.0992C14.9034 14.072 14.9354 14.0584 14.9738 14.0584ZM15.3626 14.0584C15.409 14.0584 15.4466 14.0768 15.4754 14.1136C15.5042 14.1488 15.5186 14.204 15.5186 14.2792C15.5186 14.388 15.4898 14.4776 15.4322 14.548C15.3762 14.6184 15.3018 14.6624 15.209 14.68V14.5672C15.3178 14.5336 15.3754 14.456 15.3818 14.3344C15.377 14.336 15.3698 14.3368 15.3602 14.3368C15.3202 14.3368 15.2882 14.3232 15.2642 14.296C15.2418 14.2688 15.2306 14.236 15.2306 14.1976C15.2306 14.1576 15.2426 14.1248 15.2666 14.0992C15.2922 14.072 15.3242 14.0584 15.3626 14.0584ZM16.0508 15.7552C16.0972 15.7552 16.1348 15.7736 16.1636 15.8104C16.1924 15.8456 16.2068 15.9008 16.2068 15.976C16.2068 16.0848 16.178 16.1744 16.1204 16.2448C16.0644 16.3152 15.99 16.3592 15.8972 16.3768V16.264C16.006 16.2304 16.0636 16.1528 16.07 16.0312C16.0652 16.0328 16.058 16.0336 16.0484 16.0336C16.0084 16.0336 15.9764 16.02 15.9524 15.9928C15.93 15.9656 15.9188 15.9328 15.9188 15.8944C15.9188 15.8544 15.9308 15.8216 15.9548 15.796C15.9804 15.7688 16.0124 15.7552 16.0508 15.7552ZM17.3654 14.68C17.319 14.68 17.2814 14.6624 17.2526 14.6272C17.2238 14.5904 17.2094 14.5344 17.2094 14.4592C17.2094 14.3504 17.2374 14.2608 17.2934 14.1904C17.351 14.12 17.4262 14.076 17.519 14.0584V14.1712C17.4102 14.2048 17.3526 14.2824 17.3462 14.404C17.351 14.4024 17.3582 14.4016 17.3678 14.4016C17.4078 14.4016 17.439 14.4152 17.4614 14.4424C17.4854 14.4696 17.4974 14.5024 17.4974 14.5408C17.4974 14.5792 17.4846 14.612 17.459 14.6392C17.435 14.6664 17.4038 14.68 17.3654 14.68ZM17.7542 14.68C17.7078 14.68 17.6702 14.6624 17.6414 14.6272C17.6126 14.5904 17.5982 14.5344 17.5982 14.4592C17.5982 14.3504 17.6262 14.2608 17.6822 14.1904C17.7398 14.12 17.815 14.076 17.9078 14.0584V14.1712C17.799 14.2048 17.7414 14.2824 17.735 14.404C17.7398 14.4024 17.747 14.4016 17.7566 14.4016C17.7966 14.4016 17.8278 14.4152 17.8502 14.4424C17.8742 14.4696 17.8862 14.5024 17.8862 14.5408C17.8862 14.5792 17.8734 14.612 17.8478 14.6392C17.8238 14.6664 17.7926 14.68 17.7542 14.68ZM18.9632 15.9592C18.8976 16.004 18.8136 16.0264 18.7112 16.0264C18.46 16.0264 18.3344 15.8832 18.3344 15.5968V14.9296H18.128V14.752H18.3344V14.404H18.5384V14.752H18.9008V14.9296H18.5384V15.5728C18.5384 15.7472 18.604 15.8344 18.7352 15.8344C18.7928 15.8344 18.8464 15.82 18.896 15.7912L18.9632 15.9592ZM19.2732 14.5312C19.2364 14.5312 19.2044 14.5176 19.1772 14.4904C19.1516 14.4616 19.1388 14.4288 19.1388 14.392C19.1388 14.3552 19.1516 14.3232 19.1772 14.296C19.2044 14.2672 19.2364 14.2528 19.2732 14.2528C19.3116 14.2528 19.3436 14.2664 19.3692 14.2936C19.3964 14.3208 19.41 14.3536 19.41 14.392C19.41 14.4288 19.3964 14.4616 19.3692 14.4904C19.342 14.5176 19.31 14.5312 19.2732 14.5312ZM19.374 16H19.17V14.7544H19.374V16ZM20.2721 15.8344C20.3937 15.8344 20.4889 15.78 20.5577 15.6712L20.7185 15.7648C20.6737 15.8528 20.6129 15.9184 20.5361 15.9616C20.4609 16.0048 20.3745 16.0264 20.2769 16.0264C20.1649 16.0264 20.0633 15.9992 19.9721 15.9448C19.8809 15.8904 19.8089 15.8144 19.7561 15.7168C19.7033 15.6176 19.6769 15.504 19.6769 15.376C19.6769 15.248 19.7033 15.1352 19.7561 15.0376C19.8089 14.9384 19.8809 14.8616 19.9721 14.8072C20.0633 14.7528 20.1649 14.7256 20.2769 14.7256C20.3745 14.7256 20.4609 14.7472 20.5361 14.7904C20.6129 14.8336 20.6737 14.8992 20.7185 14.9872L20.5577 15.0808C20.4889 14.972 20.3937 14.9176 20.2721 14.9176C20.1601 14.9176 20.0689 14.9584 19.9985 15.04C19.9281 15.1216 19.8929 15.2336 19.8929 15.376C19.8929 15.5184 19.9281 15.6304 19.9985 15.712C20.0689 15.7936 20.1601 15.8344 20.2721 15.8344ZM21.4941 15.2704L22.0101 16H21.7533L21.3525 15.4288L21.1365 15.6688V16H20.9325V14.1736H21.1365V15.4072L21.7077 14.7544H21.9573L21.4941 15.2704ZM22.3519 14.0584C22.3983 14.0584 22.4359 14.0768 22.4647 14.1136C22.4935 14.1488 22.5079 14.204 22.5079 14.2792C22.5079 14.388 22.4791 14.4776 22.4215 14.548C22.3655 14.6184 22.2911 14.6624 22.1983 14.68V14.5672C22.3071 14.5336 22.3647 14.456 22.3711 14.3344C22.3663 14.336 22.3591 14.3368 22.3495 14.3368C22.3095 14.3368 22.2775 14.3232 22.2535 14.296C22.2311 14.2688 22.2199 14.236 22.2199 14.1976C22.2199 14.1576 22.2319 14.1248 22.2559 14.0992C22.2815 14.072 22.3135 14.0584 22.3519 14.0584ZM22.7407 14.0584C22.7871 14.0584 22.8247 14.0768 22.8535 14.1136C22.8823 14.1488 22.8967 14.204 22.8967 14.2792C22.8967 14.388 22.8679 14.4776 22.8103 14.548C22.7543 14.6184 22.6799 14.6624 22.5871 14.68V14.5672C22.6959 14.5336 22.7535 14.456 22.7599 14.3344C22.7551 14.336 22.7479 14.3368 22.7383 14.3368C22.6983 14.3368 22.6663 14.3232 22.6423 14.296C22.6199 14.2688 22.6087 14.236 22.6087 14.1976C22.6087 14.1576 22.6207 14.1248 22.6447 14.0992C22.6703 14.072 22.7023 14.0584 22.7407 14.0584ZM23.4337 15.004C23.3969 15.004 23.3649 14.9904 23.3377 14.9632C23.3121 14.936 23.2993 14.9032 23.2993 14.8648C23.2993 14.8264 23.3121 14.7936 23.3377 14.7664C23.3649 14.7392 23.3969 14.7256 23.4337 14.7256C23.4721 14.7256 23.5041 14.7392 23.5297 14.7664C23.5569 14.7936 23.5705 14.8264 23.5705 14.8648C23.5705 14.9032 23.5569 14.936 23.5297 14.9632C23.5041 14.9904 23.4721 15.004 23.4337 15.004ZM23.4337 16.0264C23.3969 16.0264 23.3649 16.0128 23.3377 15.9856C23.3121 15.9584 23.2993 15.9256 23.2993 15.8872C23.2993 15.8488 23.3121 15.816 23.3377 15.7888C23.3649 15.7616 23.3969 15.748 23.4337 15.748C23.4721 15.748 23.5041 15.7616 23.5297 15.7888C23.5569 15.816 23.5705 15.8488 23.5705 15.8872C23.5705 15.9256 23.5569 15.9584 23.5297 15.9856C23.5041 16.0128 23.4721 16.0264 23.4337 16.0264ZM5.3888 18.68C5.3424 18.68 5.3048 18.6624 5.276 18.6272C5.2472 18.5904 5.2328 18.5344 5.2328 18.4592C5.2328 18.3504 5.2608 18.2608 5.3168 18.1904C5.3744 18.12 5.4496 18.076 5.5424 18.0584V18.1712C5.4336 18.2048 5.376 18.2824 5.3696 18.404C5.3744 18.4024 5.3816 18.4016 5.3912 18.4016C5.4312 18.4016 5.4624 18.4152 5.4848 18.4424C5.5088 18.4696 5.5208 18.5024 5.5208 18.5408C5.5208 18.5792 5.508 18.612 5.4824 18.6392C5.4584 18.6664 5.4272 18.68 5.3888 18.68ZM5.7776 18.68C5.7312 18.68 5.6936 18.6624 5.6648 18.6272C5.636 18.5904 5.6216 18.5344 5.6216 18.4592C5.6216 18.3504 5.6496 18.2608 5.7056 18.1904C5.7632 18.12 5.8384 18.076 5.9312 18.0584V18.1712C5.8224 18.2048 5.7648 18.2824 5.7584 18.404C5.7632 18.4024 5.7704 18.4016 5.78 18.4016C5.82 18.4016 5.8512 18.4152 5.8736 18.4424C5.8976 18.4696 5.9096 18.5024 5.9096 18.5408C5.9096 18.5792 5.8968 18.612 5.8712 18.6392C5.8472 18.6664 5.816 18.68 5.7776 18.68ZM6.7298 19.2152L7.0586 18.7544H7.2914L6.8402 19.3736L7.2914 20H7.0418L6.7202 19.5392L6.389 20H6.1514L6.6074 19.3832L6.1514 18.7544H6.4058L6.7298 19.2152ZM7.92277 19.2152L8.25157 18.7544H8.48437L8.03317 19.3736L8.48437 20H8.23477L7.91317 19.5392L7.58197 20H7.34437L7.80037 19.3832L7.34437 18.7544H7.59877L7.92277 19.2152ZM9.11574 19.2152L9.44454 18.7544H9.67734L9.22614 19.3736L9.67734 20H9.42774L9.10614 19.5392L8.77494 20H8.53734L8.99334 19.3832L8.53734 18.7544H8.79174L9.11574 19.2152ZM10.3087 19.2152L10.6375 18.7544H10.8703L10.4191 19.3736L10.8703 20H10.6207L10.2991 19.5392L9.96791 20H9.73031L10.1863 19.3832L9.73031 18.7544H9.98471L10.3087 19.2152ZM11.2449 18.0584C11.2913 18.0584 11.3289 18.0768 11.3577 18.1136C11.3865 18.1488 11.4009 18.204 11.4009 18.2792C11.4009 18.388 11.3721 18.4776 11.3145 18.548C11.2585 18.6184 11.1841 18.6624 11.0913 18.68V18.5672C11.2001 18.5336 11.2577 18.456 11.2641 18.3344C11.2593 18.336 11.2521 18.3368 11.2425 18.3368C11.2025 18.3368 11.1705 18.3232 11.1465 18.296C11.1241 18.2688 11.1129 18.236 11.1129 18.1976C11.1129 18.1576 11.1249 18.1248 11.1489 18.0992C11.1745 18.072 11.2065 18.0584 11.2449 18.0584ZM11.6337 18.0584C11.6801 18.0584 11.7177 18.0768 11.7465 18.1136C11.7753 18.1488 11.7897 18.204 11.7897 18.2792C11.7897 18.388 11.7609 18.4776 11.7033 18.548C11.6473 18.6184 11.5729 18.6624 11.4801 18.68V18.5672C11.5889 18.5336 11.6465 18.456 11.6529 18.3344C11.6481 18.336 11.6409 18.3368 11.6313 18.3368C11.5913 18.3368 11.5593 18.3232 11.5353 18.296C11.5129 18.2688 11.5017 18.236 11.5017 18.1976C11.5017 18.1576 11.5137 18.1248 11.5377 18.0992C11.5633 18.072 11.5953 18.0584 11.6337 18.0584ZM12.3219 19.7552C12.3683 19.7552 12.4059 19.7736 12.4347 19.8104C12.4635 19.8456 12.4779 19.9008 12.4779 19.976C12.4779 20.0848 12.4491 20.1744 12.3915 20.2448C12.3355 20.3152 12.2611 20.3592 12.1683 20.3768V20.264C12.2771 20.2304 12.3347 20.1528 12.3411 20.0312C12.3363 20.0328 12.3291 20.0336 12.3195 20.0336C12.2795 20.0336 12.2475 20.02 12.2235 19.9928C12.2011 19.9656 12.1899 19.9328 12.1899 19.8944C12.1899 19.8544 12.2019 19.8216 12.2259 19.796C12.2515 19.7688 12.2835 19.7552 12.3219 19.7552ZM13.6365 18.68C13.5901 18.68 13.5525 18.6624 13.5237 18.6272C13.4949 18.5904 13.4805 18.5344 13.4805 18.4592C13.4805 18.3504 13.5085 18.2608 13.5645 18.1904C13.6221 18.12 13.6973 18.076 13.7901 18.0584V18.1712C13.6813 18.2048 13.6237 18.2824 13.6173 18.404C13.6221 18.4024 13.6293 18.4016 13.6389 18.4016C13.6789 18.4016 13.7101 18.4152 13.7325 18.4424C13.7565 18.4696 13.7685 18.5024 13.7685 18.5408C13.7685 18.5792 13.7557 18.612 13.7301 18.6392C13.7061 18.6664 13.6749 18.68 13.6365 18.68ZM14.0253 18.68C13.9789 18.68 13.9413 18.6624 13.9125 18.6272C13.8837 18.5904 13.8693 18.5344 13.8693 18.4592C13.8693 18.3504 13.8973 18.2608 13.9533 18.1904C14.0109 18.12 14.0861 18.076 14.1789 18.0584V18.1712C14.0701 18.2048 14.0125 18.2824 14.0061 18.404C14.0109 18.4024 14.0181 18.4016 14.0277 18.4016C14.0677 18.4016 14.0989 18.4152 14.1213 18.4424C14.1453 18.4696 14.1573 18.5024 14.1573 18.5408C14.1573 18.5792 14.1445 18.612 14.1189 18.6392C14.0949 18.6664 14.0637 18.68 14.0253 18.68ZM14.9015 18.7256C15.0423 18.7256 15.1575 18.7688 15.2471 18.8552C15.3367 18.94 15.3815 19.0616 15.3815 19.22V20H15.2015C15.1967 19.9184 15.1935 19.8656 15.1919 19.8416C15.1535 19.9024 15.1015 19.9488 15.0359 19.9808C14.9719 20.0112 14.8983 20.0264 14.8151 20.0264C14.7351 20.0264 14.6599 20.012 14.5895 19.9832C14.5207 19.9528 14.4655 19.9088 14.4239 19.8512C14.3823 19.792 14.3615 19.7216 14.3615 19.64C14.3615 19.5168 14.4111 19.42 14.5103 19.3496C14.6111 19.2776 14.7407 19.2416 14.8991 19.2416C14.9887 19.2416 15.0815 19.2536 15.1775 19.2776V19.256C15.1775 19.1392 15.1535 19.0528 15.1055 18.9968C15.0591 18.9392 14.9879 18.9104 14.8919 18.9104C14.8151 18.9104 14.7511 18.9264 14.6999 18.9584C14.6487 18.9904 14.6055 19.0376 14.5703 19.1L14.4143 19.0112C14.4527 18.9248 14.5151 18.856 14.6015 18.8048C14.6895 18.752 14.7895 18.7256 14.9015 18.7256ZM15.1775 19.448C15.0767 19.4224 14.9847 19.4096 14.9015 19.4096C14.7975 19.4096 14.7167 19.4296 14.6591 19.4696C14.6031 19.5096 14.5751 19.5656 14.5751 19.6376C14.5751 19.7048 14.5991 19.7576 14.6471 19.796C14.6951 19.8328 14.7575 19.8512 14.8343 19.8512C14.9287 19.8512 15.0095 19.824 15.0767 19.7696C15.1439 19.7136 15.1775 19.6368 15.1775 19.5392V19.448ZM17.0325 18.7256C17.1509 18.7256 17.2469 18.7688 17.3205 18.8552C17.3941 18.94 17.4309 19.0624 17.4309 19.2224V20H17.2293V19.2896C17.2293 19.1696 17.2085 19.0784 17.1669 19.016C17.1253 18.952 17.0637 18.92 16.9821 18.92C16.8989 18.92 16.8277 18.952 16.7685 19.016C16.7109 19.08 16.6821 19.172 16.6821 19.292V20H16.4805V19.2896C16.4805 19.1712 16.4597 19.08 16.4181 19.016C16.3765 18.952 16.3157 18.92 16.2357 18.92C16.1525 18.92 16.0813 18.9528 16.0221 19.0184C15.9645 19.0824 15.9357 19.1736 15.9357 19.292V20H15.7317V18.7544H15.9117C15.9133 18.8088 15.9173 18.872 15.9237 18.944C15.9653 18.872 16.0173 18.8176 16.0797 18.7808C16.1437 18.744 16.2133 18.7256 16.2885 18.7256C16.3717 18.7256 16.4445 18.748 16.5069 18.7928C16.5709 18.836 16.6173 18.9008 16.6461 18.9872C16.6861 18.8992 16.7397 18.8336 16.8069 18.7904C16.8757 18.7472 16.9509 18.7256 17.0325 18.7256ZM18.4569 19.9592C18.3913 20.004 18.3073 20.0264 18.2049 20.0264C17.9537 20.0264 17.8281 19.8832 17.8281 19.5968V18.9296H17.6217V18.752H17.8281V18.404H18.0321V18.752H18.3945V18.9296H18.0321V19.5728C18.0321 19.7472 18.0977 19.8344 18.2289 19.8344C18.2865 19.8344 18.3401 19.82 18.3897 19.7912L18.4569 19.9592ZM18.8269 18.0584C18.8733 18.0584 18.9109 18.0768 18.9397 18.1136C18.9685 18.1488 18.9829 18.204 18.9829 18.2792C18.9829 18.388 18.9541 18.4776 18.8965 18.548C18.8405 18.6184 18.7661 18.6624 18.6733 18.68V18.5672C18.7821 18.5336 18.8397 18.456 18.8461 18.3344C18.8413 18.336 18.8341 18.3368 18.8245 18.3368C18.7845 18.3368 18.7525 18.3232 18.7285 18.296C18.7061 18.2688 18.6949 18.236 18.6949 18.1976C18.6949 18.1576 18.7069 18.1248 18.7309 18.0992C18.7565 18.072 18.7885 18.0584 18.8269 18.0584ZM19.2157 18.0584C19.2621 18.0584 19.2997 18.0768 19.3285 18.1136C19.3573 18.1488 19.3717 18.204 19.3717 18.2792C19.3717 18.388 19.3429 18.4776 19.2853 18.548C19.2293 18.6184 19.1549 18.6624 19.0621 18.68V18.5672C19.1709 18.5336 19.2285 18.456 19.2349 18.3344C19.2301 18.336 19.2229 18.3368 19.2133 18.3368C19.1733 18.3368 19.1413 18.3232 19.1173 18.296C19.0949 18.2688 19.0837 18.236 19.0837 18.1976C19.0837 18.1576 19.0957 18.1248 19.1197 18.0992C19.1453 18.072 19.1773 18.0584 19.2157 18.0584ZM19.9087 19.004C19.8719 19.004 19.8399 18.9904 19.8127 18.9632C19.7871 18.936 19.7743 18.9032 19.7743 18.8648C19.7743 18.8264 19.7871 18.7936 19.8127 18.7664C19.8399 18.7392 19.8719 18.7256 19.9087 18.7256C19.9471 18.7256 19.9791 18.7392 20.0047 18.7664C20.0319 18.7936 20.0455 18.8264 20.0455 18.8648C20.0455 18.9032 20.0319 18.936 20.0047 18.9632C19.9791 18.9904 19.9471 19.004 19.9087 19.004ZM19.9087 20.0264C19.8719 20.0264 19.8399 20.0128 19.8127 19.9856C19.7871 19.9584 19.7743 19.9256 19.7743 19.8872C19.7743 19.8488 19.7871 19.816 19.8127 19.7888C19.8399 19.7616 19.8719 19.748 19.9087 19.748C19.9471 19.748 19.9791 19.7616 20.0047 19.7888C20.0319 19.816 20.0455 19.8488 20.0455 19.8872C20.0455 19.9256 20.0319 19.9584 20.0047 19.9856C19.9791 20.0128 19.9471 20.0264 19.9087 20.0264ZM21.2513 18.68C21.2049 18.68 21.1673 18.6624 21.1385 18.6272C21.1097 18.5904 21.0953 18.5344 21.0953 18.4592C21.0953 18.3504 21.1233 18.2608 21.1793 18.1904C21.2369 18.12 21.3121 18.076 21.4049 18.0584V18.1712C21.2961 18.2048 21.2385 18.2824 21.2321 18.404C21.2369 18.4024 21.2441 18.4016 21.2537 18.4016C21.2937 18.4016 21.3249 18.4152 21.3473 18.4424C21.3713 18.4696 21.3833 18.5024 21.3833 18.5408C21.3833 18.5792 21.3705 18.612 21.3449 18.6392C21.3209 18.6664 21.2897 18.68 21.2513 18.68ZM21.6401 18.68C21.5937 18.68 21.5561 18.6624 21.5273 18.6272C21.4985 18.5904 21.4841 18.5344 21.4841 18.4592C21.4841 18.3504 21.5121 18.2608 21.5681 18.1904C21.6257 18.12 21.7009 18.076 21.7937 18.0584V18.1712C21.6849 18.2048 21.6273 18.2824 21.6209 18.404C21.6257 18.4024 21.6329 18.4016 21.6425 18.4016C21.6825 18.4016 21.7137 18.4152 21.7361 18.4424C21.7601 18.4696 21.7721 18.5024 21.7721 18.5408C21.7721 18.5792 21.7593 18.612 21.7337 18.6392C21.7097 18.6664 21.6785 18.68 21.6401 18.68ZM22.9139 19.0616C23.0195 19.0952 23.0979 19.1496 23.1491 19.2248C23.2019 19.3 23.2283 19.3928 23.2283 19.5032C23.2283 19.612 23.2027 19.7064 23.1515 19.7864C23.1003 19.8648 23.0323 19.9248 22.9475 19.9664C22.8627 20.0064 22.7699 20.0264 22.6691 20.0264C22.5411 20.0264 22.4227 19.9936 22.3139 19.928C22.2067 19.8624 22.1347 19.7664 22.0979 19.64L22.2707 19.5416C22.3011 19.6376 22.3531 19.7104 22.4267 19.76C22.5019 19.808 22.5827 19.832 22.6691 19.832C22.7635 19.832 22.8419 19.8032 22.9043 19.7456C22.9683 19.6864 23.0003 19.6048 23.0003 19.5008C23.0003 19.2864 22.8539 19.1792 22.5611 19.1792H22.4867L22.4891 18.9872H22.5731C22.6915 18.9872 22.7811 18.9584 22.8419 18.9008C22.9043 18.8432 22.9355 18.7696 22.9355 18.68C22.9355 18.5952 22.9091 18.5288 22.8563 18.4808C22.8035 18.4328 22.7355 18.4088 22.6523 18.4088C22.5659 18.4088 22.4923 18.4344 22.4315 18.4856C22.3723 18.5368 22.3267 18.6104 22.2947 18.7064L22.1219 18.608C22.1603 18.4784 22.2275 18.3808 22.3235 18.3152C22.4211 18.248 22.5347 18.2144 22.6643 18.2144C22.8147 18.2144 22.9355 18.2568 23.0267 18.3416C23.1179 18.4264 23.1635 18.5376 23.1635 18.6752C23.1635 18.7632 23.1427 18.8408 23.1011 18.908C23.0611 18.9752 22.9987 19.0264 22.9139 19.0616ZM24.6115 19.1216C24.6115 19.4192 24.5619 19.6448 24.4627 19.7984C24.3651 19.9504 24.2243 20.0264 24.0403 20.0264C23.8579 20.0264 23.7171 19.9496 23.6179 19.796C23.5203 19.6424 23.4715 19.4176 23.4715 19.1216C23.4715 18.824 23.5203 18.5984 23.6179 18.4448C23.7171 18.2896 23.8579 18.212 24.0403 18.212C24.2243 18.212 24.3651 18.2888 24.4627 18.4424C24.5619 18.596 24.6115 18.8224 24.6115 19.1216ZM23.6995 19.1216C23.6995 19.36 23.7267 19.5376 23.7811 19.6544C23.8371 19.7712 23.9235 19.8296 24.0403 19.8296C24.1571 19.8296 24.2435 19.772 24.2995 19.6568C24.3555 19.54 24.3835 19.3616 24.3835 19.1216C24.3835 18.88 24.3555 18.7008 24.2995 18.584C24.2435 18.4656 24.1571 18.4064 24.0403 18.4064C23.9235 18.4064 23.8371 18.4656 23.7811 18.584C23.7267 18.7008 23.6995 18.88 23.6995 19.1216ZM25.073 18.0584C25.1194 18.0584 25.157 18.0768 25.1858 18.1136C25.2146 18.1488 25.229 18.204 25.229 18.2792C25.229 18.388 25.2002 18.4776 25.1426 18.548C25.0866 18.6184 25.0122 18.6624 24.9194 18.68V18.5672C25.0282 18.5336 25.0858 18.456 25.0922 18.3344C25.0874 18.336 25.0802 18.3368 25.0706 18.3368C25.0306 18.3368 24.9986 18.3232 24.9746 18.296C24.9522 18.2688 24.941 18.236 24.941 18.1976C24.941 18.1576 24.953 18.1248 24.977 18.0992C25.0026 18.072 25.0346 18.0584 25.073 18.0584ZM25.4618 18.0584C25.5082 18.0584 25.5458 18.0768 25.5746 18.1136C25.6034 18.1488 25.6178 18.204 25.6178 18.2792C25.6178 18.388 25.589 18.4776 25.5314 18.548C25.4754 18.6184 25.401 18.6624 25.3082 18.68V18.5672C25.417 18.5336 25.4746 18.456 25.481 18.3344C25.4762 18.336 25.469 18.3368 25.4594 18.3368C25.4194 18.3368 25.3874 18.3232 25.3634 18.296C25.341 18.2688 25.3298 18.236 25.3298 18.1976C25.3298 18.1576 25.3418 18.1248 25.3658 18.0992C25.3914 18.072 25.4234 18.0584 25.4618 18.0584ZM26.1716 18.4832C26.1716 18.3888 26.1564 18.3232 26.126 18.2864C26.0956 18.2496 26.0444 18.2312 25.9724 18.2312H25.9028V18.044H25.958C26.102 18.044 26.2092 18.0744 26.2796 18.1352C26.35 18.196 26.3852 18.3048 26.3852 18.4616V18.752C26.3852 18.8288 26.3932 18.888 26.4092 18.9296C26.4252 18.9712 26.4508 19.0008 26.486 19.0184C26.5228 19.036 26.574 19.0448 26.6396 19.0448V19.2656C26.5756 19.2656 26.5252 19.2744 26.4884 19.292C26.4532 19.308 26.4268 19.3368 26.4092 19.3784C26.3932 19.42 26.3852 19.48 26.3852 19.5584V19.8488C26.3852 20.0056 26.35 20.1144 26.2796 20.1752C26.2092 20.236 26.102 20.2664 25.958 20.2664H25.9028V20.0792H25.9724C26.0444 20.0792 26.0956 20.0608 26.126 20.024C26.1564 19.9872 26.1716 19.9216 26.1716 19.8272V19.5392C26.1716 19.4256 26.19 19.3384 26.2268 19.2776C26.2636 19.2152 26.3204 19.1744 26.3972 19.1552C26.3204 19.136 26.2636 19.096 26.2268 19.0352C26.19 18.9728 26.1716 18.8848 26.1716 18.7712V18.4832Z" fill="black"/>
</svg>
