<?xml version="1.0" encoding="utf-8"?>
<!-- Generator: Adobe Illustrator 25.0.0, SVG Export Plug-In . SVG Version: 6.00 Build 0)  -->
<svg version="1.1" id="图层_1" xmlns="http://www.w3.org/2000/svg" xmlns:xlink="http://www.w3.org/1999/xlink" x="0px" y="0px"
	 viewBox="0 0 32 32" style="enable-background:new 0 0 32 32;" xml:space="preserve">
<style type="text/css">
	.st0{fill:#F0F0F0;}
	.st1{fill:#929292;}
</style>
<path class="st0" d="M4,0h24c2.2,0,4,1.8,4,4v24c0,2.2-1.8,4-4,4H4c-2.2,0-4-1.8-4-4V4C0,1.8,1.8,0,4,0z"/>
<g>
	<path class="st1" d="M5.4,11.8h2l3.2,6.3h0l0.9-6.3h1.5l-1.2,8.5H10l-3.3-6.5h0l-0.9,6.5H4.3L5.4,11.8z M15,11.8h5.5l-0.2,1.4h-4
		L16,15.4h3.7l-0.2,1.4h-3.7l-0.5,3.5h-1.5L15,11.8z M23.4,13.1h-2.6l0.2-1.4h6.7l-0.2,1.4h-2.6l-1,7.1h-1.5L23.4,13.1z"/>
</g>
</svg>
