<svg width="128" height="128" viewBox="0 0 128 128" fill="none" xmlns="http://www.w3.org/2000/svg">
<circle cx="64" cy="64" r="64" fill="black"/>
<path d="M116.5 71C116.5 71.4955 116.233 72.0457 115.576 72.6462C114.92 73.2457 113.923 73.8476 112.594 74.4351C109.938 75.6087 106.064 76.6776 101.238 77.5796C91.5953 79.382 78.2525 80.5 63.5 80.5C48.7475 80.5 35.4047 79.382 25.7617 77.5796C20.936 76.6776 17.0621 75.6087 14.4064 74.4351C13.0768 73.8476 12.0805 73.2457 11.4241 72.6462C10.7668 72.0457 10.5 71.4955 10.5 71C10.5 70.5045 10.7668 69.9543 11.4241 69.3538C12.0805 68.7543 13.0768 68.1524 14.4064 67.5649C17.0621 66.3913 20.936 65.3224 25.7617 64.4204C35.4047 62.618 48.7475 61.5 63.5 61.5C78.2525 61.5 91.5953 62.618 101.238 64.4204C106.064 65.3224 109.938 66.3913 112.594 67.5649C113.923 68.1524 114.92 68.7543 115.576 69.3538C116.233 69.9543 116.5 70.5045 116.5 71Z" stroke="white"/>
<rect x="19" y="52" width="84" height="21" fill="black"/>
<path d="M36.4727 45.4731L46.5418 64.3873L50.6727 45.4731H56.0727L49.8251 74.0788H45.1051L35.0045 55.1256L30.8651 74.0788H25.5451L31.7927 45.4731H36.4727ZM62.1833 45.4731H81.2633L80.1794 50.4361H66.8994L65.3033 57.7439H77.1833L76.1079 62.6678H64.2279L61.7358 74.0788H55.9358L62.1833 45.4731ZM83.6811 45.4731H107.281L106.18 50.5143H97.3001L92.1536 74.0788H86.3136L91.4601 50.5143H82.5801L83.6811 45.4731Z" fill="white"/>
<circle cx="18" cy="66" r="2" fill="white"/>
<circle cx="104" cy="65" r="2" fill="white"/>
</svg>
