<svg width="24" height="24" viewBox="0 0 24 24" fill="none" xmlns="http://www.w3.org/2000/svg">
<circle cx="12" cy="12" r="12" fill="#F9F9F9"/>
<path fill-rule="evenodd" clip-rule="evenodd" d="M9.95039 14.9264H13.5412C13.8118 14.9264 14.0362 14.6997 14.0362 14.4264C14.0362 14.153 13.8118 13.933 13.5412 13.933H9.95039C9.67977 13.933 9.45534 14.153 9.45534 14.4264C9.45534 14.6997 9.67977 14.9264 9.95039 14.9264ZM12.1814 10.5997H9.95039C9.67977 10.5997 9.45534 10.8264 9.45534 11.0997C9.45534 11.373 9.67977 11.593 9.95039 11.593H12.1814C12.452 11.593 12.6765 11.373 12.6765 11.0997C12.6765 10.8264 12.452 10.5997 12.1814 10.5997ZM16.892 10.0167C17.0471 10.015 17.2161 10.013 17.3696 10.013C17.5346 10.013 17.6666 10.1463 17.6666 10.313V15.673C17.6666 17.3263 16.3399 18.6663 14.7029 18.6663H9.44876C7.73259 18.6663 6.33325 17.2597 6.33325 15.5263V8.33967C6.33325 6.68634 7.66659 5.33301 9.31015 5.33301H12.8349C13.0065 5.33301 13.1385 5.47301 13.1385 5.63967V7.78634C13.1385 9.00634 14.1352 10.0063 15.3432 10.013C15.6253 10.013 15.874 10.0151 16.0917 10.017C16.2611 10.0184 16.4116 10.0197 16.5445 10.0197C16.6384 10.0197 16.7602 10.0183 16.892 10.0167ZM17.074 9.04375C16.5314 9.04575 15.8918 9.04375 15.4318 9.03909C14.7017 9.03909 14.1004 8.43175 14.1004 7.69442V5.93709C14.1004 5.64975 14.4456 5.50709 14.643 5.71442C15.0002 6.08958 15.4911 6.60528 15.9798 7.11861C16.4672 7.6306 16.9523 8.14023 17.3004 8.50575C17.4931 8.70775 17.3519 9.04309 17.074 9.04375Z" fill="#DBDBDB"/>
</svg>
