<svg width="60" height="60" viewBox="0 0 60 60" fill="none" xmlns="http://www.w3.org/2000/svg">
<path fill-rule="evenodd" clip-rule="evenodd" d="M43.5853 3.17822C44.16 2.65579 45.0494 2.69814 45.5718 3.27281L55.0687 13.7194C55.2256 13.892 55.3125 14.1168 55.3125 14.35V39.375C55.3125 40.3813 55.0222 41.8594 54.11 43.1264C53.1461 44.465 51.5521 45.4688 49.2188 45.4688C46.8854 45.4688 45.2914 44.465 44.3275 43.1264C43.4153 41.8594 43.125 40.3813 43.125 39.375V18.75C43.125 18.2322 42.7053 17.8125 42.1875 17.8125H36.5625C35.7858 17.8125 35.1562 17.1829 35.1562 16.4063C35.1562 15.6296 35.7858 15 36.5625 15H45C45.5178 15 45.9375 15.4197 45.9375 15.9375V39.375C45.9375 39.9312 46.1159 40.7969 46.61 41.483C47.0524 42.0975 47.8021 42.6563 49.2188 42.6563C50.6354 42.6563 51.3851 42.0975 51.8275 41.483C52.3216 40.7969 52.5 39.9312 52.5 39.375V15.4374C52.5 15.2042 52.4131 14.9793 52.2562 14.8067L43.4907 5.16471C42.9683 4.59003 43.0106 3.70065 43.5853 3.17822Z" fill="white" stroke="#383838" stroke-width="0.5625" stroke-linecap="round"/>
<path d="M9.375 9.375C9.375 7.30393 11.0539 5.625 13.125 5.625H35.625C37.6961 5.625 39.375 7.30393 39.375 9.375V51.5625H9.375V9.375Z" fill="white" stroke="#383838" stroke-width="0.65625"/>
<path d="M12.1875 9.375C12.1875 7.30393 13.8664 5.625 15.9375 5.625H35.625C37.6961 5.625 39.375 7.30393 39.375 9.375V51.5625H12.1875V9.375Z" fill="white" stroke="#383838" stroke-width="0.65625"/>
<path d="M12.1875 44.0625H39.375V51.5625H12.1875V44.0625Z" fill="white" stroke="#383838" stroke-width="0.65625"/>
<rect width="50.625" height="3.75" rx="1.875" transform="matrix(1 0 0 -1 4.6875 55.3125)" fill="white" stroke="#383838" stroke-width="0.65625"/>
<rect x="20.9531" y="15.3281" width="10.5938" height="10.5938" rx="2.48438" fill="white" stroke="#383838" stroke-width="0.65625"/>
</svg>
