<svg width="60" height="60" viewBox="0 0 60 60" fill="none" xmlns="http://www.w3.org/2000/svg">
<path d="M55.5644 30.6702L55.2561 30.7823L55.5644 30.6701L52.0953 21.13C51.9134 20.6298 51.4381 20.2969 50.9059 20.2969H9.09415C8.56195 20.2969 8.0866 20.6298 7.90472 21.13L4.43557 30.6701C4.38516 30.8088 4.35938 30.9552 4.35938 31.1027V57.1875C4.35938 57.8865 4.92601 58.4531 5.625 58.4531H54.375C55.074 58.4531 55.6406 57.8865 55.6406 57.1875V31.1027C55.6406 30.9551 55.6148 30.8088 55.5644 30.6702Z" fill="white" stroke="#383838" stroke-width="0.65625"/>
<mask id="mask0_13829_193597" style="mask-type:alpha" maskUnits="userSpaceOnUse" x="4" y="20" width="52" height="39">
<path d="M8.21309 21.2421C8.34782 20.8716 8.69993 20.625 9.09415 20.625H50.9059C51.3001 20.625 51.6522 20.8716 51.7869 21.2421L55.2561 30.7823C55.2934 30.885 55.3125 30.9934 55.3125 31.1027V57.1875C55.3125 57.7053 54.8928 58.125 54.375 58.125H5.625C5.10723 58.125 4.6875 57.7053 4.6875 57.1875V31.1027C4.6875 30.9934 4.7066 30.885 4.74394 30.7823L8.21309 21.2421Z" fill="#F9F9F9"/>
</mask>
<g mask="url(#mask0_13829_193597)">
<path d="M55.5644 57.8577L55.2561 57.9698L55.5644 57.8576L52.0953 48.3175C51.9134 47.8173 51.4381 47.4844 50.9059 47.4844H9.09415C8.56195 47.4844 8.0866 47.8173 7.90472 48.3175L4.43557 57.8576C4.38516 57.9963 4.35938 58.1427 4.35938 58.2902V84.375C4.35938 85.074 4.92601 85.6406 5.625 85.6406H54.375C55.074 85.6406 55.6406 85.074 55.6406 84.375V58.2902C55.6406 58.1426 55.6148 57.9963 55.5644 57.8577Z" fill="white" stroke="#383838" stroke-width="0.65625"/>
<path d="M3.28125 31.4062H56.7188" stroke="#383838" stroke-width="0.65625"/>
</g>
<path d="M14.8225 24.1476C14.9268 23.7303 15.3018 23.4375 15.732 23.4375H44.268C44.6982 23.4375 45.0732 23.7303 45.1775 24.1476L45.6463 26.0226C45.7942 26.6143 45.3467 27.1875 44.7368 27.1875H15.2632C14.6533 27.1875 14.2058 26.6143 14.3537 26.0226L14.8225 24.1476Z" fill="white" stroke="#383838" stroke-width="0.65625" stroke-linejoin="round"/>
<circle cx="30" cy="14.0625" r="11.8594" fill="white" stroke="#383838" stroke-width="0.65625"/>
<path d="M17.8125 45.6094H17.4844V45.9375V49.6875C17.4844 50.494 17.8842 51.2314 18.5418 51.8693C19.1984 52.5062 20.1314 53.0646 21.2576 53.5266C23.5115 54.4513 26.6026 55.0156 30 55.0156C33.3974 55.0156 36.4885 54.4513 38.7424 53.5266C39.8686 53.0646 40.8016 52.5062 41.4582 51.8693C42.1158 51.2314 42.5156 50.494 42.5156 49.6875V45.9375V45.6094H42.1875H17.8125Z" fill="white" stroke="#383838" stroke-width="0.65625"/>
<path d="M30 50.6406C33.3974 50.6406 36.4885 50.0763 38.7424 49.1516C39.8686 48.6896 40.8016 48.1311 41.4582 47.4943C42.1158 46.8564 42.5156 46.119 42.5156 45.3125C42.5156 44.506 42.1158 43.7686 41.4582 43.1307C40.8016 42.4939 39.8686 41.9354 38.7424 41.4734C36.4885 40.5487 33.3974 39.9844 30 39.9844C26.6026 39.9844 23.5115 40.5487 21.2576 41.4734C20.1314 41.9354 19.1984 42.4939 18.5418 43.1307C17.8842 43.7686 17.4844 44.506 17.4844 45.3125C17.4844 46.119 17.8842 46.8564 18.5418 47.4943C19.1984 48.1311 20.1314 48.6896 21.2576 49.1516C23.5115 50.0763 26.6026 50.6406 30 50.6406Z" fill="white" stroke="#383838" stroke-width="0.65625"/>
</svg>
