<svg width="301" height="140" viewBox="0 0 301 140" fill="none" xmlns="http://www.w3.org/2000/svg">
<g clip-path="url(#clip0_2749_18398)">
<path d="M40.6518 64.338L102.163 6.47543C108.025 0.961496 116.3 -1.22641 124.136 0.670468L186.542 15C194.248 16.8605 204.8 22.8042 209.836 28.9002L253.042 82.5C260.362 92.7639 258.042 110 241.542 115.5L165.947 137.069C158.413 139.371 150.524 140.327 142.657 139.896L84.5988 136.69C77.269 136.222 70.5662 132.413 66.439 126.369L38.3636 85.2556C33.8654 78.6711 34.8319 69.8104 40.6518 64.338Z" fill="#0D0B0C"/>
<mask id="mask0_2749_18398" style="mask-type:alpha" maskUnits="userSpaceOnUse" x="35" y="0" width="222" height="140">
<path d="M40.6518 64.338L102.163 6.47543C108.025 0.961496 116.3 -1.22641 124.136 0.670468L190.203 16.6406C197.909 18.5011 204.8 22.8042 209.836 28.9002L252.542 80.5C259.862 90.7639 258.015 109.032 245.889 112.628L165.947 137.069C158.413 139.371 150.524 140.327 142.657 139.896L84.5988 136.69C77.269 136.222 70.5662 132.413 66.439 126.369L38.3636 85.2556C33.8654 78.6711 34.8319 69.8104 40.6518 64.338Z" fill="#0D0B0C"/>
</mask>
<g mask="url(#mask0_2749_18398)">
<path d="M106.102 115.262C89.4711 120.336 77.7223 146.051 81.7129 159.131C83.2798 164.267 86.4125 164.604 89.2948 163.725C95.3933 161.864 98.3638 155.182 99.8252 150.173C99.7741 151.199 99.8718 152.179 100.142 153.065C100.886 155.504 102.821 156.812 105.592 155.966C109.4 154.804 112.449 150.24 113.462 146.013C113.472 146.575 113.546 147.078 113.681 147.52C114.199 149.22 115.486 149.998 117.445 149.4C123.618 147.517 126.501 134.724 123.593 125.191C121.327 117.764 115.562 112.376 106.102 115.262L106.102 115.262Z" fill="#FFFDF8"/>
<path d="M103.189 129.52C103.173 128.01 104.162 126.675 105.599 126.408C107.219 126.109 108.797 127.281 109.119 129.028" fill="#FFFDF8"/>
<path d="M103.189 129.52C103.173 128.01 104.162 126.675 105.599 126.408C107.219 126.109 108.797 127.281 109.119 129.028" stroke="#1C1C1C" stroke-width="1.45165" stroke-miterlimit="10" stroke-linecap="round"/>
<path d="M111.709 126.921C111.693 125.411 112.682 124.076 114.12 123.809C115.738 123.51 117.316 124.682 117.638 126.429" fill="#FFFDF8"/>
<path d="M111.709 126.921C111.693 125.411 112.682 124.076 114.12 123.809C115.738 123.51 117.316 124.682 117.638 126.429" stroke="#1C1C1C" stroke-width="1.45165" stroke-miterlimit="10" stroke-linecap="round"/>
<path d="M82.7475 115.381C84.101 115.583 85.293 115.118 85.41 114.341C85.527 113.564 84.5246 112.77 83.1712 112.568C81.8177 112.365 80.6256 112.831 80.5086 113.608C80.3916 114.385 81.394 115.179 82.7475 115.381Z" fill="#FFFDF8"/>
<path d="M102.903 107.458L102.413 109.304C102.321 109.654 102.424 110.026 102.683 110.278L104.053 111.608C104.183 111.733 104.061 111.949 103.887 111.903L102.041 111.414C101.691 111.321 101.319 111.424 101.067 111.683L99.7367 113.054C99.6112 113.183 99.3958 113.061 99.4419 112.887L99.9311 111.041C100.024 110.691 99.9206 110.319 99.6612 110.067L98.2911 108.737C98.1618 108.612 98.2836 108.396 98.4578 108.442L100.304 108.931C100.653 109.024 101.026 108.921 101.277 108.661L102.608 107.291C102.733 107.162 102.949 107.284 102.903 107.458Z" fill="#FFFDF8"/>
<path d="M132.768 126.146L132.694 128.054C132.68 128.415 132.862 128.756 133.17 128.945L134.798 129.944C134.951 130.038 134.879 130.275 134.699 130.268L132.791 130.194C132.43 130.18 132.089 130.362 131.9 130.67L130.901 132.298C130.807 132.451 130.57 132.379 130.577 132.199L130.651 130.291C130.665 129.93 130.483 129.589 130.175 129.4L128.547 128.401C128.394 128.307 128.466 128.07 128.646 128.077L130.554 128.151C130.915 128.165 131.256 127.983 131.445 127.675L132.444 126.047C132.538 125.894 132.775 125.966 132.768 126.146Z" fill="#FFFDF8"/>
</g>
<path d="M132.362 92.6664C106.569 98.8143 79.6639 98.8143 53.8715 92.6664C42.284 89.912 35.9887 79.4402 39.4315 71.0056C42.8743 62.5346 52.6751 58.4498 61.6087 60.539C82.3179 65.4761 103.915 65.4761 124.63 60.539C133.563 58.4498 143.359 62.5294 146.807 71.0056C150.25 79.4402 143.954 89.912 132.367 92.6664H132.362Z" fill="#2EC08B"/>
<path d="M58.9574 71.7642C57.7019 71.3424 56.4573 70.9045 55.2126 70.4341C55.392 69.9692 55.5659 69.4988 55.7453 69.0338C58.7129 70.1476 61.7239 71.1262 64.7567 71.9696C64.6209 72.4508 64.485 72.932 64.3545 73.4132C63.0936 73.0618 61.8326 72.6887 60.5771 72.294C59.5281 75.5704 58.4792 78.8469 57.4302 82.1233C56.8378 81.934 56.2453 81.7448 55.6529 81.5448C56.7562 78.2846 57.8541 75.0244 58.9574 71.7642Z" fill="#1C1C1C"/>
<path d="M67.0613 72.5806C69.7191 73.251 72.3932 73.8187 75.0836 74.2837C74.9966 74.7757 74.9096 75.2677 74.8281 75.7597C72.6486 75.3866 70.48 74.9433 68.3223 74.4296C68.0396 75.6137 67.757 76.7977 67.4744 77.9818C69.3821 78.436 71.3061 78.836 73.2302 79.1821C73.1432 79.6687 73.0508 80.1553 72.9639 80.6419C71.0126 80.2904 69.0669 79.8795 67.132 79.4254C66.8493 80.6148 66.5613 81.8043 66.2786 82.9937C68.6321 83.5506 71.0018 84.0318 73.3824 84.4427C73.2954 84.9401 73.2084 85.4375 73.1215 85.935C70.1104 85.4159 67.1157 84.7833 64.1372 84.0318C65.1101 80.2147 66.0884 76.3977 67.0613 72.5806Z" fill="#1C1C1C"/>
<path d="M75.5618 83.0803C76.1488 83.0533 76.7304 83.0208 77.3174 82.983C77.2902 84.3995 78.3609 85.416 80.5187 85.6539C82.5188 85.8701 83.6493 85.2213 83.7417 84.0805C83.8232 83.1127 83.2091 82.4856 81.9155 82.1071C81.0839 81.8638 80.2523 81.6151 79.4262 81.3502C77.3935 80.7068 76.4532 79.4254 76.7086 77.7926C77.0239 75.8192 78.8066 74.7 81.3937 74.992C84.0243 75.2785 85.3396 76.7113 85.5462 78.6955C85.0081 78.7712 84.4646 78.8415 83.9211 78.9064C83.8015 77.6575 82.9699 76.6572 81.1709 76.4572C79.5566 76.2788 78.5185 76.8194 78.3609 77.9386C78.2413 78.7928 78.7359 79.4741 79.9643 79.8688C80.7959 80.1337 81.6329 80.3878 82.4753 80.6365C84.4917 81.215 85.6059 82.3396 85.4918 84.1346C85.3614 86.2756 83.4862 87.4543 80.3502 87.1191C77.1543 86.7676 75.5618 85.1565 75.5564 83.0749L75.5618 83.0803Z" fill="#1C1C1C"/>
<path d="M91.0411 77.3005C89.7367 77.2734 88.4322 77.2248 87.1278 77.1545C87.155 76.6571 87.1822 76.1543 87.2093 75.6569C90.3291 75.8299 93.4543 75.8677 96.5741 75.765C96.5904 76.2624 96.6067 76.7652 96.623 77.2626C95.324 77.3059 94.025 77.3221 92.726 77.3167C92.7151 80.7553 92.6988 84.1939 92.6879 87.6326C92.0738 87.6326 91.4542 87.6217 90.84 87.6109C90.9052 84.1723 90.9759 80.7337 91.0411 77.2951V77.3005Z" fill="#1C1C1C"/>
<path d="M98.9384 75.6623C99.7917 75.6136 100.645 75.5596 101.498 75.4893C103.504 78.5873 105.667 81.6258 107.988 84.5995C108.031 84.5941 108.08 84.5886 108.124 84.5832C107.7 81.3663 107.276 78.1493 106.852 74.9324C107.395 74.8621 107.939 74.7864 108.482 74.7053C109.059 78.6035 109.635 82.4963 110.211 86.3945C109.314 86.5242 108.417 86.6486 107.52 86.7567C105.129 83.6966 102.901 80.5661 100.835 77.3816C100.792 77.3816 100.748 77.387 100.705 77.3924C100.938 80.7121 101.178 84.0318 101.411 87.346C100.803 87.3893 100.194 87.4271 99.5851 87.4596C99.3677 83.5289 99.1503 79.5929 98.9275 75.6623H98.9384Z" fill="#1C1C1C"/>
<path d="M111.809 74.1647C114.494 73.6836 117.168 73.0996 119.82 72.4076C119.945 72.8888 120.076 73.3754 120.201 73.8566C118.054 74.4135 115.891 74.9055 113.717 75.3272C113.95 76.522 114.189 77.7169 114.423 78.9064C116.347 78.5333 118.26 78.1062 120.168 77.6304C120.288 78.1116 120.413 78.5874 120.532 79.0686C118.603 79.5498 116.662 79.9823 114.711 80.3662C114.945 81.5664 115.184 82.7667 115.418 83.967C117.787 83.5074 120.146 82.9667 122.494 82.3558C122.625 82.8424 122.75 83.3344 122.88 83.821C119.907 84.5941 116.918 85.2483 113.907 85.789C113.206 81.9125 112.504 78.0359 111.803 74.1593L111.809 74.1647Z" fill="#1C1C1C"/>
<path d="M125.652 72.2886C124.391 72.6887 123.13 73.0618 121.858 73.4132C121.722 72.932 121.586 72.4508 121.456 71.9696C124.494 71.1316 127.5 70.153 130.467 69.0338C130.647 69.4988 130.821 69.9692 131 70.4341C129.766 70.8991 128.522 71.3425 127.272 71.7588C128.375 75.019 129.473 78.2792 130.576 81.5394C129.984 81.7394 129.391 81.9286 128.799 82.1179C127.75 78.8414 126.701 75.565 125.652 72.2886Z" fill="#1C1C1C"/>
<path d="M236.881 113.556C213.471 117.113 190.584 123.553 168.741 132.717C159.424 136.61 148.373 133.049 143.765 124.052C139.16 115.073 143.874 103.476 154.628 98.9703C179.276 88.6235 205.102 81.3605 231.513 77.3462C243.03 75.5916 253.047 83.0417 253.751 93.1182C254.461 103.217 246.855 112.022 236.879 113.551L236.881 113.556Z" fill="#3B3C40"/>
<path d="M152.938 112.343C153.929 111.872 154.925 111.398 155.922 110.937C158.614 113.76 161.253 116.619 163.848 119.509C163.889 119.487 163.933 119.469 163.977 119.452C163.591 115.582 163.264 111.7 162.992 107.807C164.005 107.377 165.016 106.955 166.033 106.543C167.69 110.62 169.349 114.701 171.005 118.778C170.443 119.007 169.888 119.238 169.328 119.473C167.899 116.029 166.468 112.594 165.038 109.15C164.974 109.179 164.907 109.202 164.842 109.231C165.118 113.155 165.446 117.063 165.839 120.956C165.132 121.264 164.424 121.58 163.72 121.893C161.1 118.983 158.427 116.11 155.705 113.27C155.649 113.301 155.595 113.324 155.535 113.35C157.114 116.724 158.692 120.099 160.271 123.474C159.722 123.728 159.171 123.991 158.626 124.251C156.727 120.28 154.833 116.308 152.932 112.332L152.938 112.343Z" fill="#1C1C1C"/>
<path d="M173.156 117.704C173.079 113.073 173.099 108.422 173.21 103.754C174.026 103.452 174.846 103.155 175.665 102.858C178.744 106.36 181.743 109.912 184.655 113.513C184.675 113.574 184.696 113.636 184.716 113.698C184.134 113.891 183.56 114.087 182.98 114.285C182.246 113.399 181.512 112.512 180.768 111.631C178.81 112.313 176.864 113.029 174.922 113.763C174.919 114.915 174.924 116.069 174.929 117.222C174.361 117.441 173.791 117.668 173.222 117.887C173.197 117.828 173.176 117.766 173.148 117.702L173.156 117.704ZM179.635 110.272C178.187 108.56 176.719 106.86 175.231 105.171C175.163 105.195 175.101 105.215 175.037 105.244C174.982 107.494 174.949 109.746 174.936 111.987C176.496 111.396 178.068 110.826 179.64 110.269L179.635 110.272Z" fill="#1C1C1C"/>
<path d="M182.988 100.361C183.597 100.166 184.205 99.9719 184.814 99.7776C186.126 103.983 187.436 108.183 188.754 112.386C188.179 112.568 187.605 112.751 187.03 112.933C185.683 108.74 184.34 104.551 182.994 100.358L182.988 100.361Z" fill="#1C1C1C"/>
<path d="M188.595 98.6193C189.548 98.3353 190.507 98.0614 191.466 97.7876C194.414 100.723 197.275 103.706 200.056 106.74C200.103 106.728 200.15 106.715 200.191 106.706C199.301 103.186 198.414 99.6707 197.527 96.1557C198.147 95.9949 198.765 95.8419 199.383 95.6889C200.428 99.9678 201.474 104.247 202.517 108.52C201.648 108.738 200.778 108.956 199.912 109.179C197.07 106.072 194.149 103.016 191.136 100.01C191.089 100.022 191.042 100.035 190.996 100.047C192.016 103.622 193.039 107.202 194.059 110.777C193.476 110.944 192.901 111.113 192.32 111.286C191.077 107.062 189.835 102.838 188.592 98.6142L188.595 98.6193Z" fill="#1C1C1C"/>
<path d="M203.194 94.7799C204.168 94.5577 205.137 94.3383 206.112 94.1291C208.864 97.2448 211.54 100.403 214.121 103.606C214.167 103.594 214.212 103.59 214.258 103.577C213.59 100.009 212.923 96.4459 212.26 92.8749C212.889 92.7554 213.513 92.6387 214.145 92.5244C214.921 96.8585 215.691 101.195 216.466 105.53C215.584 105.688 214.708 105.857 213.826 106.028C211.185 102.751 208.46 99.5144 205.641 96.3283C205.595 96.3406 205.545 96.3479 205.499 96.3602C206.29 99.9939 207.09 103.63 207.882 107.264C207.292 107.395 206.702 107.526 206.116 107.662C205.143 103.369 204.167 99.0721 203.189 94.7827L203.194 94.7799Z" fill="#1C1C1C"/>
<path d="M218.007 91.8538C221.139 91.3379 224.284 90.8816 227.441 90.4848C227.51 91.0381 227.575 91.5942 227.645 92.1476C225.145 92.4629 222.649 92.8094 220.159 93.2053C220.363 94.5495 220.574 95.8961 220.777 97.2403C222.868 96.9102 224.968 96.6085 227.072 96.3379C227.139 96.8861 227.211 97.4315 227.278 97.9797C225.187 98.2497 223.106 98.5481 221.028 98.8777C221.234 100.227 221.443 101.582 221.649 102.931C224.055 102.554 226.468 102.214 228.882 101.912C228.949 102.473 229.017 103.035 229.084 103.596C226.084 103.973 223.093 104.405 220.115 104.896C219.412 100.549 218.71 96.2013 218.007 91.8538Z" fill="#1C1C1C"/>
<path d="M234.032 91.4396C232.542 91.5861 231.058 91.7428 229.572 91.9205C229.507 91.3644 229.45 90.8106 229.386 90.2544C233.01 89.8335 236.651 89.4902 240.298 89.2303C240.336 89.7875 240.375 90.3446 240.408 90.9046C238.922 91.0092 237.436 91.1268 235.953 91.2626C236.281 95.0979 236.611 98.9253 236.939 102.761C236.328 102.817 235.717 102.873 235.109 102.934C234.75 99.1025 234.386 95.2739 234.03 91.4475L234.032 91.4396Z" fill="#1C1C1C"/>
<path d="M183.619 54.4614C159.506 52.5007 135.825 46.781 113.45 37.4981C102.11 32.8037 97.2491 20.8613 102.089 12.1081C106.933 3.31888 118.023 0.127962 127.288 3.93553C146.135 11.754 166.087 16.5706 186.401 18.2286C196.366 19.0653 204.816 26.9817 205.176 37.0303C205.547 47.0474 195.838 55.4632 183.619 54.4614Z" fill="#3B3C40"/>
<path d="M116.879 11.3408C118.319 12.1053 119.774 12.8475 121.244 13.5674C125.052 15.4292 126.34 19.1277 124.796 22.7439C123.251 26.3601 119.406 27.9734 115.205 25.9221C113.613 25.1416 112.028 24.3337 110.451 23.4985C112.59 19.4509 114.735 15.3958 116.874 11.3482L116.879 11.3408ZM115.964 24.3268C118.912 25.7717 121.726 24.6739 122.942 21.9167C124.16 19.172 123.203 16.4641 120.458 15.1228C119.561 14.6807 118.669 14.2313 117.774 13.7694C116.218 16.8054 114.662 19.8415 113.101 22.885C114.053 23.3747 115.003 23.8519 115.957 24.3217L115.964 24.3268Z" fill="#1C1C1C"/>
<path d="M130.325 17.6625C133.23 18.8631 136.164 19.9743 139.125 20.996C138.937 21.5499 138.753 22.0962 138.558 22.645C136.16 21.8189 133.789 20.9358 131.434 19.998C130.918 21.3137 130.388 22.6319 129.864 23.9426C131.933 24.7738 134.024 25.5554 136.12 26.2972C135.929 26.8385 135.738 27.3799 135.555 27.9263C133.431 27.1768 131.325 26.3852 129.229 25.5463C128.707 26.8695 128.178 28.1876 127.656 29.5108C130.188 30.5245 132.733 31.4712 135.31 32.3533C135.122 32.9071 134.929 33.4683 134.74 34.0222C131.495 32.9063 128.275 31.6885 125.093 30.3664C126.838 26.1293 128.576 21.8871 130.322 17.65L130.325 17.6625Z" fill="#1C1C1C"/>
<path d="M140.692 21.7489C140.712 21.6868 140.737 21.6173 140.758 21.5552C141.368 21.7611 141.984 21.9597 142.592 22.1532C142.782 26.2572 143.073 30.3743 143.475 34.5022C143.55 34.5202 143.619 34.5456 143.694 34.5635C146.211 31.2778 148.621 27.9416 150.943 24.5575C151.564 24.7163 152.177 24.87 152.798 25.0287C152.785 25.0959 152.765 25.158 152.753 25.2251C150.072 29.2216 147.262 33.1524 144.315 37.0126C143.417 36.7647 142.53 36.502 141.643 36.2393C141.182 31.3915 140.866 26.5548 140.697 21.7414L140.692 21.7489Z" fill="#1C1C1C"/>
<path d="M155.224 25.6035C156.181 25.8269 157.141 26.0304 158.101 26.2338C159.316 30.3476 160.679 34.4524 162.207 38.5385C162.254 38.5488 162.314 38.5567 162.361 38.567C162.971 34.8396 163.58 31.1122 164.19 27.3849C164.813 27.4913 165.434 27.5854 166.057 27.6919C165.374 32.2228 164.685 36.7612 164.001 41.2921C162.999 41.1357 161.989 40.9742 160.989 40.7978C159.42 36.5969 158.02 32.3698 156.77 28.1463C156.722 28.136 156.675 28.1257 156.627 28.1154C155.823 31.9061 155.019 35.6968 154.215 39.4876C153.544 39.3384 152.873 39.1893 152.203 39.0401C153.208 34.5637 154.213 30.0873 155.221 25.6234L155.224 25.6035Z" fill="#1C1C1C"/>
<path d="M169.886 28.2167C172.99 28.6221 176.115 28.9331 179.253 29.1445C179.219 29.7268 179.178 30.3041 179.144 30.8864C176.61 30.714 174.089 30.4746 171.582 30.1805C171.427 31.5884 171.259 32.9987 171.104 34.4067C173.319 34.6664 175.531 34.8812 177.753 35.0488C177.712 35.6261 177.675 36.1959 177.627 36.7681C175.385 36.5979 173.14 36.3828 170.906 36.1205C170.745 37.5359 170.585 38.9512 170.425 40.3666C173.123 40.682 175.841 40.9353 178.552 41.1188C178.514 41.7086 178.48 42.2909 178.441 42.8806C175.007 42.6421 171.585 42.3042 168.176 41.8667C168.745 37.3126 169.322 32.7634 169.891 28.2093L169.886 28.2167Z" fill="#1C1C1C"/>
<path d="M185.599 31.2039C184.094 31.1634 182.593 31.1029 181.086 31.0176C181.12 30.4353 181.141 29.8554 181.175 29.2731C184.777 29.4729 188.394 29.5533 192.011 29.5043C192.022 30.0844 192.033 30.6646 192.039 31.2521C190.54 31.2689 189.038 31.2731 187.537 31.2451C187.5 35.2504 187.451 39.258 187.415 43.2633C186.719 43.2484 186.018 43.241 185.327 43.2186C185.416 39.2162 185.51 35.2064 185.599 31.2039Z" fill="#1C1C1C"/>
<path d="M171.145 56.3769L157.12 59.4491C152.383 60.4868 149.382 65.1477 150.419 69.8595L153.486 83.8095C154.522 88.5213 159.203 91.4998 163.94 90.4621L177.965 87.3899C182.702 86.3522 185.703 81.6912 184.666 76.9794L181.599 63.0295C180.562 58.3176 175.882 55.3392 171.145 56.3769Z" fill="#7D70E7"/>
<path d="M165.201 62.0073C161.818 62.7181 155.235 72.8015 155.946 76.1842C156.334 78.0321 159.514 80.8313 162.874 82.878C164.248 83.7147 165.653 84.4262 166.908 84.8947C168.206 85.3805 169.345 85.6043 170.125 85.4404C173.509 84.7292 180.09 74.6444 179.379 71.26C178.668 67.8756 168.585 61.2961 165.201 62.0073ZM174.746 74.1403C174.712 74.7102 173.853 75.8101 172.714 76.9546C170.831 78.8464 168.186 80.8616 167.246 80.8057C166.49 80.7617 164.794 79.257 163.303 77.5762C161.818 75.9027 160.536 74.0575 160.581 73.3053C160.669 71.796 166.573 66.5496 168.081 66.6399C169.59 66.7282 174.835 72.6326 174.746 74.1403Z" fill="#FFFDF8"/>
<path d="M71.4687 40.1888C74.7416 40.4035 77.499 39.0553 77.6273 37.1775C77.7557 35.2997 75.2065 33.6034 71.9336 33.3887C68.6606 33.174 65.9033 34.5223 65.7749 36.4001C65.6465 38.2779 68.1957 39.9742 71.4687 40.1888Z" fill="#FFFDF8"/>
<path d="M67.1732 104.305C68.2226 104.373 69.1067 103.941 69.1478 103.339C69.189 102.737 68.3716 102.193 67.3222 102.125C66.2728 102.056 65.3888 102.488 65.3476 103.09C65.3065 103.692 66.1238 104.236 67.1732 104.305Z" fill="#FFFDF8"/>
<path d="M44.7818 111.04C45.2966 110.888 45.6453 110.525 45.5605 110.23C45.4757 109.935 44.9896 109.819 44.4747 109.972C43.9599 110.125 43.6112 110.488 43.696 110.783C43.7808 111.078 44.2669 111.193 44.7818 111.04Z" fill="#FFFDF8"/>
</g>
<path d="M242.338 67.3081C242.676 66.7994 242.167 65.8611 241.202 65.2124C240.237 64.5636 239.181 64.4502 238.844 64.9589C238.506 65.4677 239.015 66.406 239.98 67.0547C240.945 67.7034 242.001 67.8169 242.338 67.3081Z" fill="#FFFDF8"/>
<path d="M260.627 83.8776C264.634 91.9337 265.417 101.287 262.637 109.889C262.573 110.086 262.509 110.282 262.441 110.477C262.165 111.289 261.858 112.121 261.901 112.975C261.944 113.828 262.453 114.711 263.258 114.849C263.853 114.951 264.468 114.621 264.882 114.148C265.297 113.676 265.545 113.075 265.775 112.483C270.373 100.608 269.836 86.8097 264.344 75.6375C263.68 74.2854 262.811 72.8501 261.179 72.801C260.277 72.7738 258.972 73.4872 258.372 74.209C257.072 75.7697 257.633 77.6752 258.398 79.3992L260.627 83.8776Z" fill="#FFFDF8"/>
<path d="M258.377 93.6551C260.019 92.7388 259.95 89.425 258.224 86.2533C256.497 83.0817 253.766 81.2534 252.124 82.1697C250.482 83.086 250.551 86.3998 252.277 89.5714C254.004 92.7431 256.735 94.5714 258.377 93.6551Z" fill="#FFFDF8"/>
<path d="M245.445 114.796C247.852 112.835 249.01 110.251 248.032 109.026C247.053 107.801 244.308 108.397 241.901 110.359C239.494 112.32 238.336 114.903 239.314 116.129C240.293 117.354 243.038 116.757 245.445 114.796Z" fill="#FFFDF8"/>
<path d="M200.788 40.9468L201.478 45.453C201.609 46.306 202.19 47.0224 202.998 47.3259L207.265 48.9305C207.667 49.0817 207.606 49.6693 207.181 49.7347L202.675 50.4246C201.822 50.5553 201.105 51.1361 200.802 51.9438L199.197 56.2109C199.046 56.6135 198.458 56.5522 198.393 56.1271L197.703 51.6208C197.572 50.7678 196.992 50.0514 196.184 49.7479L191.917 48.1434C191.514 47.9921 191.575 47.4045 192.001 47.3392L196.507 46.6492C197.36 46.5185 198.076 45.9377 198.38 45.13L199.984 40.8629C200.136 40.4604 200.723 40.5216 200.788 40.9468Z" fill="#FFFDF8"/>
<path d="M112.62 44.7845L106.365 48.0853C105.181 48.7103 104.425 49.9256 104.391 51.2638L104.207 58.3342C104.189 59.0011 103.297 59.2098 102.985 58.6198L99.6844 52.3645C99.0594 51.1805 97.8441 50.4254 96.5059 50.3909L89.4355 50.2066C88.7686 50.1895 88.5599 49.2969 89.1499 48.9852L95.4051 45.6844C96.5891 45.0594 97.3443 43.8441 97.3788 42.5059L97.5631 35.4355C97.5802 34.7686 98.4728 34.5599 98.7845 35.1499L102.085 41.4052C102.71 42.5891 103.926 43.3443 105.264 43.3788L112.334 43.5631C113.001 43.5802 113.21 44.4728 112.62 44.7845Z" fill="#FFFDF8"/>
<path d="M50.3627 50.5157L50.7328 57.934C50.8031 59.3383 51.6255 60.5958 52.8843 61.2218L59.5341 64.5309C60.1614 64.8428 59.9646 65.7851 59.2647 65.8204L51.8463 66.1906C50.442 66.2608 49.1845 67.0832 48.5585 68.342L45.2494 74.9918C44.9375 75.6191 43.9952 75.4223 43.9599 74.7224L43.5898 67.304C43.5195 65.8998 42.6971 64.6422 41.4383 64.0162L34.7885 60.7071C34.1612 60.3952 34.358 59.4529 35.0579 59.4176L42.4763 59.0475C43.8805 58.9772 45.1381 58.1548 45.7641 56.896L49.0732 50.2463C49.3851 49.6189 50.3274 49.8158 50.3627 50.5157Z" fill="#FFFDF8"/>
<defs>
<clipPath id="clip0_2749_18398">
<rect width="223.548" height="140" fill="white" transform="translate(35.5425)"/>
</clipPath>
</defs>
</svg>
