<svg width="375" height="273" viewBox="0 0 375 273" fill="none" xmlns="http://www.w3.org/2000/svg">
<g clip-path="url(#clip0_1359_81027)">
<path d="M118.31 114.55C112.92 115.3 107.07 114.02 101.83 110.93C91.21 104.66 86.48 92.92 91.3 84.75C93.49 81.04 97.36 78.56 102.25 77.74C102.44 77.71 102.63 77.68 102.82 77.65C108.21 76.9 114.06 78.18 119.3 81.27C124.54 84.36 128.51 88.86 130.46 93.93C130.7 94.54 130.9 95.15 131.07 95.76C131.07 95.76 131.07 95.76 131.08 95.76L136.04 93.43C135.89 92.95 135.72 92.46 135.54 91.98C133.15 85.76 128.36 80.29 122.07 76.58C115.76 72.87 108.66 71.34 102.06 72.26C95.24 73.22 89.75 76.67 86.61 81.99C80.27 92.75 85.86 107.83 99.06 115.61C105.36 119.32 112.46 120.86 119.06 119.93C119.3 119.9 119.54 119.86 119.78 119.82C120.96 119.62 122.07 119.32 123.16 118.98L123.67 112.98C122.06 113.75 120.26 114.28 118.31 114.55Z" fill="black"/>
<path d="M244.39 228.59L245.86 244.66C246.1 247.3 243.62 249.36 241.07 248.64L227.16 244.72C225.53 244.26 224.41 242.78 224.4 241.09C224.4 239.33 223.17 237.8 221.45 237.41L217.51 236.52C216.7 236.34 215.97 235.89 215.44 235.25L210.18 228.93C209.78 228.45 209.5 227.87 209.38 227.25L208.49 222.8C208.25 221.63 207.48 220.64 206.4 220.12L201.4 217.75C200.9 217.51 200.46 217.17 200.11 216.75L190.61 205.32C190.26 204.9 190.01 204.42 189.87 203.9L188.25 197.95C187.95 196.83 187.14 195.91 186.08 195.46L182.41 193.91C181.82 193.66 181.3 193.26 180.9 192.75L179.86 191.42C179.16 190.52 178.9 189.36 179.16 188.26L179.47 186.89C179.91 184.98 178.81 183.06 176.95 182.45L172.59 181.03C171.87 180.79 171.24 180.35 170.78 179.76L169.11 177.62C167.86 176.01 168.11 173.69 169.67 172.39L183.81 160.63C185.42 159.3 187.8 159.51 189.14 161.12L243.53 226.52C244.02 227.11 244.32 227.83 244.39 228.59Z" fill="black"/>
<path d="M201.19 126.12L201.03 125.93L197.01 121.09L186.59 108.56L177.33 97.42C175.97 95.78 174.22 94.59 172.28 93.93C170.5 93.32 168.57 93.15 166.65 93.48L129.87 99.8C128.2 100.09 126.64 100.74 125.29 101.69C123.41 102.99 121.94 104.86 121.12 107.08L108.2 142.1C106.79 145.91 107.52 150.19 110.12 153.31L133.99 182.01C136.59 185.14 140.65 186.64 144.66 185.95L181.45 179.63C185.46 178.94 188.79 176.16 190.19 172.35L190.84 170.58L203.12 137.33C204.52 133.52 203.79 129.24 201.19 126.12ZM130.5 102.68C132.26 100.16 135.1 99.11 136.85 100.32C138.6 101.54 138.6 104.58 136.84 107.1C135.08 109.62 132.24 110.67 130.49 109.45C128.74 108.23 128.75 105.2 130.5 102.68Z" fill="black"/>
<path d="M283.71 194.51L289.76 210.59C290.75 213.23 288.79 216.06 285.96 216.04L270.57 215.94C268.77 215.93 267.19 214.72 266.71 212.99C266.21 211.18 264.52 209.95 262.64 210.04L258.34 210.24C257.45 210.28 256.58 210.03 255.85 209.52L248.66 204.51C248.11 204.13 247.66 203.61 247.36 203.01L245.19 198.69C244.62 197.55 243.54 196.75 242.29 196.53L236.49 195.51C235.92 195.41 235.37 195.18 234.89 194.85L221.9 185.8C221.43 185.47 221.03 185.04 220.74 184.55L217.39 178.9C216.76 177.84 215.68 177.12 214.46 176.96L210.25 176.4C209.57 176.31 208.92 176.05 208.37 175.64L206.92 174.56C205.95 173.84 205.36 172.72 205.3 171.51L205.23 170.01C205.14 167.93 203.47 166.26 201.39 166.16L196.51 165.94C195.71 165.9 194.93 165.63 194.29 165.15L191.98 163.43C190.24 162.13 189.84 159.68 191.08 157.9L202.29 141.82C203.56 139.99 206.07 139.55 207.9 140.82L282.26 192.63C282.93 193.1 283.44 193.75 283.73 194.52L283.71 194.51Z" fill="#9886E5"/>
<path d="M212.09 102.66L179.17 79.73C175.71 77.31 171.22 76.93 167.4 78.72L131.08 95.76C128.46 96.99 126.42 99.12 125.29 101.69C124.76 102.86 124.43 104.13 124.32 105.46L120.92 145.43C120.56 149.64 122.47 153.72 125.94 156.13L158.85 179.06C162.31 181.48 166.8 181.86 170.63 180.07L190.84 170.58L206.94 163.03C210.77 161.24 213.34 157.54 213.7 153.33L217.11 113.36C217.46 109.15 215.55 105.07 212.09 102.66ZM130.49 109.45C128.74 108.23 128.75 105.2 130.5 102.68C132.26 100.16 135.1 99.11 136.85 100.32C138.6 101.54 138.6 104.58 136.84 107.1C135.08 109.62 132.24 110.67 130.49 109.45Z" fill="#9886E5"/>
<path d="M199.53 112.23L174.77 94.86C174.02 94.34 173.16 94.02 172.28 93.93C171.31 93.81 170.31 93.96 169.39 94.39L141.98 107.14C141.11 107.54 140.37 108.17 139.83 108.93C139.3 109.7 138.96 110.6 138.88 111.56L136.22 141.66C136.05 143.59 136.92 145.46 138.5 146.56L163.25 163.94C164.83 165.04 166.88 165.22 168.63 164.41L196.04 151.66C196.91 151.25 197.65 150.63 198.19 149.86C198.72 149.1 199.07 148.2 199.15 147.24L201.03 125.93L201.81 117.13C201.98 115.21 201.11 113.34 199.53 112.23ZM194.73 146.85C194.72 147.02 194.65 147.18 194.55 147.33C194.45 147.47 194.33 147.58 194.16 147.66L166.75 160.41C166.44 160.56 166.06 160.53 165.79 160.32L141.03 142.95C140.74 142.75 140.59 142.41 140.62 142.06L143.28 111.94C143.3 111.78 143.37 111.61 143.46 111.48C143.56 111.33 143.68 111.23 143.85 111.14L171.26 98.39C171.58 98.24 171.95 98.27 172.23 98.48L186.59 108.56L196.98 115.85C197.27 116.05 197.42 116.39 197.39 116.74L197.01 121.09L194.73 146.85Z" fill="#181818"/>
<path d="M191.7 123.18L160.51 114.92C160.2 114.83 159.95 115.19 160.14 115.45L163.49 120.2C163.57 120.33 163.72 120.43 163.87 120.46L188.96 127.11C189.23 127.18 189.53 127.08 189.7 126.84L191.89 123.7C192.04 123.51 191.93 123.24 191.7 123.18ZM187.87 128.67L166.13 122.92C165.82 122.82 165.57 123.18 165.76 123.44L169.11 128.19C169.19 128.32 169.34 128.42 169.49 128.46L185.14 132.6C185.41 132.67 185.71 132.57 185.87 132.33L188.06 129.19C188.19 129 188.1 128.72 187.87 128.67ZM173.78 148.9L153.11 119.5C152.99 119.31 152.7 119.3 152.56 119.51L150.37 122.65C150.21 122.89 150.21 123.19 150.38 123.43L171.04 152.83C171.17 153.03 171.46 153.01 171.6 152.82L173.78 149.69C173.95 149.45 173.95 149.14 173.78 148.9ZM177.61 143.42L156.94 114.01C156.82 113.81 156.52 113.82 156.39 114.01L154.2 117.15C154.04 117.39 154.04 117.69 154.21 117.93L174.87 147.35C175 147.55 175.3 147.54 175.43 147.35L177.62 144.21C177.78 143.97 177.78 143.67 177.62 143.42H177.61Z" fill="#181818"/>
<path d="M131.66 101.38C131.51 103.55 130.91 105.61 129.83 107.45C129.71 107.65 129.57 107.83 129.44 108.03C129.65 108.61 129.99 109.11 130.49 109.46C131.78 110.36 133.68 110.02 135.28 108.76C136.49 106.23 137.12 103.48 137.15 100.62C137.05 100.52 136.96 100.42 136.85 100.34C135.45 99.37 133.35 99.87 131.67 101.4L131.66 101.38Z" fill="black"/>
<path d="M134.51 110.21C134.79 109.73 135.04 109.24 135.28 108.75C133.67 110.01 131.78 110.36 130.49 109.45C130 109.1 129.66 108.61 129.44 108.02C128.04 110.13 126.09 111.82 123.68 112.97L123.17 118.97C128.08 117.41 132.04 114.4 134.52 110.2L134.51 110.21Z" fill="#9886E5"/>
<path d="M131.06 95.77C131.59 97.69 131.78 99.57 131.66 101.38C133.35 99.85 135.44 99.35 136.84 100.32C136.96 100.4 137.04 100.51 137.14 100.6C137.17 98.26 136.8 95.85 136.03 93.43L131.07 95.76C131.07 95.76 131.07 95.76 131.06 95.76V95.77Z" fill="black"/>
</g>
<path d="M75.7633 147.256L84.8663 148.913C86.5895 149.226 88.3483 148.583 89.4649 147.23L95.3664 140.082C95.9229 139.407 97.0099 139.914 96.854 140.776L95.1969 149.903C94.8835 151.631 95.524 153.394 96.8731 154.513L103.999 160.426C104.672 160.984 104.165 162.074 103.306 161.918L94.2035 160.261C92.4803 159.948 90.7215 160.591 89.6048 161.944L83.7033 169.092C83.1469 169.767 82.0598 169.26 82.2157 168.398L83.8728 159.271C84.1862 157.543 83.5457 155.78 82.1966 154.661L75.0705 148.748C74.3981 148.19 74.9044 147.1 75.7633 147.256Z" fill="black"/>
<path d="M284.75 176.972L290.989 177.535C292.17 177.641 293.316 177.101 293.987 176.12L297.531 170.942C297.865 170.453 298.629 170.729 298.576 171.319L298.014 177.574C297.908 178.758 298.447 179.908 299.425 180.58L304.59 184.133C305.077 184.468 304.802 185.234 304.214 185.181L297.975 184.618C296.794 184.512 295.648 185.053 294.977 186.033L291.433 191.212C291.099 191.7 290.335 191.425 290.388 190.834L290.95 184.579C291.056 183.395 290.517 182.246 289.539 181.573L284.374 178.02C283.887 177.685 284.162 176.92 284.75 176.972Z" fill="black"/>
<circle cx="296.822" cy="227.822" r="1.99581" transform="rotate(-44.6609 296.822 227.822)" fill="black"/>
<path fill-rule="evenodd" clip-rule="evenodd" d="M299.962 192.151C301.887 191.428 304.034 192.403 304.757 194.328C308.536 204.387 306.191 213.884 302.531 220.993C302.075 221.88 301.585 222.754 301.078 223.604C300.028 225.363 298.057 224.145 298.744 222.215C299.912 218.938 300.508 215.681 300.633 214.591C301.291 208.824 300.02 202.894 297.786 196.947C297.062 195.021 298.037 192.875 299.962 192.151Z" fill="black"/>
<path d="M108.273 177.795C111.162 177.23 113.244 175.43 112.923 173.776C112.602 172.121 110 171.239 107.11 171.805C104.221 172.371 102.139 174.171 102.46 175.825C102.781 177.479 105.384 178.361 108.273 177.795Z" fill="black"/>
<path d="M230.394 141.015C233.283 140.449 235.365 138.649 235.044 136.995C234.723 135.341 232.121 134.459 229.231 135.025C226.342 135.591 224.26 137.391 224.581 139.045C224.902 140.699 227.505 141.581 230.394 141.015Z" fill="black"/>
<path d="M239.183 123.266C240.974 122.915 242.264 121.8 242.065 120.775C241.866 119.75 240.253 119.203 238.463 119.554C236.673 119.904 235.382 121.02 235.581 122.045C235.78 123.07 237.393 123.617 239.183 123.266Z" fill="black"/>
<path d="M93.0819 187.204C94.0904 186.591 94.6268 185.625 94.28 185.047C93.9332 184.469 92.8346 184.498 91.8261 185.111C90.8176 185.725 90.2811 186.691 90.6279 187.269C90.9747 187.847 92.0734 187.818 93.0819 187.204Z" fill="black"/>
<defs>
<clipPath id="clip0_1359_81027">
<rect width="206.02" height="176.79" fill="white" transform="translate(84 72)"/>
</clipPath>
</defs>
</svg>
