<svg width="112" height="168" fill="none" xmlns="http://www.w3.org/2000/svg"><path d="m75.89 11.209 7.268 3.99V0l-7.269 11.209ZM75.89 12.489l7.268 9.517V16.48l-7.269-3.991Z" fill="#99D6FF"/><path d="M83.158 0v15.2l7.266-3.991L83.158 0Z" fill="#56B4FC"/><path opacity=".5" d="M83.158 0v15.2l7.266-3.991L83.158 0Z" fill="#1652F0"/><path d="M83.158 16.48v5.526l7.271-9.517-7.271 3.99Z" fill="#1652F0"/><path d="m83.158 8.136-7.269 3.073 7.269 3.99V8.137Z" fill="#56B4FC"/><path d="M83.158 8.136V15.2l7.266-3.991-7.266-3.073Z" fill="#1652F0"/><path d="M92.078 35.836c1.448-7.749-3.66-15.204-11.408-16.652-7.749-1.448-15.204 3.66-16.652 11.408-1.448 7.748 3.66 15.204 11.408 16.652 7.749 1.448 15.204-3.66 16.652-11.408Z" fill="#fff"/><path d="M70.591 22.327a13.235 13.235 0 0 0-2.167 1.86l9.623 12.6V20.207l-.338-.185a13.133 13.133 0 0 0-7.118 2.304Z" fill="#56B4FC"/><path d="m78.384 20.023-.338.185v16.578l9.63-12.604a13.195 13.195 0 0 0-9.292-4.16Z" fill="#1652F0"/><path opacity=".3" d="M6.031 154.991c-2.945 4.939 27.995.548 28.011 3.289.016 2.742-9.124.069-14.008 3.29-4.883 3.221-.132 7.781 10.128 6.049 10.261-1.731 19.667-4.199 26.222-4.267 6.555-.068 20.996 1.713 30.782.411 9.785-1.302 16.341-5.825 12.636-9.389-3.706-3.564-16.246-2.571-23.847-1.628-7.6.942-19.36 2.583-29.452.88-10.092-1.703-37.527-3.575-40.472 1.365Z" fill="#D4EEFF"/><path d="m87.025 44.404-1.375.941 2.27 3.313 1.374-.941-2.27-3.313Z" fill="#0C243B"/><path d="M72.398 150.921h-4.647l-1.022-5.415h4.227l1.442 5.415Z" fill="#56B4FC"/><path opacity=".3" d="m71.734 148.429-.78-2.923h-4.226l1.022 5.414h1.904c-.118-.86-1.044-1.345-.983-1.634.092-.432 1.678.198 3.063-.857Z" fill="#1652F0"/><path d="M47.66 150.921h-4.227l.511-5.415h3.716v5.415Z" fill="#56B4FC"/><path opacity=".3" d="M43.433 150.921h1.738c.107-.964-.32-.964-.175-1.959.143-.981 1.745.703 2.664-.084v-3.371h-3.716l-.51 5.414Z" fill="#1652F0"/><path d="M65.828 84.61c2.077 3.894 2.171 37.098 8.354 61.486a.507.507 0 0 1-.139.494c-3.086 2.918-7.902 2.27-9.352 1.318a.526.526 0 0 1-.226-.319c-8.971-37.987-7.502-47.254-9.497-47.254-1.974 0-5.556 36.78-4.474 46.818a.51.51 0 0 1-.294.526c-3.858 1.669-8.344-.667-9.473-1.32a.505.505 0 0 1-.255-.463c.174-3.899 2.05-44.644 5.026-59.114 11.86-2.78 20.33-2.172 20.33-2.172Z" fill="#D4EEFF"/><path opacity=".5" d="M55.926 101.873c.895 3.898 1.532 16.047 8.54 45.717a.532.532 0 0 0 .225.319c.756.495 2.425.905 4.288.772-6.526-15.522-4.044-24.038-13.053-46.808Z" fill="#99D6FF"/><path opacity=".5" d="M65.828 84.61s-8.471-.608-20.33 2.172c-2.977 14.469-4.852 55.212-5.026 59.114a.504.504 0 0 0 .254.462c.638.368 2.352 1.276 4.42 1.693-1.802-12.126-.107-24.841 1.202-30.53 1.526-6.635-.2-18.247.862-25.546 5.547 4.844 13.807-4.106 19.322-4.59-.215-1.336-.444-2.287-.704-2.775Z" fill="#99D6FF"/><path d="M40.54 71.831s-2.176 4.5-.986 6.268c1.19 1.768 7.141 3.91 7.141 3.91l2.584-7.582-8.74-2.596Z" fill="#56B4FC"/><path opacity=".3" d="M39.766 73.778c2.152 1.364 4.119 1.341 4.896 2.02.707.615-.877 2.12-1.472 4.74 1.78.85 3.506 1.472 3.506 1.472l2.584-7.583-8.74-2.595c.001 0-.407.845-.774 1.946Z" fill="#1652F0"/><path d="m88.5 46.223-1.68 1.151a.256.256 0 0 0-.066.356s5.306 7.798 5.71 8.336c.568.805 2.506-.85 2.102-1.44l-5.71-8.336a.255.255 0 0 0-.355-.067Z" fill="#1652F0"/><path opacity=".25" d="M94.421 54.413c-.352.396-.973 1.18-1.684.893-1.115-.45-3.891-6.316-5.519-8.204l-.398.272a.256.256 0 0 0-.066.355s5.305 7.798 5.71 8.336c.568.806 2.506-.85 2.102-1.44l-.145-.212Z" fill="#135"/><path d="M90.275 24.843c-4.625-6.75-13.846-8.474-20.598-3.85-6.75 4.624-8.474 13.846-3.85 20.597 4.624 6.751 13.846 8.475 20.597 3.85 6.751-4.624 8.475-13.845 3.85-20.597Zm-5.092 18.785c-5.75 3.939-13.604 2.47-17.543-3.28-3.938-5.749-2.47-13.603 3.28-17.542 5.749-3.939 13.603-2.47 17.542 3.28 3.94 5.749 2.471 13.603-3.28 17.542Z" fill="#FFD066"/><path d="M55.824 48.687c1.693 0 3.065-2.287 3.065-5.109s-1.372-5.109-3.066-5.109c-1.693 0-3.065 2.287-3.065 5.11 0 2.82 1.372 5.108 3.066 5.108Z" fill="#56B4FC"/><path d="M48.43 47.333c.922 2.345 9.35 4.188 8.244-4.714 0 0 4.202-7.16 1.001-9.85-3.2-2.69-10.324.184-10.43 5.82-3.186-3.055-8.902-1.053-9.428 3.53-.527 4.582 4.898 9.165 10.614 5.214Z" fill="#1652F0"/><path opacity=".25" d="M47.309 37.819c-.035.251-.06.506-.064.77a5.262 5.262 0 0 0-.776-.612c2.392 3.487 1.972 6.999.984 7.687-1.284.745-2.844-.573-4.889-.906-1.62-.263-2.438.641-4.225.434 1.479 3.171 5.697 5.178 10.09 2.141.026.065.06.129.096.193.47-1.263.986-2.884 1.237-4.464.36-2.274-1.344-4.231-2.453-5.243Z" fill="#135"/><path d="m72.316 60.911 5.03 2.189 9.511-9.686s.24-3.218 1.222-3.75l.752 1.099 1.91-1.893a.511.511 0 0 1 .686-.03l.91.753c.347.288.59.683.689 1.125l.276 1.227c.085.379-.05.772-.352 1.017L90.8 54.71c-.14.115-.31.19-.49.217l-1.572.24S82.189 69.76 77.904 69.574c-4.284-.186-9.128-2.608-9.128-2.608l3.54-6.054Z" fill="#56B4FC"/><path opacity=".3" d="m72.639 66.09-3.303-.082-.56.958s4.844 2.422 9.129 2.608c4.284.186 10.833-14.405 10.833-14.405-3.125 3.632-4.422 8.688-8.216 11.754-3.217 2.598-5.419.45-7.883-.833Z" fill="#1652F0"/><path d="M75.529 62.025a.516.516 0 0 0-.302-.58c-5.972-2.544-8.835-6.845-14.236-8.162l.028.007c-2.904 1.35-3.846 5.806-6.447 5.61-2.028-.154-2.72-2.532-3.799-4.292-6.719 4.038-11.437 14.456-12.408 16.738a.508.508 0 0 0 .247.656l7.345 3.579s-1.212 6.194-2.226 11.665a.514.514 0 0 0 .193.498c10.541 8.092 15.84-2.718 23.217-1.922a.502.502 0 0 0 .553-.566c-.723-5.313-2.165-17.098-2.165-17.098s4.832 1.667 9.4 1.902a.517.517 0 0 0 .532-.452c.306-2.195-.406-5.154.068-7.583Z" fill="#135"/><path d="M75.46 69.609c.052-.372.068-.773.072-1.183-1.585.436-3.143.035-5.22-.427-2.23-.495-2.912-.155-4.784.16 0 0 4.832 1.666 9.4 1.902a.517.517 0 0 0 .532-.452Z" fill="#0C243B"/><path opacity=".7" d="m72.264 69.639.392-.045c.091-.01.114-.132.033-.175l-.35-.184a.372.372 0 0 1-.195-.288l-.045-.392c-.01-.091-.132-.114-.175-.033l-.184.35a.372.372 0 0 1-.288.195l-.392.045c-.091.01-.114.132-.033.175l.349.184a.364.364 0 0 1 .161.194c.17.03.344.055.517.083a.365.365 0 0 1 .21-.11Z" fill="#fff"/><path d="m50.999 56.072-.596-1.229c-6.521 4.19-11.085 14.263-12.038 16.503a.508.508 0 0 0 .247.656l7.345 3.58s1.27-6.627 1.651-8.565c-1.111.981-2.04 2.625-3.133 3.931a.51.51 0 0 1-.887-.233c-.106-.55-.2-1.189-.266-1.93-.502-5.62 4.305-9.627 7.677-12.713Z" fill="#0C243B"/><path opacity=".7" d="m46.809 70.688-.19.347a.373.373 0 0 1-.29.192l-.393.038c-.092.01-.116.13-.036.175l.346.19c.108.058.18.167.192.29l.039.393c.005.053.048.08.092.08l.337-1.75a.09.09 0 0 0-.097.045Z" fill="#fff"/><path d="m72.835 152.277-.436-1.356H67.75l.77 4.301a.51.51 0 0 0 .503.421h9.787c.55-1.449-5.977-3.366-5.977-3.366ZM47.506 155.642H42.94a.51.51 0 0 1-.497-.63l.99-4.091h4.227l.355 4.167a.51.51 0 0 1-.509.554Z" fill="#135"/><path opacity=".25" d="M55.824 41.017c-.567.793-.654 2.886-.829 3.203-.174.317-.84.175-1.443.761-.602.587-.539 2.664-1.696 3.012-1.158.35-2.347-1.11-2.347-1.11s-.304.464-.645 1.078c1.963 1.965 8.814 2.74 7.81-5.342 0 0 1.087-1.855 1.734-4.03-1.018 1.212-2.263 1.979-2.584 2.428Z" fill="#135"/><path d="M47.351 37.534c-.062.34-.099.691-.106 1.055 0 0 3.587 3.806 1.186 8.744.158.403.54.788 1.055 1.11.005-.014 3.272-6.972-2.135-10.909Z" fill="#FFD066"/><path d="M54.852 53.087c-1.426.202-2.789.746-4.08 1.521 1.08 1.76 1.772 4.138 3.8 4.292 2.6.197 3.543-4.259 6.446-5.61-1.733-.426-3.724-.548-6.166-.203Z" fill="#56B4FC"/><path d="M57.514 56.035c-.95 1.31-1.783 2.439-2.903 2.355-1.296-.098-1.981-1.406-2.706-2.79-.22-.42-.453-.857-.696-1.257a14.03 14.03 0 0 0-.876.525c.227.372.45.79.667 1.205.784 1.498 1.672 3.195 3.534 3.336.07.005.138.008.206.008 1.582 0 2.608-1.413 3.602-2.782.973-1.34 1.976-2.717 3.531-3.107a13.011 13.011 0 0 0-1.603-.416c-1.14.719-1.99 1.87-2.756 2.923ZM56.167 83.965l.233.318c.073.1.19.157.313.153l.395-.013a.093.093 0 0 1 .058.168l-.319.233a.372.372 0 0 0-.152.313l.013.394a.093.093 0 0 1-.169.058l-.233-.318a.372.372 0 0 0-.312-.153l-.395.013c-.091.003-.132-.114-.058-.168l.319-.233c.1-.073.156-.19.152-.313L56 84.023c-.003-.092.115-.132.168-.058ZM61.678 76.259l.233.319c.073.1.19.156.313.152l.394-.013a.093.093 0 0 1 .058.168l-.319.233a.372.372 0 0 0-.152.313l.013.395a.093.093 0 0 1-.168.058l-.233-.319a.372.372 0 0 0-.313-.152l-.395.013c-.091.003-.132-.114-.058-.169l.32-.233c.099-.073.156-.19.151-.313l-.012-.394a.093.093 0 0 1 .168-.058ZM47.478 83.498l.124.374a.372.372 0 0 0 .252.241l.38.109c.087.025.09.149.003.178l-.375.124a.372.372 0 0 0-.24.251l-.11.38a.093.093 0 0 1-.177.004l-.124-.375a.371.371 0 0 0-.252-.241l-.38-.109a.093.093 0 0 1-.003-.178l.375-.124a.372.372 0 0 0 .24-.25l.11-.38c.024-.089.149-.091.177-.004ZM55.964 70.357l.039.393a.373.373 0 0 0 .192.29l.346.19a.093.093 0 0 1-.036.175l-.393.038a.373.373 0 0 0-.29.192l-.19.346c-.044.08-.165.056-.174-.035l-.039-.393a.373.373 0 0 0-.191-.291l-.347-.19a.093.093 0 0 1 .036-.174l.393-.038a.373.373 0 0 0 .29-.192l.19-.346c.044-.08.166-.056.174.035ZM51.468 77.045l.286.273c.09.085.214.12.335.094l.386-.082c.09-.02.15.089.087.155l-.273.286a.373.373 0 0 0-.095.335l.083.386c.019.09-.09.15-.156.087l-.285-.273a.372.372 0 0 0-.335-.095l-.386.083c-.09.019-.15-.09-.087-.156l.273-.285a.373.373 0 0 0 .094-.335l-.082-.386c-.02-.09.089-.15.155-.087ZM60.074 63.599l-.078.387a.373.373 0 0 0 .097.334l.276.283a.093.093 0 0 1-.086.156l-.386-.079a.373.373 0 0 0-.335.098l-.283.275c-.066.064-.174.005-.156-.085l.079-.387a.373.373 0 0 0-.098-.334l-.275-.283a.093.093 0 0 1 .085-.156l.387.079a.373.373 0 0 0 .334-.098l.283-.275c.066-.064.175-.005.156.085ZM67.344 61.521l.215.331a.372.372 0 0 0 .305.17l.394.008c.092.002.126.12.049.171l-.331.215a.372.372 0 0 0-.17.305l-.008.395c-.002.091-.12.125-.17.048l-.216-.33a.372.372 0 0 0-.305-.17l-.394-.009c-.092-.001-.126-.12-.049-.17l.331-.216a.372.372 0 0 0 .17-.305l.008-.394c.001-.092.12-.126.17-.049ZM65.184 54.763l-.043.393a.373.373 0 0 0 .128.323l.3.257c.07.06.02.173-.07.163l-.393-.043a.373.373 0 0 0-.323.128l-.257.3c-.06.07-.173.021-.163-.07l.043-.392a.373.373 0 0 0-.128-.324l-.3-.257c-.07-.06-.021-.173.07-.163l.392.043a.373.373 0 0 0 .324-.128l.257-.3c.06-.07.173-.021.163.07ZM51.494 62.149l.216.33a.373.373 0 0 0 .304.17l.395.008a.093.093 0 0 1 .049.17l-.33.216a.372.372 0 0 0-.17.304l-.008.395c-.002.092-.121.126-.171.05l-.216-.332a.373.373 0 0 0-.304-.169l-.395-.008a.093.093 0 0 1-.049-.17l.33-.216a.373.373 0 0 0 .17-.305l.008-.394c.002-.092.121-.126.171-.05ZM44.96 63.877l.215.33a.373.373 0 0 0 .305.17l.394.008c.092.002.126.121.05.17l-.331.216a.373.373 0 0 0-.17.305l-.008.394c-.002.092-.12.126-.171.05l-.215-.331a.372.372 0 0 0-.305-.17l-.394-.008c-.092-.001-.126-.12-.05-.17l.331-.216a.372.372 0 0 0 .17-.304l.008-.395c.002-.092.12-.126.17-.049Z" fill="#fff"/><path d="M48.83 46.364c-.109.318-.24.64-.4.97.158.402.54.788 1.055 1.109.001-.003.196-.445.42-1.153-.003-.002-.63-.47-1.074-.926Z" fill="#F7A94C"/><path opacity=".3" d="m90.8 54.71 2.15-1.748c.3-.245.437-.639.352-1.017l-.257-1.137c-.218.6-.393 1.197-.7 1.667-.426.65-1.143.94-2.085 1.21-.941.269-1.523 1.482-1.523 1.482l1.572-.24c.18-.027.35-.102.49-.217Z" fill="#1652F0"/><path opacity=".3" d="m72.751 33.723-.079.387a.373.373 0 0 0 .098.334l.275.283c.064.066.005.175-.085.156l-.387-.079a.373.373 0 0 0-.334.098l-.283.275a.093.093 0 0 1-.156-.085l.079-.387a.373.373 0 0 0-.098-.334l-.275-.283c-.064-.066-.005-.175.085-.156l.387.079a.372.372 0 0 0 .334-.098l.283-.275c.065-.064.174-.005.156.085Z" fill="#56B4FC"/><path opacity=".3" d="m75.96 35.76-.223.007a.21.21 0 0 0-.17.096l-.12.188a.052.052 0 0 1-.096-.027l-.007-.222a.21.21 0 0 0-.097-.17l-.187-.12a.052.052 0 0 1 .027-.097l.222-.006a.21.21 0 0 0 .17-.097l.12-.187a.052.052 0 0 1 .096.027l.007.222a.21.21 0 0 0 .097.17l.187.12c.043.027.025.094-.027.096ZM71.881 30.838l-.222.007a.21.21 0 0 0-.17.096l-.12.188a.052.052 0 0 1-.097-.027l-.006-.223a.21.21 0 0 0-.097-.17l-.187-.12a.052.052 0 0 1 .027-.096l.222-.007a.21.21 0 0 0 .17-.096l.12-.188c.028-.043.095-.024.096.027l.007.223a.21.21 0 0 0 .097.17l.187.12a.052.052 0 0 1-.027.096Z" fill="#FFD066"/><path d="m74.854 28.884.62 2.007 2.007.62-2.008.618-.619 2.008-.619-2.008-2.007-.619 2.007-.619.62-2.007Z" fill="#fff"/></svg>